<svg width="18" height="12" viewBox="0 0 18 12" fill="none" xmlns="http://www.w3.org/2000/svg">
<path d="M17.4049 9.38369L16.9786 8.66326C16.9926 8.51445 16.9629 8.36038 16.8815 8.22207L13.8684 3.12393L13.9464 1.50801L11.9006 0.0697781L8.07001 0.314005L7.84329 0.771823L7.36096 0.556482C7.16926 0.469821 6.94429 0.556482 6.8585 0.748187L6.75696 0.976658L5.00185 0.0811575C4.88893 0.0233833 4.76462 -0.0046285 4.6377 0.000623705L0 0.181825L0.0288871 0.922386L0.0568989 1.65507L4.50289 1.48175L6.15383 2.32385L5.99189 2.68362C5.90523 2.87533 5.99189 3.1003 6.18359 3.18521L6.5635 3.35591L6.3648 3.75507L8.08402 6.53436L11.0997 11.6386C11.3071 11.9879 11.7597 12.1043 12.1098 11.8977L14.3648 10.5646L14.9872 10.1978L15.2559 10.6538C15.4634 11.004 15.9159 11.1204 16.2661 10.9138L16.7046 10.6538L17.1449 10.3939C17.4951 10.1864 17.6115 9.73471 17.4049 9.38369ZM11.8183 10.7659L10.2777 8.15992C10.6725 8.01636 11.4078 7.81765 11.8061 7.94633C11.933 7.9866 11.9733 8.04525 11.996 8.09077C12.2849 8.69302 12.432 10.1908 12.4731 10.8272L12.3462 10.9024C12.1641 11.011 11.926 10.9506 11.8183 10.7659ZM14.5565 9.5964L13.991 9.93079L13.1787 10.4105C13.1191 9.7137 12.9703 8.42253 12.6596 7.77301C12.5353 7.51478 12.312 7.3292 12.0109 7.23904C11.322 7.02982 10.3442 7.3432 9.89953 7.5209L9.61241 7.03507C9.50386 6.85212 9.56426 6.6149 9.74809 6.50635L11.392 5.5347L11.9575 5.20118C12.1405 5.09176 12.3777 5.15304 12.4862 5.33599L14.6922 9.0668C14.8007 9.2515 14.7403 9.48785 14.5565 9.5964Z" fill="white"/>
</svg>
