<svg width="17" height="12" viewBox="0 0 17 12" fill="none" xmlns="http://www.w3.org/2000/svg">
<circle cx="6.42278" cy="9.80754" r="1.69231" stroke="white" stroke-linecap="round" stroke-linejoin="round"/>
<path d="M4.2749 0.187652C4.10239 -0.0279785 3.78774 -0.0629392 3.57211 0.109566C3.35648 0.28207 3.32152 0.596717 3.49403 0.812348L4.2749 0.187652ZM7.26908 4.73077L6.87864 5.04312C6.97353 5.16172 7.11718 5.23077 7.26908 5.23077V4.73077ZM9.80754 9.80769V10.3077C10.0837 10.3077 10.3075 10.0838 10.3075 9.80769H9.80754ZM8.11523 9.30769C7.83909 9.30769 7.61523 9.53155 7.61523 9.80769C7.61523 10.0838 7.83909 10.3077 8.11523 10.3077V9.30769ZM4.73077 10.3078C5.00691 10.3078 5.23077 10.0839 5.23077 9.80776C5.23077 9.53162 5.00691 9.30776 4.73077 9.30776V10.3078ZM0.5 9.30776C0.223858 9.30776 0 9.53162 0 9.80776C0 10.0839 0.223858 10.3078 0.5 10.3078V9.30776ZM0.5 4.23074C0.223858 4.23074 0 4.45459 0 4.73074C0 5.00688 0.223858 5.23074 0.5 5.23074V4.23074ZM7.26923 5.23074C7.54537 5.23074 7.76923 5.00688 7.76923 4.73074C7.76923 4.45459 7.54537 4.23074 7.26923 4.23074V5.23074ZM1.69222 4.73077C1.69222 5.00691 1.91608 5.23077 2.19222 5.23077C2.46836 5.23077 2.69222 5.00691 2.69222 4.73077H1.69222ZM2.69222 0.5C2.69222 0.223858 2.46836 0 2.19222 0C1.91608 0 1.69222 0.223858 1.69222 0.5H2.69222ZM3.88462 1.0001C4.16076 1.0001 4.38462 0.776246 4.38462 0.500103C4.38462 0.223961 4.16076 0.000103295 3.88462 0.000103295V1.0001ZM0.5 0.000103295C0.223858 0.000103295 0 0.223961 0 0.500103C0 0.776246 0.223858 1.0001 0.5 1.0001V0.000103295ZM3.49403 0.812348L6.87864 5.04312L7.65951 4.41842L4.2749 0.187652L3.49403 0.812348ZM7.26908 5.23077H8.11523V4.23077H7.26908V5.23077ZM8.11523 5.23077C8.77372 5.23077 9.30754 5.76458 9.30754 6.42308H10.3075C10.3075 5.2123 9.32601 4.23077 8.11523 4.23077V5.23077ZM9.30754 6.42308V9.80769H10.3075V6.42308H9.30754ZM9.80754 9.30769H8.11523V10.3077H9.80754V9.30769ZM4.73077 9.30776H0.5V10.3078H4.73077V9.30776ZM0.5 5.23074H7.26923V4.23074H0.5V5.23074ZM2.69222 4.73077V0.5H1.69222V4.73077H2.69222ZM3.88462 0.000103295H0.5V1.0001H3.88462V0.000103295Z" fill="white"/>
<path d="M9.80784 2.19231V0.5" stroke="white" stroke-linecap="round" stroke-linejoin="round"/>
<path d="M14.0381 5.57713H15.7304" stroke="white" stroke-linecap="round" stroke-linejoin="round"/>
<path d="M12.7695 8.53833L14.0388 9.80756" stroke="white" stroke-linecap="round" stroke-linejoin="round"/>
<path d="M12.7695 2.61567L14.0388 1.34644" stroke="white" stroke-linecap="round" stroke-linejoin="round"/>
</svg>
