<svg width="182" height="182" viewBox="0 0 182 182" fill="none" xmlns="http://www.w3.org/2000/svg">
<g clip-path="url(#clip0_3462_24112)">
<path d="M91.078 145.001C120.944 145.001 145.155 120.83 145.155 91.014C145.155 61.198 120.944 37.0273 91.078 37.0273C61.2121 37.0273 37.001 61.198 37.001 91.014C37.001 120.83 61.2121 145.001 91.078 145.001Z" fill="#2B93E1"/>
<path d="M92.9386 46.1279C92.6459 46.0131 92.0083 44.4476 92.0083 44.4476C92.0083 44.4476 93.8586 44.1032 93.9736 43.5293C94.1408 42.7257 89.2276 41.9116 88.2972 41.5568C87.3668 41.202 85.4015 40.7532 84.2412 41.6716C83.0808 42.59 76.2441 47.5785 75.7841 48.1525C75.3242 48.7265 74.9687 49.7701 76.0141 50.2398C77.2044 50.4148 78.4072 50.4916 79.6102 50.4694C79.6102 50.4694 79.9551 53.1306 79.4952 52.7862C79.0352 52.4418 77.9899 51.6278 77.4044 51.7426C76.819 51.8574 77.2163 54.4351 76.8295 54.8735C74.8537 57.0755 70.2228 56.7207 69.4074 58.1087C68.8324 59.1001 70.4527 60.0811 70.4527 60.0811C70.4527 60.0811 70.4527 61.6988 70.7977 61.9284C71.2256 62.4542 71.5775 63.0373 71.8431 63.6608C70.0165 63.6989 68.191 63.545 66.3967 63.2016C65.529 63.0555 66.0517 68.6389 66.3967 68.7537C66.7417 68.8685 70.3377 69.2024 70.4527 68.6389C70.8869 67.5641 71.3897 66.5184 71.9581 65.508C71.9581 65.508 74.2788 65.1636 74.5088 64.8088C74.8182 64.171 75.0904 63.5159 75.3242 62.8467L78.7948 62.9615C78.7948 62.9615 81.0005 65.7376 81.0005 66.5516C81.0005 67.3656 80.8855 68.6389 81.3455 68.858C81.8054 69.0772 82.7358 68.9728 82.7358 68.6284C82.7358 68.284 82.9658 65.3932 82.6208 64.8088C82.2759 64.2243 80.1329 62.231 80.1329 61.8657C80.1329 61.5005 80.7705 60.7595 80.8855 61.1143C81.126 61.8449 83.4362 63.0763 84.0216 63.7756C84.5727 64.751 84.9644 65.8079 85.182 66.9064C85.3278 67.7896 85.6866 68.6241 86.2274 69.3381C86.8023 69.7973 87.8477 69.3381 87.8477 69.3381L87.2623 66.6768C87.2623 66.6768 87.3877 65.2888 87.9627 65.2888C88.3761 65.355 88.7649 65.5287 89.0897 65.7925C89.4145 66.0564 89.664 66.401 89.813 66.7916C90.043 67.5952 90.043 68.7537 90.8584 69.3381C91.6737 69.9225 95.4893 69.0981 95.9598 69.4529C96.4302 69.8077 96.4197 72.2289 96.0747 72.6881C95.7298 73.1473 95.3744 74.5353 94.3394 74.5353C93.3045 74.5353 89.468 74.8902 88.8931 74.5353C88.3181 74.1805 87.2623 73.2726 86.8023 73.2726C86.3424 73.2726 85.642 75.3598 84.952 75.579C84.2621 75.7981 82.8613 73.8465 82.2863 73.7317C81.7114 73.617 79.8506 73.9613 79.7356 73.2726C79.6206 72.5838 79.6206 69.7973 79.1607 69.3381C78.7007 68.8789 73.8293 68.8685 73.2439 69.0981C72.6585 69.3277 72.4389 70.1417 71.6235 70.4861C70.8082 70.8305 68.7279 70.4861 68.1425 70.9557C67.5571 71.4253 65.7172 73.1473 65.6022 74.4205C65.5239 75.6073 65.1657 76.7588 64.5568 77.781C63.6265 78.8246 61.0758 81.0162 60.8458 83.4479C60.689 85.0655 60.6158 92.2352 61.1908 92.9344C61.7657 93.6337 63.5115 97.6725 65.1318 98.2569C66.7521 98.8414 70.5782 98.8309 70.9336 98.4865C71.289 98.1421 72.7839 96.8689 73.9443 97.0985C75.1046 97.3281 75.3346 98.7161 75.9096 99.1858C76.4845 99.6554 78.1153 98.9562 78.3453 100.459C78.5753 101.962 78.2303 105.207 78.5753 105.677C78.9202 106.147 80.781 108.224 81.011 110.426C81.2409 112.628 80.0806 116.687 79.9656 117.94C79.8506 119.192 81.7009 123.033 82.1713 124.535C82.6417 126.038 82.2863 129.858 82.7463 130.432C83.2062 131.006 88.109 130.661 89.123 130.087C91.0765 128.303 92.7534 126.238 94.099 123.961C94.5694 122.688 94.3394 120.486 94.7994 119.557C95.2594 118.628 97.9355 117.595 98.27 115.863C98.6045 114.13 97.6951 107.994 97.8101 107.18C97.9251 106.366 101.814 102.776 102.859 100.793C103.905 98.81 105.64 94.7712 105.41 93.9676C105.18 93.164 102.044 93.9676 101.584 93.1536C101.124 92.3396 101.009 91.536 101.929 91.4212C103.65 91.0936 105.299 90.4647 106.8 89.5635C107.846 88.7599 110.626 87.1423 110.626 85.7543C110.626 84.3663 110.856 81.705 110.271 81.2354C109.685 80.7658 107.375 81.4754 106.8 81.2354C106.122 80.9078 105.557 80.3842 105.18 79.7326C104.595 78.929 103.905 76.2678 104.365 76.153C104.824 76.0382 105.985 77.3009 106.685 78.2402C107.386 79.1795 109.581 78.9394 110.041 79.3986C110.501 79.8578 111.201 81.131 112.132 81.131C113.062 81.131 115.602 80.0874 116.188 81.131C116.773 82.1747 116.533 83.4479 117.578 83.9071C118.623 84.3663 119.888 83.9071 120.129 84.7211C120.366 86.3697 120.482 88.0336 120.474 89.6992C120.474 90.7428 120.934 95.0113 121.394 95.1365C121.854 95.2617 122.439 94.2077 122.784 94.0929C123.129 93.9781 122.909 89.814 123.484 89.2296C124.553 88.419 125.56 87.5294 126.495 86.5683C127.31 85.5247 128.356 82.8739 129.161 83.2183C129.633 83.5424 130.026 83.967 130.314 84.4615C130.601 84.956 130.775 85.5081 130.823 86.0778C130.823 87.0067 131.053 88.7391 131.868 88.7391C132.684 88.7391 133.604 91.9743 134.649 92.4439C135.694 92.9136 136.039 94.5312 136.855 94.4059C137.41 94.3269 137.916 94.0474 138.278 93.6204C138.64 93.1933 138.833 92.6485 138.82 92.0891C138.82 90.5863 138.13 90.2419 137.545 89.3131C137.057 88.0999 136.822 86.8002 136.855 85.4934C136.855 84.8046 138.015 84.4498 138.475 83.8758C138.935 83.3018 138.935 81.0997 138.705 80.1813C137.713 75.3538 136.075 70.6815 133.834 66.2907C130.478 60.029 119.198 50.2189 115.529 47.7872C111.86 45.3556 105.222 43.2892 104.061 43.4145C102.901 43.5397 100.925 44.8025 99.6604 44.6877C98.3955 44.5729 97.5696 43.5293 96.8692 43.8737C96.147 44.3274 95.5188 44.9156 95.0189 45.6061C94.7327 45.8418 94.3976 46.0109 94.0377 46.1012C93.6779 46.1914 93.3024 46.2006 92.9386 46.1279Z" fill="#A5E567"/>
<path d="M40.6182 106.001C40.6182 106.001 42.4685 112.649 43.0225 113.849C43.5766 115.049 46.19 119.474 46.7336 119.474C47.2772 119.474 47.0576 116.343 47.3922 115.55C47.6894 114.788 48.1749 114.113 48.8034 113.588C49.4993 112.726 49.8495 111.636 49.7861 110.53C49.577 109.769 48.7407 109.226 47.6012 108.683C46.4618 108.141 44.4651 108.078 43.5661 107.368C42.6671 106.659 40.8377 105.344 40.6182 106.001Z" fill="#A5E567"/>
</g>
<path d="M26.6896 86.7078L26.049 87.5369C25.8819 87.7541 25.8102 88.0271 25.8495 88.2959C25.8889 88.5646 26.0362 88.8071 26.259 88.97C26.4408 89.1029 26.6619 89.1747 26.8891 89.1747C27.0521 89.1747 27.2129 89.1377 27.3587 89.0667C27.5045 88.9956 27.6313 88.8924 27.7291 88.7653L28.3591 87.9566C28.5284 87.7419 28.6036 87.4706 28.5682 87.202C28.5328 86.9334 28.3896 86.6894 28.1701 86.5235C28.0607 86.4402 27.9355 86.3788 27.8017 86.3429C27.6679 86.3071 27.5281 86.2974 27.3904 86.3146C27.2527 86.3317 27.1199 86.3753 26.9996 86.4428C26.8793 86.5103 26.7739 86.6003 26.6896 86.7078Z" fill="#90E8A3"/>
<path d="M27.5296 127.489L26.6896 126.967C26.4584 126.815 26.1748 126.759 25.9011 126.811C25.6274 126.863 25.386 127.018 25.23 127.244C25.0741 127.469 25.0163 127.746 25.0695 128.012C25.1226 128.279 25.2824 128.515 25.5135 128.667C25.8181 128.861 26.1226 129.056 26.4376 129.24C26.6027 129.335 26.7915 129.385 26.9836 129.383C27.2113 129.382 27.4324 129.308 27.6134 129.173C27.7945 129.039 27.9257 128.85 27.9873 128.637C28.0489 128.423 28.0377 128.195 27.9551 127.988C27.8725 127.782 27.7232 127.606 27.5296 127.489Z" fill="#90E8A3"/>
<path d="M30.9736 84.8243C31.2046 84.5684 31.4251 84.3125 31.6562 84.0668C31.7479 83.966 31.8183 83.8485 31.8634 83.7212C31.9086 83.5938 31.9275 83.459 31.9192 83.3245C31.911 83.19 31.8756 83.0585 31.8151 82.9373C31.7546 82.8161 31.6703 82.7077 31.5669 82.6184C31.4635 82.529 31.343 82.4603 31.2124 82.4163C31.0818 82.3723 30.9435 82.3538 30.8055 82.3619C30.6675 82.37 30.5326 82.4044 30.4083 82.4634C30.284 82.5223 30.1728 82.6045 30.0811 82.7054L29.3776 83.4936C29.2471 83.6423 29.1631 83.8243 29.1355 84.0181C29.1079 84.212 29.1378 84.4095 29.2218 84.5872C29.3058 84.7649 29.4402 84.9154 29.6093 85.021C29.7783 85.1265 29.9749 85.1826 30.1756 85.1826C30.3273 85.1826 30.4771 85.1505 30.6149 85.0887C30.7527 85.0268 30.875 84.9366 30.9736 84.8243Z" fill="#90E8A3"/>
<path d="M25.0408 90.6385C24.8093 90.4904 24.5272 90.4374 24.2558 90.4911C23.9844 90.5448 23.7457 90.7008 23.5918 90.9252L23.0037 91.7953C22.9278 91.9086 22.8757 92.0355 22.8504 92.1687C22.8252 92.3018 22.8273 92.4385 22.8566 92.5708C22.8859 92.7031 22.9418 92.8285 23.0212 92.9396C23.1005 93.0507 23.2016 93.1454 23.3187 93.2181C23.4906 93.3171 23.6862 93.37 23.8857 93.3717C24.0632 93.3731 24.2382 93.3307 24.3943 93.2483C24.5504 93.166 24.6825 93.0464 24.7783 92.9008L25.3348 92.0614C25.4117 91.9493 25.4651 91.8234 25.4919 91.6911C25.5188 91.5588 25.5186 91.4226 25.4912 91.2904C25.4639 91.1582 25.41 91.0325 25.3327 90.9207C25.2554 90.8088 25.1562 90.7129 25.0408 90.6385Z" fill="#90E8A3"/>
<path d="M32.1181 129.66L31.1836 129.281C31.0562 129.227 30.919 129.198 30.7801 129.196C30.6412 129.194 30.5033 129.219 30.3744 129.27C30.2455 129.32 30.1281 129.395 30.0291 129.49C29.9301 129.585 29.8514 129.698 29.7975 129.823C29.6891 130.073 29.6869 130.355 29.7913 130.606C29.8956 130.857 30.098 131.058 30.3541 131.164C30.6796 131.308 31.0156 131.441 31.4041 131.564C31.5278 131.611 31.6596 131.635 31.7926 131.635C32.0364 131.633 32.2719 131.549 32.4588 131.396C32.6457 131.244 32.7723 131.033 32.817 130.799C32.8617 130.566 32.8217 130.324 32.7037 130.116C32.5858 129.908 32.3973 129.747 32.1706 129.66H32.1181Z" fill="#90E8A3"/>
<path d="M20.0428 119.874C19.9873 119.744 19.9049 119.626 19.8007 119.529C19.6966 119.431 19.5729 119.356 19.4375 119.307C19.302 119.258 19.1577 119.237 19.0136 119.245C18.8694 119.253 18.7285 119.29 18.5996 119.354C18.4708 119.417 18.3567 119.506 18.2646 119.614C18.1726 119.723 18.1044 119.848 18.0644 119.984C18.0245 120.119 18.0136 120.261 18.0324 120.4C18.0512 120.54 18.0993 120.674 18.1737 120.795C18.3417 121.122 18.5202 121.44 18.6987 121.747C18.7912 121.903 18.9245 122.033 19.0849 122.123C19.2453 122.212 19.4273 122.259 19.6123 122.259C19.7977 122.26 19.9798 122.211 20.1373 122.115C20.3757 121.979 20.5491 121.756 20.6199 121.495C20.6907 121.234 20.6531 120.957 20.5153 120.723C20.3473 120.447 20.1898 120.16 20.0428 119.874Z" fill="#90E8A3"/>
<path d="M22.1953 97.2512C22.3528 96.9544 22.5103 96.6575 22.6783 96.3607C22.7438 96.2424 22.7848 96.1127 22.7989 95.9789C22.813 95.8452 22.7999 95.7101 22.7604 95.5813C22.7209 95.4525 22.6557 95.3325 22.5687 95.2283C22.4816 95.124 22.3744 95.0375 22.253 94.9736C22.1317 94.9098 21.9986 94.8699 21.8614 94.8561C21.7243 94.8424 21.5857 94.8552 21.4536 94.8937C21.3215 94.9322 21.1984 94.9957 21.0915 95.0805C20.9845 95.1654 20.8958 95.2699 20.8303 95.3882L20.3263 96.3095C20.2626 96.4291 20.2237 96.5597 20.2119 96.694C20.2001 96.8283 20.2157 96.9634 20.2576 97.0918C20.2996 97.2202 20.3671 97.3393 20.4564 97.4422C20.5456 97.5451 20.6549 97.6298 20.7778 97.6914C20.9272 97.766 21.0928 97.8046 21.2607 97.804C21.4536 97.8044 21.6428 97.753 21.8076 97.6555C21.9725 97.558 22.1066 97.4181 22.1953 97.2512Z" fill="#90E8A3"/>
<path d="M22.8673 123.825C22.679 123.626 22.4175 123.508 22.14 123.496C21.8625 123.485 21.5917 123.581 21.3868 123.763C21.2883 123.859 21.2102 123.972 21.1569 124.097C21.1036 124.221 21.0761 124.355 21.0761 124.49C21.0761 124.625 21.1036 124.759 21.1569 124.884C21.2102 125.009 21.2883 125.122 21.3868 125.217C21.6283 125.473 21.8908 125.729 22.1533 125.985C22.3505 126.17 22.6143 126.273 22.8883 126.271C23.0272 126.271 23.1647 126.243 23.2927 126.191C23.4206 126.138 23.5366 126.061 23.6338 125.964C23.8294 125.772 23.9392 125.513 23.9392 125.243C23.9392 124.972 23.8294 124.713 23.6338 124.521L22.8673 123.825Z" fill="#90E8A3"/>
<path d="M52.342 132.649H51.2919C51.0134 132.649 50.7464 132.756 50.5494 132.948C50.3525 133.14 50.2419 133.401 50.2419 133.672C50.2419 133.944 50.3525 134.204 50.5494 134.396C50.7464 134.588 51.0134 134.696 51.2919 134.696H52.342C52.6204 134.696 52.8875 134.588 53.0844 134.396C53.2813 134.204 53.392 133.944 53.392 133.672C53.392 133.401 53.2813 133.14 53.0844 132.948C52.8875 132.756 52.6204 132.649 52.342 132.649Z" fill="#90E8A3"/>
<path d="M57.508 132.423L56.458 132.495C56.1795 132.503 55.9157 132.619 55.7247 132.817C55.5337 133.014 55.4311 133.278 55.4395 133.549C55.4478 133.821 55.5665 134.078 55.7693 134.264C55.9721 134.45 56.2425 134.55 56.521 134.542H56.5945L57.6445 134.481C57.7824 134.471 57.9169 134.434 58.0403 134.374C58.1638 134.313 58.2737 134.229 58.3639 134.127C58.4541 134.025 58.5228 133.906 58.566 133.778C58.6092 133.65 58.6261 133.515 58.6158 133.38C58.6055 133.246 58.5681 133.115 58.5058 132.995C58.4434 132.874 58.3574 132.767 58.2526 132.679C58.1478 132.591 58.0262 132.524 57.8949 132.482C57.7635 132.44 57.6249 132.424 57.487 132.434L57.508 132.423Z" fill="#90E8A3"/>
<path d="M47.1442 132.556L46.0941 132.495C45.9562 132.485 45.8176 132.502 45.6863 132.545C45.5551 132.587 45.4338 132.655 45.3294 132.743C45.225 132.832 45.1396 132.94 45.078 133.06C45.0164 133.181 44.9799 133.312 44.9706 133.447C44.9606 133.581 44.9779 133.717 45.0217 133.845C45.0654 133.972 45.1346 134.091 45.2253 134.192C45.3161 134.294 45.4266 134.378 45.5505 134.438C45.6743 134.498 45.8091 134.533 45.9471 134.542L46.9972 134.604H47.0602C47.3386 134.604 47.6058 134.496 47.8027 134.304C47.9996 134.112 48.1102 133.852 48.1102 133.58C48.1102 133.309 47.9996 133.048 47.8027 132.856C47.6058 132.664 47.3386 132.556 47.0602 132.556H47.1442Z" fill="#90E8A3"/>
<path d="M41.9991 132.086L40.949 131.942C40.8111 131.921 40.6703 131.926 40.5344 131.957C40.3986 131.989 40.2704 132.046 40.1573 132.126C40.0442 132.206 39.9484 132.307 39.8752 132.423C39.802 132.539 39.7531 132.668 39.731 132.802C39.7089 132.937 39.7143 133.074 39.7466 133.206C39.779 133.339 39.8378 133.464 39.9197 133.574C40.0016 133.684 40.105 133.778 40.224 133.849C40.3429 133.92 40.4752 133.968 40.6131 133.99L41.6631 134.143H41.8101C42.0885 134.161 42.3628 134.07 42.5725 133.89C42.7822 133.711 42.9102 133.457 42.9284 133.186C42.9465 132.914 42.8532 132.647 42.6691 132.443C42.485 132.238 42.2251 132.113 41.9466 132.096L41.9991 132.086Z" fill="#90E8A3"/>
<path d="M36.9482 131.154L35.9612 130.898C35.8274 130.863 35.6878 130.853 35.5503 130.871C35.4128 130.888 35.2802 130.932 35.1601 130.999C35.0401 131.067 34.9349 131.157 34.8507 131.264C34.7665 131.372 34.705 131.494 34.6697 131.625C34.5988 131.885 34.6362 132.163 34.7739 132.397C34.9115 132.63 35.1382 132.802 35.4047 132.874L36.4547 133.14C36.5384 133.15 36.623 133.15 36.7067 133.14C36.9852 133.171 37.265 133.093 37.4846 132.923C37.7041 132.753 37.8455 132.505 37.8775 132.234C37.9095 131.963 37.8297 131.69 37.6554 131.476C37.4811 131.262 37.2267 131.124 36.9482 131.093V131.154Z" fill="#90E8A3"/>
<path d="M35.1737 78.8974C34.977 78.7068 34.7109 78.5998 34.4335 78.5998C34.1561 78.5998 33.8899 78.7068 33.6932 78.8974L32.9476 79.6344C32.8492 79.7296 32.7711 79.8428 32.7178 79.9676C32.6645 80.0923 32.6371 80.2261 32.6371 80.3612C32.6371 80.4964 32.6645 80.6301 32.7178 80.7549C32.7711 80.8796 32.8492 80.9929 32.9476 81.088C33.1423 81.2709 33.4018 81.3736 33.6722 81.3746C33.8154 81.3755 33.9573 81.3478 34.0891 81.2932C34.221 81.2387 34.3399 81.1584 34.4387 81.0573C34.6698 80.8116 34.9113 80.5659 35.1633 80.3305C35.3571 80.1405 35.4667 79.884 35.4687 79.6161C35.4706 79.3481 35.3647 79.0901 35.1737 78.8974Z" fill="#90E8A3"/>
<path d="M116.583 40.1221H116.741L117.791 39.9788C118.069 39.9408 118.321 39.7965 118.49 39.5776C118.66 39.3588 118.733 39.0833 118.694 38.8118C118.655 38.5403 118.507 38.2951 118.282 38.13C118.058 37.9649 117.775 37.8935 117.497 37.9315L116.447 38.0748C116.31 38.0948 116.179 38.1409 116.061 38.2104C115.942 38.2799 115.839 38.3715 115.757 38.4799C115.675 38.5883 115.616 38.7114 115.583 38.8421C115.55 38.9729 115.544 39.1087 115.565 39.2418C115.6 39.4825 115.721 39.7033 115.908 39.8646C116.094 40.0259 116.334 40.1172 116.583 40.1221Z" fill="#90E8A3"/>
<path d="M147.517 41.1764C147.843 41.2686 148.168 41.3709 148.483 41.4835C148.595 41.4976 148.708 41.4976 148.819 41.4835C149.065 41.4809 149.303 41.3942 149.49 41.2385C149.677 41.0828 149.802 40.868 149.843 40.6316C149.884 40.3952 149.839 40.1522 149.715 39.945C149.592 39.7378 149.397 39.5795 149.166 39.4977L148.116 39.1701C147.983 39.1256 147.842 39.1077 147.702 39.1173C147.562 39.1268 147.425 39.1638 147.299 39.2259C147.174 39.288 147.063 39.3741 146.972 39.4789C146.882 39.5838 146.813 39.7053 146.772 39.8362C146.73 39.9672 146.716 40.105 146.731 40.2414C146.745 40.3778 146.787 40.51 146.854 40.6302C146.922 40.7504 147.014 40.8562 147.124 40.9412C147.234 41.0263 147.361 41.0889 147.496 41.1253L147.517 41.1764Z" fill="#90E8A3"/>
<path d="M157.335 46.1411C157.523 46.2974 157.761 46.3844 158.007 46.3868C158.224 46.3872 158.435 46.3225 158.612 46.2016C158.789 46.0807 158.923 45.9094 158.997 45.7112C159.07 45.513 159.079 45.2975 159.023 45.0941C158.966 44.8907 158.846 44.7094 158.679 44.5749C158.396 44.3497 158.112 44.1245 157.818 43.9095C157.596 43.7593 157.323 43.6985 157.056 43.7397C156.789 43.7809 156.548 43.921 156.384 44.1308C156.221 44.3406 156.146 44.6039 156.177 44.8659C156.207 45.1279 156.34 45.3683 156.548 45.5371C156.821 45.7316 157.073 45.9261 157.335 46.1411Z" fill="#90E8A3"/>
<path d="M128.134 39.0984C128.412 39.0889 128.675 38.972 128.865 38.7733C129.055 38.5746 129.157 38.3105 129.147 38.039C129.137 37.7675 129.017 37.5109 128.813 37.3257C128.61 37.1404 128.339 37.0417 128.06 37.0512H127.01C126.732 37.0512 126.465 37.159 126.268 37.351C126.071 37.543 125.96 37.8033 125.96 38.0748C125.96 38.3463 126.071 38.6067 126.268 38.7986C126.465 38.9906 126.732 39.0984 127.01 39.0984H128.134Z" fill="#90E8A3"/>
<path d="M162.596 53.0916C162.722 53.3884 162.837 53.6853 162.943 53.9924C163.013 54.1957 163.147 54.3723 163.326 54.4972C163.505 54.6221 163.72 54.689 163.94 54.6884C164.055 54.6888 164.169 54.6679 164.276 54.627C164.539 54.5386 164.755 54.3521 164.877 54.1083C165 53.8646 165.017 53.5836 164.927 53.327C164.812 52.9892 164.686 52.6514 164.539 52.3034C164.486 52.179 164.409 52.0659 164.312 51.9706C164.215 51.8753 164.099 51.7996 163.972 51.7478C163.715 51.6431 163.426 51.6423 163.168 51.7455C162.911 51.8486 162.706 52.0474 162.598 52.2979C162.491 52.5484 162.49 52.8302 162.596 53.0813V53.0916Z" fill="#90E8A3"/>
<path d="M160.706 49.6931C160.802 49.8287 160.931 49.9395 161.081 50.0162C161.231 50.0928 161.398 50.133 161.567 50.1332C161.781 50.1327 161.99 50.0684 162.165 49.949C162.279 49.8714 162.376 49.7727 162.45 49.6585C162.524 49.5443 162.574 49.4169 162.598 49.2837C162.621 49.1504 162.617 49.0139 162.586 48.8822C162.555 48.7504 162.498 48.6259 162.417 48.5159C162.207 48.2224 161.987 47.9358 161.756 47.656C161.676 47.539 161.571 47.4394 161.45 47.3635C161.328 47.2875 161.191 47.2368 161.049 47.2147C160.906 47.1925 160.76 47.1993 160.62 47.2346C160.48 47.2699 160.35 47.3329 160.236 47.4198C160.122 47.5066 160.028 47.6154 159.959 47.7394C159.891 47.8633 159.849 47.9998 159.837 48.1401C159.825 48.2805 159.843 48.4217 159.889 48.5551C159.936 48.6884 160.01 48.811 160.107 48.9151C160.317 49.171 160.506 49.4269 160.706 49.6931Z" fill="#90E8A3"/>
<path d="M163.814 57.7593C163.814 58.0767 163.877 58.4042 163.898 58.7216C163.914 58.9823 164.032 59.2271 164.227 59.406C164.422 59.5849 164.68 59.6843 164.948 59.6838H165.011C165.149 59.676 165.284 59.6416 165.408 59.5828C165.533 59.524 165.644 59.4418 165.736 59.341C165.827 59.2402 165.898 59.1228 165.943 58.9954C165.988 58.868 166.007 58.7332 165.998 58.5987C165.998 58.2302 165.935 57.8822 165.893 57.5239C165.877 57.3895 165.834 57.2594 165.767 57.1412C165.699 57.0229 165.609 56.9187 165.5 56.8346C165.391 56.7505 165.267 56.688 165.133 56.6509C165 56.6137 164.86 56.6025 164.722 56.618C164.584 56.6335 164.451 56.6752 164.33 56.741C164.208 56.8067 164.101 56.8951 164.015 57.001C163.929 57.107 163.865 57.2285 163.827 57.3586C163.789 57.4887 163.777 57.6249 163.793 57.7593H163.814Z" fill="#90E8A3"/>
<path d="M121.791 39.4772H121.896L122.946 39.3749C123.084 39.3628 123.218 39.3243 123.341 39.2617C123.464 39.1991 123.572 39.1135 123.661 39.0099C123.75 38.9063 123.817 38.7867 123.858 38.6578C123.9 38.529 123.914 38.3935 123.902 38.2591C123.89 38.1247 123.85 37.9939 123.786 37.8744C123.722 37.7548 123.634 37.6487 123.528 37.5623C123.421 37.4758 123.299 37.4105 123.166 37.3703C123.034 37.33 122.895 37.3155 122.757 37.3276L121.707 37.43C121.432 37.4584 121.18 37.5915 121.005 37.8004C120.83 38.0094 120.746 38.2772 120.773 38.5457C120.796 38.7957 120.912 39.0287 121.1 39.2004C121.288 39.3722 121.534 39.4707 121.791 39.4772Z" fill="#90E8A3"/>
<path d="M18.7511 102.41C18.8672 102.459 18.9923 102.483 19.1186 102.482C19.3331 102.483 19.5428 102.419 19.7192 102.3C19.8957 102.181 20.0305 102.013 20.1056 101.817C20.2211 101.51 20.3471 101.192 20.4731 100.885C20.535 100.759 20.5698 100.622 20.5753 100.482C20.5808 100.343 20.5569 100.204 20.5052 100.073C20.4534 99.9431 20.3748 99.8246 20.2743 99.725C20.1737 99.6255 20.0534 99.547 19.9206 99.4945C19.7877 99.442 19.6453 99.4166 19.502 99.4198C19.3588 99.423 19.2177 99.4547 19.0875 99.5131C18.9572 99.5714 18.8407 99.6552 18.7449 99.7591C18.6491 99.863 18.5762 99.985 18.5306 100.117C18.3941 100.445 18.2681 100.773 18.1421 101.09C18.0931 101.216 18.07 101.349 18.0741 101.484C18.0782 101.618 18.1094 101.75 18.166 101.873C18.2225 101.996 18.3034 102.106 18.4037 102.198C18.5041 102.291 18.6222 102.363 18.7511 102.41Z" fill="#90E8A3"/>
<path d="M17.4177 107.344H17.6383C17.8839 107.349 18.1235 107.27 18.3154 107.12C18.5072 106.971 18.6392 106.76 18.6883 106.525C18.7513 106.208 18.8248 105.891 18.9088 105.563C18.948 105.431 18.9594 105.292 18.9423 105.155C18.9253 105.019 18.8801 104.887 18.8094 104.767C18.7388 104.648 18.6441 104.544 18.5312 104.461C18.4183 104.378 18.2894 104.318 18.1522 104.285C18.015 104.252 17.8724 104.246 17.7329 104.268C17.5934 104.29 17.4599 104.34 17.3403 104.413C17.2207 104.486 17.1176 104.583 17.037 104.696C16.9565 104.809 16.9003 104.937 16.8717 105.072C16.7877 105.42 16.7037 105.768 16.6302 106.095C16.5959 106.228 16.5892 106.366 16.6105 106.501C16.6317 106.636 16.6805 106.765 16.7539 106.882C16.8273 106.998 16.9238 107.099 17.0378 107.178C17.1518 107.258 17.281 107.314 17.4177 107.344Z" fill="#90E8A3"/>
<path d="M18.6671 116.26C18.5831 115.943 18.5095 115.636 18.4465 115.318C18.421 115.184 18.3686 115.056 18.2923 114.941C18.2159 114.826 18.1172 114.728 18.0016 114.65C17.8861 114.573 17.756 114.518 17.6189 114.49C17.4817 114.461 17.3401 114.459 17.2022 114.484C17.0643 114.509 16.9328 114.56 16.8152 114.635C16.6976 114.709 16.5961 114.805 16.5167 114.918C16.4372 115.031 16.3813 115.157 16.3521 115.291C16.3229 115.425 16.3209 115.563 16.3464 115.697C16.4199 116.055 16.4935 116.403 16.588 116.721C16.6455 116.948 16.781 117.149 16.9721 117.291C17.1631 117.432 17.3982 117.506 17.638 117.499H17.89C18.0247 117.468 18.1517 117.411 18.2637 117.331C18.3757 117.252 18.4706 117.152 18.5428 117.037C18.615 116.922 18.6632 116.794 18.6845 116.661C18.7058 116.527 18.6999 116.391 18.6671 116.26Z" fill="#90E8A3"/>
<path d="M17.05 112.462C17.3285 112.462 17.5956 112.355 17.7925 112.163C17.9894 111.971 18.1001 111.71 18.1001 111.439C18.1001 111.121 18.1001 110.794 18.1001 110.466C18.1071 110.332 18.0869 110.197 18.0406 110.071C17.9943 109.944 17.9227 109.827 17.83 109.727C17.7373 109.627 17.6254 109.546 17.5006 109.489C17.3757 109.431 17.2405 109.398 17.1025 109.392C16.8257 109.378 16.5544 109.471 16.3478 109.651C16.1413 109.831 16.0163 110.084 16 110.354C16 110.715 16 111.074 16 111.429C16 111.7 16.1106 111.96 16.3075 112.152C16.5044 112.344 16.7716 112.452 17.05 112.452V112.462Z" fill="#90E8A3"/>
<path d="M62.6744 131.912L61.6243 132.034C61.3458 132.049 61.0848 132.171 60.8988 132.374C60.7127 132.577 60.6168 132.843 60.6321 133.114C60.6474 133.386 60.7727 133.64 60.9804 133.822C61.1882 134.003 61.4614 134.097 61.7399 134.082H61.8659L62.9159 133.959C63.0538 133.942 63.1869 133.899 63.3077 133.832C63.4285 133.765 63.5346 133.675 63.6199 133.569C63.7052 133.462 63.7681 133.339 63.8049 133.209C63.8418 133.078 63.8519 132.942 63.8347 132.807C63.8174 132.673 63.7732 132.543 63.7045 132.425C63.6358 132.307 63.544 132.204 63.4343 132.121C63.3246 132.038 63.1992 131.976 63.0652 131.941C62.9312 131.905 62.7913 131.895 62.6534 131.912H62.6744Z" fill="#90E8A3"/>
<path d="M112.635 40.8079C112.773 40.7831 112.905 40.732 113.022 40.6576C113.14 40.5831 113.241 40.4869 113.321 40.3742C113.4 40.2616 113.456 40.1348 113.485 40.0011C113.515 39.8674 113.516 39.7294 113.491 39.5949C113.465 39.4605 113.413 39.3323 113.337 39.2176C113.26 39.1029 113.162 39.004 113.046 38.9266C112.93 38.8491 112.8 38.7946 112.663 38.7661C112.526 38.7376 112.385 38.7358 112.247 38.7607L111.197 38.9552C110.958 39.0051 110.744 39.1346 110.593 39.3215C110.441 39.5083 110.362 39.7407 110.367 39.9788C111.05 40.2347 111.732 40.5213 112.394 40.8079H112.635Z" fill="#90E8A3"/>
<path d="M37.4838 75.3045L36.7172 76.021C36.5217 76.2128 36.4119 76.4723 36.4119 76.7427C36.4119 77.0131 36.5217 77.2725 36.7172 77.4643C36.8148 77.5641 36.9321 77.6437 37.062 77.6982C37.192 77.7528 37.3318 77.7811 37.4732 77.7817C37.6832 76.8604 37.9143 75.9494 38.1768 75.0486C37.9226 75.0542 37.678 75.1445 37.4838 75.3045Z" fill="#90E8A3"/>
<path d="M164.066 66.7673C163.799 66.6913 163.511 66.7219 163.267 66.8525C163.023 66.983 162.842 67.2028 162.764 67.4634C162.669 67.7705 162.564 68.0878 162.459 68.4051C162.373 68.6631 162.396 68.9438 162.522 69.1856C162.648 69.4274 162.867 69.6106 163.131 69.6949C163.239 69.7146 163.349 69.7146 163.457 69.6949C163.677 69.6955 163.892 69.6286 164.071 69.5037C164.25 69.3788 164.384 69.2022 164.455 68.9989C164.57 68.6611 164.675 68.3233 164.78 67.9752C164.84 67.7232 164.799 67.4585 164.667 67.2345C164.534 67.0104 164.319 66.8435 164.066 66.7673Z" fill="#90E8A3"/>
<path d="M67.8194 131.154L66.7694 131.328C66.4909 131.351 66.2332 131.481 66.053 131.689C65.8728 131.898 65.7849 132.167 65.8086 132.439C65.8323 132.71 65.9656 132.961 66.1792 133.137C66.3929 133.313 66.6694 133.398 66.9478 133.375H67.1159L68.1659 133.212C68.4444 133.164 68.6921 133.011 68.8546 132.785C69.017 132.56 69.081 132.28 69.0322 132.009C68.9835 131.737 68.8261 131.496 68.5947 131.337C68.3633 131.179 68.0769 131.117 67.7984 131.164L67.8194 131.154Z" fill="#90E8A3"/>
<path d="M145.785 92.3685L145.039 93.085C144.941 93.1791 144.862 93.2912 144.808 93.4149C144.754 93.5387 144.725 93.6716 144.724 93.8061C144.722 93.9406 144.748 94.074 144.799 94.1989C144.851 94.3237 144.927 94.4373 145.023 94.5335C145.12 94.6296 145.235 94.7062 145.362 94.759C145.489 94.8118 145.625 94.8397 145.763 94.8411C145.901 94.8426 146.038 94.8175 146.166 94.7673C146.294 94.7172 146.411 94.6429 146.509 94.5488L147.265 93.8221C147.461 93.6303 147.571 93.3708 147.571 93.1004C147.571 92.8299 147.461 92.5705 147.265 92.3787C147.07 92.1867 146.805 92.0778 146.527 92.0759C146.25 92.074 145.983 92.1792 145.785 92.3685Z" fill="#90E8A3"/>
<path d="M142.005 95.8591L141.238 96.5347C141.078 96.6721 140.965 96.8538 140.914 97.0554C140.862 97.2571 140.875 97.4692 140.95 97.6636C141.025 97.8581 141.16 98.0256 141.335 98.1439C141.51 98.2622 141.718 98.3258 141.931 98.326C142.186 98.3257 142.433 98.2347 142.624 98.0701L143.422 97.3843C143.525 97.2936 143.608 97.184 143.668 97.0618C143.727 96.9397 143.761 96.8073 143.768 96.6724C143.775 96.5374 143.754 96.4024 143.707 96.2752C143.661 96.1479 143.589 96.0309 143.496 95.9307C143.403 95.8306 143.29 95.7493 143.165 95.6915C143.04 95.6337 142.904 95.6005 142.765 95.5939C142.627 95.5872 142.488 95.6072 142.358 95.6527C142.227 95.6982 142.107 95.7683 142.005 95.8591Z" fill="#90E8A3"/>
<path d="M149.376 88.7141L148.672 89.4613C148.485 89.6611 148.386 89.9252 148.398 90.1957C148.41 90.4662 148.531 90.7211 148.735 90.9047C148.929 91.0814 149.184 91.1802 149.449 91.181C149.593 91.1806 149.736 91.1513 149.868 91.095C149.999 91.0386 150.118 90.9564 150.216 90.8535L150.93 90.0858C151.117 89.886 151.216 89.6219 151.204 89.3514C151.192 89.0809 151.071 88.826 150.867 88.6425C150.765 88.551 150.645 88.4803 150.514 88.4344C150.383 88.3885 150.245 88.3683 150.106 88.375C149.967 88.3816 149.831 88.415 149.706 88.4732C149.581 88.5314 149.469 88.6133 149.376 88.7141Z" fill="#90E8A3"/>
<path d="M133.972 102.359L133.132 102.973C132.911 103.138 132.765 103.381 132.728 103.65C132.691 103.918 132.764 104.191 132.932 104.406C133.03 104.534 133.157 104.637 133.303 104.708C133.449 104.779 133.609 104.816 133.772 104.816C134.001 104.813 134.222 104.738 134.402 104.601L135.242 103.977C135.367 103.901 135.474 103.801 135.557 103.683C135.64 103.565 135.696 103.432 135.723 103.291C135.749 103.15 135.745 103.006 135.711 102.867C135.677 102.728 135.613 102.597 135.524 102.484C135.434 102.37 135.322 102.276 135.193 102.208C135.064 102.139 134.922 102.098 134.776 102.086C134.63 102.074 134.483 102.092 134.344 102.139C134.206 102.187 134.079 102.261 133.972 102.359Z" fill="#90E8A3"/>
<path d="M138.455 39.3953H138.571C138.849 39.4102 139.123 39.3167 139.33 39.1353C139.538 38.9539 139.663 38.6994 139.679 38.4279C139.694 38.1565 139.598 37.8902 139.412 37.6876C139.226 37.4851 138.965 37.363 138.686 37.348L137.636 37.2457C137.358 37.2199 137.08 37.303 136.865 37.4767C136.649 37.6505 136.513 37.9006 136.487 38.172C136.46 38.4435 136.545 38.7142 136.724 38.9244C136.902 39.1346 137.158 39.2671 137.437 39.2929L138.455 39.3953Z" fill="#90E8A3"/>
<path d="M138.077 99.1552L137.269 99.8001C137.099 99.933 136.976 100.114 136.916 100.318C136.856 100.523 136.863 100.74 136.936 100.94C137.009 101.14 137.144 101.313 137.322 101.436C137.5 101.558 137.713 101.623 137.93 101.622C138.176 101.623 138.414 101.539 138.602 101.387L139.411 100.732C139.606 100.554 139.724 100.31 139.742 100.05C139.759 99.7901 139.674 99.5336 139.504 99.3327C139.334 99.1317 139.092 99.0015 138.827 98.9685C138.562 98.9356 138.294 99.0023 138.077 99.1552Z" fill="#90E8A3"/>
<path d="M143.968 38.167L142.918 37.9725C142.64 37.9222 142.352 37.9819 142.119 38.1384C141.886 38.2948 141.725 38.5353 141.674 38.8067C141.622 39.0782 141.684 39.3585 141.844 39.586C142.005 39.8135 142.251 39.9695 142.53 40.0197L143.58 40.2142C143.649 40.2248 143.72 40.2248 143.79 40.2142C144.034 40.2195 144.272 40.1417 144.464 39.9941C144.656 39.8465 144.789 39.6384 144.84 39.4056C144.872 39.268 144.874 39.1255 144.847 38.987C144.82 38.8485 144.763 38.717 144.682 38.6007C144.6 38.4844 144.494 38.3858 144.371 38.3112C144.249 38.2366 144.111 38.1875 143.968 38.167Z" fill="#90E8A3"/>
<path d="M152.757 84.8243L152.096 85.6125C151.921 85.8221 151.839 86.0901 151.867 86.3585C151.894 86.6268 152.029 86.8737 152.243 87.0456C152.426 87.2007 152.661 87.2845 152.904 87.281C153.058 87.2812 153.211 87.2483 153.351 87.1847C153.49 87.121 153.614 87.0281 153.713 86.9125C153.944 86.6464 154.164 86.3802 154.385 86.1038C154.487 86.0018 154.566 85.88 154.617 85.7465C154.668 85.6129 154.689 85.4705 154.681 85.3283C154.672 85.186 154.633 85.0471 154.566 84.9204C154.499 84.7938 154.406 84.6822 154.292 84.5927C154.178 84.5033 154.046 84.4379 153.905 84.401C153.764 84.364 153.616 84.3561 153.472 84.3779C153.327 84.3997 153.189 84.4507 153.066 84.5275C152.943 84.6044 152.838 84.7055 152.757 84.8243Z" fill="#90E8A3"/>
<path d="M162.323 71.6091C162.069 71.4984 161.781 71.49 161.521 71.586C161.262 71.6819 161.051 71.8743 160.937 72.1209C160.8 72.428 160.653 72.7249 160.506 73.032C160.388 73.2777 160.375 73.5591 160.469 73.8144C160.564 74.0697 160.758 74.278 161.01 74.3934C161.15 74.462 161.305 74.4971 161.462 74.4958C161.66 74.4952 161.854 74.4402 162.021 74.3369C162.188 74.2337 162.322 74.0865 162.407 73.9123C162.564 73.595 162.711 73.2777 162.858 72.9603C162.914 72.8373 162.945 72.7048 162.948 72.5703C162.952 72.4358 162.928 72.302 162.878 72.1765C162.828 72.051 162.754 71.9363 162.658 71.839C162.563 71.7416 162.449 71.6635 162.323 71.6091Z" fill="#90E8A3"/>
<path d="M164.948 61.731C164.673 61.7023 164.397 61.7808 164.18 61.9495C163.964 62.1183 163.825 62.3635 163.793 62.6318C163.793 62.9492 163.709 63.2767 163.657 63.6043C163.636 63.7374 163.642 63.8732 163.675 64.004C163.708 64.1347 163.767 64.2578 163.849 64.3662C163.931 64.4746 164.034 64.5662 164.152 64.6357C164.271 64.7052 164.402 64.7512 164.539 64.7712H164.696C164.949 64.774 165.195 64.6875 165.388 64.5276C165.581 64.3677 165.708 64.1452 165.746 63.9011C165.746 63.5531 165.851 63.1948 165.893 62.8775C165.911 62.7414 165.9 62.6032 165.861 62.4712C165.823 62.3392 165.758 62.2161 165.67 62.1091C165.582 62.0022 165.472 61.9136 165.348 61.8486C165.224 61.7837 165.088 61.7437 164.948 61.731Z" fill="#90E8A3"/>
<path d="M160.065 76.2053C159.824 76.0718 159.539 76.0368 159.271 76.1077C159.004 76.1787 158.776 76.3499 158.637 76.584L158.112 77.4439C158.04 77.5593 157.992 77.6876 157.97 77.8213C157.949 77.955 157.955 78.0914 157.989 78.2228C158.022 78.3541 158.081 78.4778 158.164 78.5865C158.246 78.6953 158.35 78.7871 158.469 78.8565C158.632 78.9476 158.817 78.9969 159.005 78.9998C159.186 79.0008 159.364 78.9561 159.523 78.87C159.681 78.7839 159.814 78.6594 159.908 78.5085L160.454 77.6077C160.523 77.4908 160.568 77.3618 160.586 77.2279C160.604 77.094 160.595 76.958 160.559 76.8276C160.523 76.6973 160.461 76.5752 160.376 76.4684C160.291 76.3616 160.186 76.2721 160.065 76.2053Z" fill="#90E8A3"/>
<path d="M154.143 41.6268C153.818 41.4528 153.492 41.2993 153.167 41.1457C153.042 41.0708 152.902 41.0223 152.757 41.0032C152.611 40.9842 152.464 40.995 152.323 41.035C152.182 41.0749 152.051 41.1432 151.939 41.2354C151.827 41.3276 151.736 41.4417 151.672 41.5702C151.608 41.6988 151.572 41.839 151.567 41.9819C151.562 42.1248 151.588 42.2671 151.642 42.3997C151.697 42.5323 151.78 42.6523 151.885 42.7519C151.99 42.8515 152.115 42.9286 152.253 42.978L153.156 43.4284C153.305 43.5066 153.47 43.5488 153.639 43.5513C153.873 43.5524 154.101 43.4773 154.286 43.3377C154.472 43.1981 154.604 43.0021 154.662 42.7809C154.72 42.5597 154.7 42.326 154.606 42.1168C154.512 41.9077 154.349 41.7353 154.143 41.6268Z" fill="#90E8A3"/>
<path d="M155.855 80.8219C155.666 81.1017 155.466 81.378 155.256 81.651C155.097 81.8725 155.034 82.1465 155.081 82.4132C155.128 82.6798 155.282 82.9173 155.508 83.0739C155.685 83.199 155.898 83.267 156.117 83.2684C156.284 83.2676 156.448 83.2282 156.596 83.1535C156.744 83.0787 156.871 82.9707 156.968 82.8384L157.587 81.999C157.747 81.7751 157.81 81.4983 157.76 81.2295C157.711 80.9608 157.554 80.7221 157.325 80.566C157.095 80.4099 156.811 80.3491 156.535 80.3971C156.26 80.4451 156.015 80.5979 155.855 80.8219Z" fill="#90E8A3"/>
<path d="M133.331 39.0473C133.61 39.0473 133.877 38.9394 134.074 38.7475C134.271 38.5555 134.381 38.2951 134.381 38.0236C134.381 37.7522 134.271 37.4918 134.074 37.2998C133.877 37.1079 133.61 37 133.331 37H132.281C132.003 37 131.736 37.1079 131.539 37.2998C131.342 37.4918 131.231 37.7522 131.231 38.0236C131.231 38.2951 131.342 38.5555 131.539 38.7475C131.736 38.9394 132.003 39.0473 132.281 39.0473H133.331Z" fill="#90E8A3"/>
<path d="M129.772 105.369L128.921 105.962C128.8 106.036 128.696 106.132 128.614 106.246C128.532 106.36 128.476 106.489 128.447 106.625C128.418 106.761 128.418 106.901 128.446 107.037C128.475 107.173 128.531 107.302 128.613 107.416C128.694 107.53 128.798 107.627 128.919 107.701C129.04 107.774 129.175 107.823 129.316 107.844C129.457 107.865 129.601 107.858 129.739 107.823C129.876 107.788 130.006 107.726 130.118 107.641L130.99 107.047C131.218 106.89 131.373 106.651 131.42 106.382C131.468 106.113 131.403 105.837 131.242 105.614C131.08 105.392 130.835 105.241 130.559 105.195C130.283 105.149 130 105.211 129.772 105.369Z" fill="#90E8A3"/>
<path d="M92.9048 124.378L91.9703 124.746C91.7382 124.828 91.5433 124.987 91.4197 125.196C91.2961 125.404 91.2516 125.648 91.2943 125.885C91.3369 126.122 91.4637 126.337 91.6526 126.492C91.8416 126.647 92.0805 126.732 92.3273 126.732C92.4526 126.733 92.577 126.712 92.6948 126.671L93.6818 126.312C93.8184 126.271 93.9448 126.203 94.0534 126.112C94.162 126.022 94.2505 125.91 94.3134 125.785C94.3764 125.66 94.4124 125.524 94.4194 125.385C94.4264 125.245 94.4041 125.106 94.354 124.976C94.3039 124.845 94.227 124.726 94.128 124.626C94.0289 124.525 93.9099 124.445 93.7781 124.391C93.6464 124.337 93.5047 124.31 93.3618 124.311C93.2188 124.312 93.0776 124.342 92.9468 124.398L92.9048 124.378Z" fill="#90E8A3"/>
<path d="M87.9908 126.087L87.0038 126.404C86.7667 126.48 86.5652 126.636 86.4352 126.844C86.3053 127.051 86.2554 127.297 86.2946 127.538C86.3338 127.778 86.4594 127.997 86.649 128.155C86.8386 128.313 87.0798 128.4 87.3293 128.4C87.4431 128.398 87.5562 128.381 87.6653 128.349L88.7153 128.022C88.8544 127.986 88.9844 127.922 89.0974 127.836C89.2103 127.749 89.3036 127.64 89.3717 127.516C89.4397 127.393 89.481 127.257 89.493 127.117C89.5049 126.977 89.4873 126.837 89.4411 126.704C89.395 126.571 89.3213 126.449 89.2247 126.345C89.1281 126.241 89.0107 126.157 88.8796 126.1C88.7485 126.042 88.6066 126.011 88.4627 126.009C88.3189 126.007 88.1761 126.033 88.0433 126.087H87.9908Z" fill="#90E8A3"/>
<path d="M97.756 122.504L96.79 122.893C96.5616 122.981 96.372 123.144 96.2543 123.355C96.1365 123.565 96.098 123.808 96.1455 124.043C96.1929 124.278 96.3233 124.489 96.5139 124.64C96.7046 124.791 96.9434 124.872 97.189 124.869C97.3226 124.866 97.4546 124.838 97.5775 124.787L98.5646 124.398C98.8199 124.294 99.0228 124.096 99.129 123.846C99.2351 123.597 99.2361 123.317 99.1316 123.067C99.0797 122.942 99.0029 122.828 98.9055 122.731C98.8081 122.635 98.6921 122.559 98.5642 122.506C98.4363 122.454 98.299 122.427 98.1603 122.426C98.0216 122.426 97.8842 122.453 97.756 122.504Z" fill="#90E8A3"/>
<path d="M112.016 115.994L111.092 116.465C110.881 116.57 110.714 116.741 110.616 116.95C110.517 117.159 110.494 117.394 110.55 117.618C110.606 117.842 110.737 118.04 110.923 118.182C111.109 118.324 111.339 118.4 111.575 118.4C111.743 118.397 111.909 118.355 112.058 118.277L112.992 117.806C113.232 117.676 113.41 117.46 113.488 117.204C113.567 116.948 113.539 116.672 113.412 116.435C113.284 116.198 113.067 116.02 112.806 115.937C112.545 115.855 112.261 115.875 112.016 115.994Z" fill="#90E8A3"/>
<path d="M102.555 120.498L101.599 120.907C101.376 121 101.192 121.166 101.08 121.375C100.967 121.585 100.933 121.826 100.983 122.058C101.032 122.29 101.163 122.498 101.352 122.646C101.54 122.795 101.776 122.875 102.019 122.873C102.168 122.872 102.314 122.841 102.45 122.781L103.416 122.361C103.55 122.312 103.672 122.236 103.775 122.139C103.878 122.041 103.959 121.925 104.014 121.796C104.069 121.666 104.096 121.528 104.094 121.388C104.092 121.248 104.06 121.11 104.002 120.983C103.943 120.856 103.858 120.741 103.752 120.647C103.646 120.553 103.521 120.481 103.386 120.436C103.25 120.39 103.107 120.372 102.964 120.383C102.821 120.394 102.682 120.433 102.555 120.498Z" fill="#90E8A3"/>
<path d="M107.28 118.338L106.335 118.778C106.121 118.879 105.948 119.049 105.845 119.258C105.743 119.467 105.716 119.704 105.77 119.931C105.823 120.157 105.954 120.358 106.141 120.502C106.328 120.646 106.559 120.724 106.797 120.723C106.953 120.722 107.108 120.687 107.248 120.621L108.298 120.129C108.534 120.003 108.711 119.794 108.793 119.545C108.875 119.295 108.856 119.025 108.739 118.789C108.677 118.662 108.59 118.55 108.481 118.458C108.373 118.367 108.246 118.298 108.11 118.255C107.973 118.213 107.829 118.199 107.686 118.213C107.543 118.227 107.405 118.27 107.28 118.338Z" fill="#90E8A3"/>
<path d="M116.594 113.548L115.68 114.049C115.438 114.182 115.26 114.404 115.186 114.665C115.111 114.926 115.145 115.205 115.281 115.441C115.372 115.599 115.505 115.731 115.666 115.823C115.826 115.914 116.009 115.963 116.195 115.963C116.375 115.963 116.552 115.917 116.709 115.83L117.633 115.329C117.876 115.193 118.053 114.969 118.126 114.706C118.198 114.443 118.161 114.162 118.022 113.926C117.883 113.69 117.653 113.518 117.383 113.446C117.113 113.375 116.826 113.412 116.583 113.548H116.594Z" fill="#90E8A3"/>
<path d="M83.0239 127.633L81.9739 127.919C81.6954 127.957 81.4438 128.102 81.2745 128.321C81.1051 128.539 81.0319 128.815 81.0709 129.086C81.1098 129.358 81.2579 129.603 81.4824 129.768C81.7069 129.933 81.9894 130.005 82.2679 129.967C82.3692 129.977 82.4712 129.977 82.5724 129.967L83.6224 129.67C83.7645 129.641 83.8988 129.583 84.0169 129.501C84.1349 129.418 84.2342 129.313 84.3084 129.191C84.3826 129.07 84.4301 128.934 84.4479 128.794C84.4658 128.654 84.4535 128.511 84.412 128.375C84.3705 128.24 84.3006 128.114 84.2067 128.006C84.1129 127.898 83.9971 127.81 83.8666 127.748C83.7362 127.686 83.5939 127.651 83.4489 127.645C83.3038 127.64 83.1591 127.663 83.0239 127.715V127.633Z" fill="#90E8A3"/>
<path d="M121.088 110.968L120.195 111.49C119.958 111.63 119.787 111.856 119.72 112.119C119.653 112.382 119.695 112.66 119.838 112.892C119.931 113.045 120.063 113.172 120.222 113.26C120.38 113.348 120.559 113.394 120.741 113.394C120.929 113.391 121.114 113.342 121.277 113.251L122.18 112.718C122.319 112.663 122.444 112.578 122.546 112.472C122.649 112.365 122.727 112.238 122.775 112.099C122.823 111.96 122.84 111.813 122.824 111.668C122.809 111.522 122.762 111.382 122.686 111.255C122.61 111.129 122.508 111.02 122.385 110.936C122.262 110.851 122.123 110.793 121.975 110.766C121.828 110.739 121.676 110.743 121.53 110.778C121.384 110.813 121.248 110.877 121.13 110.968H121.088Z" fill="#90E8A3"/>
<path d="M125.498 108.245L124.627 108.798C124.436 108.918 124.291 109.094 124.212 109.301C124.133 109.508 124.125 109.734 124.189 109.946C124.253 110.158 124.385 110.344 124.566 110.476C124.747 110.609 124.967 110.681 125.194 110.681C125.395 110.681 125.592 110.624 125.761 110.518L126.653 109.955C126.769 109.88 126.868 109.784 126.945 109.672C127.022 109.561 127.076 109.435 127.104 109.303C127.131 109.171 127.131 109.034 127.104 108.902C127.077 108.77 127.024 108.644 126.947 108.532C126.793 108.307 126.555 108.151 126.283 108.098C126.012 108.044 125.73 108.097 125.498 108.245Z" fill="#90E8A3"/>
<path d="M78.0049 128.994L76.9549 129.25C76.6849 129.315 76.4525 129.483 76.3088 129.715C76.165 129.947 76.1217 130.225 76.1883 130.489C76.2458 130.716 76.3814 130.917 76.5725 131.058C76.7635 131.2 76.9985 131.273 77.2384 131.267C77.3221 131.277 77.4067 131.277 77.4904 131.267L78.5405 131.011C78.8106 130.943 79.042 130.773 79.1838 130.539C79.3256 130.305 79.3661 130.025 79.2965 129.762C79.2268 129.499 79.0528 129.273 78.8125 129.135C78.5723 128.997 78.2856 128.957 78.0154 129.025L78.0049 128.994Z" fill="#90E8A3"/>
<path d="M72.9331 130.182L71.883 130.397C71.6045 130.424 71.3485 130.558 71.1713 130.769C70.9941 130.98 70.9101 131.251 70.938 131.523C70.9658 131.794 71.1032 132.044 71.3198 132.216C71.5364 132.389 71.8145 132.471 72.093 132.444C72.1662 132.454 72.2404 132.454 72.3136 132.444L73.3636 132.229C73.6219 132.158 73.8427 131.994 73.9807 131.77C74.1187 131.545 74.1635 131.278 74.1057 131.023C74.0479 130.767 73.892 130.543 73.6701 130.396C73.4481 130.249 73.1768 130.191 72.912 130.233L72.9331 130.182Z" fill="#90E8A3"/>
<defs>
<clipPath id="clip0_3462_24112">
<rect width="108.154" height="107.973" fill="white" transform="translate(37.001 37.0273)"/>
</clipPath>
</defs>
</svg>
