<svg width="58" height="58" viewBox="0 0 58 58" fill="none" xmlns="http://www.w3.org/2000/svg">
<path d="M57 1H1V57H57V1Z" stroke="black" stroke-width="0.01" stroke-miterlimit="10"/>
<path d="M44 20V18C44 15.791 42.209 14 40 14H10C7.791 14 6 15.791 6 18V40C6 42.209 7.791 44 10 44H40C42.209 44 44 42.209 44 40V38" stroke="#303E47" stroke-width="2" stroke-miterlimit="10"/>
<path d="M39 39C44.5228 39 49 34.5228 49 29C49 23.4772 44.5228 19 39 19C33.4772 19 29 23.4772 29 29C29 34.5228 33.4772 39 39 39Z" stroke="#20A556" stroke-width="3" stroke-miterlimit="10"/>
<path d="M47 37L52 42" stroke="#20A556" stroke-width="3" stroke-miterlimit="10" stroke-linecap="round" stroke-linejoin="round"/>
<path d="M20 23C20 24.1046 19.1046 25 18 25C16.8954 25 16 24.1046 16 23C16 21.8954 16.8954 21 18 21C19.1046 21 20 21.8954 20 23Z" stroke="#303E47" stroke-width="2"/>
<path d="M12 37V32C12 29.791 13.791 28 16 28H20C22.209 28 24 29.791 24 32V37" stroke="#303E47" stroke-width="2" stroke-miterlimit="10"/>
<path d="M34 27H44" stroke="#20A556" stroke-width="2" stroke-miterlimit="10" stroke-linecap="round"/>
<path d="M34 31H44" stroke="#20A556" stroke-width="2" stroke-miterlimit="10" stroke-linecap="round"/>
</svg>
