<svg width="56" height="56" viewBox="0 0 56 56" fill="none" xmlns="http://www.w3.org/2000/svg">
<path d="M36 46H16C13.791 46 12 44.209 12 42V12C12 9.791 13.791 8 16 8H40C42.209 8 44 9.791 44 12V30" stroke="#303E47" stroke-width="2" stroke-miterlimit="10"/>
<path d="M18 15H38" stroke="#303E47" stroke-width="2" stroke-miterlimit="10" stroke-linecap="round"/>
<path d="M18 20H38" stroke="#303E47" stroke-width="2" stroke-miterlimit="10" stroke-linecap="round"/>
<path d="M18 25H38" stroke="#303E47" stroke-width="2" stroke-miterlimit="10" stroke-linecap="round"/>
<path d="M43 50C48.5228 50 53 45.5228 53 40C53 34.4772 48.5228 30 43 30C37.4772 30 33 34.4772 33 40C33 45.5228 37.4772 50 43 50Z" stroke="#20A556" stroke-width="3" stroke-miterlimit="10" stroke-linecap="round"/>
<path d="M39 40L42 43L48 37" stroke="#20A556" stroke-width="2" stroke-miterlimit="10" stroke-linecap="round" stroke-linejoin="round"/>
</svg>
