<svg width="58" height="58" viewBox="0 0 58 58" fill="none" xmlns="http://www.w3.org/2000/svg">
<path d="M57 1H1V57H57V1Z" stroke="black" stroke-width="0.01" stroke-miterlimit="10"/>
<path d="M43 30V17C43 14.791 41.209 13 39 13H19C16.791 13 15 14.791 15 17V41C15 43.209 16.791 45 19 45H21H33" stroke="#303E47" stroke-width="2" stroke-miterlimit="10"/>
<path d="M40 49C45.5228 49 50 44.5228 50 39C50 33.4772 45.5228 29 40 29C34.4772 29 30 33.4772 30 39C30 44.5228 34.4772 49 40 49Z" stroke="#20A556" stroke-width="3" stroke-miterlimit="10"/>
<path d="M21 20H37" stroke="#303E47" stroke-width="2" stroke-miterlimit="10" stroke-linecap="round"/>
<path d="M21 25H37" stroke="#303E47" stroke-width="2" stroke-miterlimit="10" stroke-linecap="round"/>
<path d="M36 39L39 42L45 36" stroke="#20A556" stroke-width="2" stroke-miterlimit="10" stroke-linecap="round"/>
</svg>
