<svg width="58" height="58" viewBox="0 0 58 58" fill="none" xmlns="http://www.w3.org/2000/svg">
<path d="M57 1H1V57H57V1Z" stroke="black" stroke-width="0.01" stroke-miterlimit="10"/>
<path d="M21.6505 19.4109C25.0188 19.4109 27.9952 21.0749 29.8109 23.6227L34.2829 18.9271C31.2678 15.3059 26.7296 13 21.6505 13C16.5723 13 12.0331 15.3068 9.01898 18.9271L13.4901 23.6227C15.3057 21.0739 18.2831 19.4109 21.6505 19.4109Z" fill="#2E9752"/>
<path d="M37.1416 27.4221H31.4646H19.913L24.9047 32.6309H31.139C29.8016 36.5906 26.0599 39.441 21.6495 39.441C16.1188 39.441 11.633 34.957 11.633 29.4254C11.633 28.7263 11.7047 28.0457 11.8418 27.3871L7.37344 23.0742C6.51068 25.0159 6.02502 27.1627 6.02502 29.4254C6.02502 38.0549 13.02 45.0499 21.6495 45.0499C29.1808 45.0499 35.4667 39.7215 36.9438 32.6299C37.1591 31.5952 37.274 30.5236 37.274 29.4254C37.2749 28.7457 37.2271 28.0788 37.1416 27.4221Z" fill="#3C525C"/>
<path d="M41.44 45.0505H38.611V37.5845C38.611 37.3385 38.577 37.1595 38.508 37.0495C38.44 36.9385 38.346 36.8705 38.228 36.8465C38.064 36.8055 37.943 36.7605 37.866 36.7105C37.789 36.6615 37.75 36.5925 37.75 36.5015C37.75 36.3215 37.873 36.2305 38.119 36.2305H41.29C42.228 36.2305 42.962 36.4145 43.49 36.7775C44.018 37.1425 44.283 37.6705 44.283 38.3595C44.283 38.8505 44.143 39.2685 43.866 39.6135C43.588 39.9575 43.253 40.1955 42.861 40.3265C43.408 40.4495 43.852 40.7065 44.194 41.0965C44.535 41.4855 44.707 41.9925 44.707 42.6155C44.707 43.3525 44.436 43.9445 43.894 44.3865C43.352 44.8285 42.533 45.0505 41.44 45.0505ZM39.786 37.4485V39.9825H41.276C41.832 39.9825 42.267 39.8615 42.581 39.6195C42.895 39.3775 43.053 38.9945 43.053 38.4695C43.053 38.0105 42.871 37.6525 42.506 37.3935C42.142 37.1355 41.695 37.0065 41.167 37.0065H40.401C39.991 37.0065 39.786 37.1535 39.786 37.4485ZM39.786 43.8205C39.786 44.1235 39.991 44.2755 40.401 44.2755H41.194C41.832 44.2755 42.372 44.1335 42.813 43.8505C43.255 43.5675 43.476 43.1565 43.476 42.6145C43.476 41.9915 43.269 41.5325 42.854 41.2365C42.44 40.9415 41.917 40.7955 41.29 40.7955H39.786V43.8205Z" fill="#40535E"/>
<path d="M47.357 45.0515H46.182V40.2044C46.182 39.9584 46.157 39.7805 46.107 39.6695C46.057 39.5605 45.968 39.4874 45.84 39.4544C45.703 39.4134 45.592 39.3725 45.505 39.3315C45.419 39.2905 45.375 39.2254 45.375 39.1354C45.375 38.9474 45.512 38.8524 45.785 38.8524H46.906C47.206 38.8524 47.356 38.9885 47.356 39.2585V45.0515H47.357ZM47.521 36.8105C47.521 37.0325 47.435 37.2205 47.261 37.3765C47.088 37.5325 46.879 37.6085 46.633 37.6085C46.378 37.6085 46.163 37.5325 45.99 37.3765C45.817 37.2205 45.73 37.0315 45.73 36.8105C45.73 36.5975 45.817 36.4134 45.99 36.2564C46.163 36.1014 46.378 36.0234 46.633 36.0234C46.879 36.0234 47.088 36.1014 47.261 36.2564C47.436 36.4124 47.521 36.5975 47.521 36.8105Z" fill="#40535E"/>
<path d="M53.344 43.6739C53.371 43.5919 53.404 43.5209 53.44 43.4589C53.477 43.3969 53.554 43.3669 53.672 43.3669C53.8 43.3669 53.887 43.3969 53.932 43.4589C53.978 43.5209 54 43.5959 54 43.6869L53.904 45.0408H48.642V44.4499L52.401 39.5789H50.432C50.105 39.5789 49.874 39.6198 49.742 39.7018C49.61 39.7838 49.504 39.9238 49.422 40.1198C49.395 40.1938 49.358 40.2658 49.313 40.3358C49.267 40.4048 49.176 40.4398 49.04 40.4398C48.948 40.4398 48.885 40.4069 48.849 40.3409C48.813 40.2749 48.799 40.2008 48.808 40.1188L48.863 38.8398H53.81V39.4178L50.039 44.3018H52.034C52.48 44.3018 52.797 44.2418 52.984 44.1228C53.169 44.0038 53.289 43.8549 53.344 43.6739Z" fill="#40535E"/>
</svg>
