<svg width="56" height="56" viewBox="0 0 56 56" fill="none" xmlns="http://www.w3.org/2000/svg">
<path d="M35.4647 45H38.8967C41.0157 45 42.6277 44.103 42.6277 42.166C42.6277 40.866 41.8607 40.138 40.8207 39.891V39.826C41.6397 39.54 42.1337 38.63 42.1337 37.746C42.1337 35.952 40.6257 35.367 38.6497 35.367H35.4647V45ZM37.3887 39.293V36.849H38.5327C39.6897 36.849 40.2617 37.187 40.2617 38.032C40.2617 38.799 39.7287 39.293 38.5067 39.293H37.3887ZM37.3887 43.518V40.71H38.7277C40.0537 40.71 40.7557 41.113 40.7557 42.049C40.7557 43.05 40.0407 43.518 38.7277 43.518H37.3887ZM44.1574 45H46.0684V37.72H44.1574V45ZM45.1194 36.55C45.7694 36.55 46.2244 36.134 46.2244 35.497C46.2244 34.873 45.7694 34.457 45.1194 34.457C44.4564 34.457 44.0014 34.873 44.0014 35.497C44.0014 36.134 44.4564 36.55 45.1194 36.55ZM47.6116 45H53.3706V43.492H49.9906L53.2536 38.747V37.72H47.9756V39.228H50.8746L47.6116 43.973V45Z" fill="#40535E"/>
<path d="M35.8783 25.9936H17.4424C17.2616 25.9936 17.1707 26.2131 17.2985 26.3407L22.2714 31.3024C22.3488 31.3784 22.4509 31.4213 22.5603 31.4213H29.5199C28.0864 35.8531 23.9188 39.0607 19 39.0607C12.8973 39.0607 7.95147 34.1248 7.95147 28.0359C7.95147 27.2226 8.03876 26.4302 8.20842 25.6673L3.52936 21C2.54831 23.1441 2 25.5275 2 28.0383C2 37.406 9.61115 45 19 45C28.3901 45 36 37.406 36 28.0383C36.0012 27.3453 35.9582 26.6633 35.8783 25.9936Z" fill="#40535E"/>
<path d="M18.9279 16.8543C22.7978 16.8543 26.1878 18.9148 28.0656 22L33 17.0835C29.8041 12.7841 24.6918 10 18.9291 10C13.251 10 8.20465 12.706 5 16.8989L9.91951 21.8005C11.8184 18.8256 15.1425 16.8543 18.9279 16.8543Z" fill="#20A556"/>
</svg>
