<svg width="30" height="32" viewBox="0 0 30 32" fill="none" xmlns="http://www.w3.org/2000/svg">
<path d="M17 29H13L15 32L17 29Z" fill="#20A556"/>
<circle cx="15" cy="15" r="15" fill="#20A556"/>
<path fill-rule="evenodd" clip-rule="evenodd" d="M22.7541 14.2555H14.2899C14.2064 14.2555 14.1646 14.3562 14.2236 14.4155L16.5065 16.6984C16.5415 16.7334 16.5892 16.7531 16.6392 16.7531H19.8345C19.1769 18.7925 17.2637 20.2682 15.0054 20.2682C12.2034 20.2682 9.93183 17.9966 9.93183 15.1947C9.93183 14.8205 9.97276 14.4558 10.0495 14.1048L7.90208 11.957C7.45137 12.9437 7.2002 14.0404 7.2002 15.1958C7.2002 19.5065 10.6947 23.001 15.0054 23.001C19.316 23.001 22.8105 19.5065 22.8105 15.1958C22.8105 14.8775 22.7911 14.5639 22.7541 14.2555Z" fill="white"/>
<mask id="mask0_3462_24201" style="mask-type:alpha" maskUnits="userSpaceOnUse" x="9" y="7" width="12" height="5">
<path fill-rule="evenodd" clip-rule="evenodd" d="M9.20947 7H20.8009V11.6083H9.20947V7Z" fill="white"/>
</mask>
<g mask="url(#mask0_3462_24201)">
<path fill-rule="evenodd" clip-rule="evenodd" d="M15.0052 10.1211C16.4067 10.1211 17.6756 10.6895 18.594 11.6084L20.8009 9.40116C19.3176 7.91779 17.2689 7 15.0052 7C12.7418 7 10.6928 7.91779 9.20947 9.40116L11.4165 11.6084C12.3348 10.6895 13.6037 10.1211 15.0052 10.1211Z" fill="white"/>
</g>
</svg>
