<svg width="48" height="48" viewBox="0 0 48 48" fill="none" xmlns="http://www.w3.org/2000/svg">
<path d="M18.3738 18.5429C17.9832 18.1524 17.3501 18.1524 16.9596 18.5429C16.569 18.9334 16.569 19.5666 16.9596 19.9571L18.3738 18.5429ZM25.5833 27.1667H26.5833C26.5833 26.9015 26.478 26.6471 26.2904 26.4596L25.5833 27.1667ZM25.5833 38.25V39.25C26.1356 39.25 26.5833 38.8023 26.5833 38.25H25.5833ZM17.6667 38.25H16.6667C16.6667 38.8023 17.1144 39.25 17.6667 39.25V38.25ZM18.6667 31.9167C18.6667 31.3644 18.219 30.9167 17.6667 30.9167C17.1144 30.9167 16.6667 31.3644 16.6667 31.9167H18.6667ZM17.6667 39.25C18.219 39.25 18.6667 38.8023 18.6667 38.25C18.6667 37.6977 18.219 37.25 17.6667 37.25V39.25ZM9.75 38.25H8.75C8.75 38.8023 9.19772 39.25 9.75 39.25V38.25ZM9.75 27.1667L9.04289 26.4596C8.85536 26.6471 8.75 26.9015 8.75 27.1667H9.75ZM18.3738 19.9571C18.7643 19.5666 18.7643 18.9334 18.3738 18.5429C17.9832 18.1524 17.3501 18.1524 16.9596 18.5429L18.3738 19.9571ZM18.25 20.8333C18.25 21.3856 18.6977 21.8333 19.25 21.8333C19.8023 21.8333 20.25 21.3856 20.25 20.8333H18.25ZM38.25 38.25V39.25C38.8023 39.25 39.25 38.8023 39.25 38.25H38.25ZM25.5833 37.25C25.031 37.25 24.5833 37.6977 24.5833 38.25C24.5833 38.8023 25.031 39.25 25.5833 39.25V37.25ZM16.9596 19.9571L24.8762 27.8738L26.2904 26.4596L18.3738 18.5429L16.9596 19.9571ZM24.5833 27.1667V38.25H26.5833V27.1667H24.5833ZM25.5833 37.25H17.6667V39.25H25.5833V37.25ZM18.6667 38.25V31.9167H16.6667V38.25H18.6667ZM17.6667 37.25H9.75V39.25H17.6667V37.25ZM10.75 38.25V27.1667H8.75V38.25H10.75ZM10.4571 27.8738L18.3738 19.9571L16.9596 18.5429L9.04289 26.4596L10.4571 27.8738ZM20.25 20.8333V11.3333H18.25V20.8333H20.25ZM20.25 11.3333C20.25 11.0112 20.5112 10.75 20.8333 10.75V8.75C19.4066 8.75 18.25 9.9066 18.25 11.3333H20.25ZM20.8333 10.75H36.6667V8.75H20.8333V10.75ZM36.6667 10.75C36.9888 10.75 37.25 11.0112 37.25 11.3333H39.25C39.25 9.9066 38.0934 8.75 36.6667 8.75V10.75ZM37.25 11.3333V38.25H39.25V11.3333H37.25ZM38.25 37.25H25.5833V39.25H38.25V37.25Z" fill="#40535E"/>
<path d="M25.5834 16.0836V16.0994" stroke="#40535E" stroke-width="2" stroke-linecap="round" stroke-linejoin="round"/>
<path d="M31.9167 16.0836V16.0994" stroke="#40535E" stroke-width="2" stroke-linecap="round" stroke-linejoin="round"/>
<path d="M31.9167 22.4166V22.4324" stroke="#40535E" stroke-width="2" stroke-linecap="round" stroke-linejoin="round"/>
<path d="M31.9167 28.7496V28.7654" stroke="#40535E" stroke-width="2" stroke-linecap="round" stroke-linejoin="round"/>
</svg>
