<svg width="174" height="48" viewBox="0 0 174 48" fill="none" xmlns="http://www.w3.org/2000/svg">
<path d="M18.8738 18.5429C18.4832 18.1524 17.8501 18.1524 17.4596 18.5429C17.069 18.9334 17.069 19.5666 17.4596 19.9571L18.8738 18.5429ZM26.0833 27.1667H27.0833C27.0833 26.9015 26.978 26.6471 26.7904 26.4596L26.0833 27.1667ZM26.0833 38.25V39.25C26.6356 39.25 27.0833 38.8023 27.0833 38.25H26.0833ZM18.1667 38.25H17.1667C17.1667 38.8023 17.6144 39.25 18.1667 39.25V38.25ZM19.1667 31.9167C19.1667 31.3644 18.719 30.9167 18.1667 30.9167C17.6144 30.9167 17.1667 31.3644 17.1667 31.9167H19.1667ZM18.1667 39.25C18.719 39.25 19.1667 38.8023 19.1667 38.25C19.1667 37.6977 18.719 37.25 18.1667 37.25V39.25ZM10.25 38.25H9.25C9.25 38.8023 9.69772 39.25 10.25 39.25V38.25ZM10.25 27.1667L9.54289 26.4596C9.35536 26.6471 9.25 26.9015 9.25 27.1667H10.25ZM18.8738 19.9571C19.2643 19.5666 19.2643 18.9334 18.8738 18.5429C18.4832 18.1524 17.8501 18.1524 17.4596 18.5429L18.8738 19.9571ZM18.75 20.8333C18.75 21.3856 19.1977 21.8333 19.75 21.8333C20.3023 21.8333 20.75 21.3856 20.75 20.8333H18.75ZM38.75 38.25V39.25C39.3023 39.25 39.75 38.8023 39.75 38.25H38.75ZM26.0833 37.25C25.531 37.25 25.0833 37.6977 25.0833 38.25C25.0833 38.8023 25.531 39.25 26.0833 39.25V37.25ZM17.4596 19.9571L25.3762 27.8738L26.7904 26.4596L18.8738 18.5429L17.4596 19.9571ZM25.0833 27.1667V38.25H27.0833V27.1667H25.0833ZM26.0833 37.25H18.1667V39.25H26.0833V37.25ZM19.1667 38.25V31.9167H17.1667V38.25H19.1667ZM18.1667 37.25H10.25V39.25H18.1667V37.25ZM11.25 38.25V27.1667H9.25V38.25H11.25ZM10.9571 27.8738L18.8738 19.9571L17.4596 18.5429L9.54289 26.4596L10.9571 27.8738ZM20.75 20.8333V11.3333H18.75V20.8333H20.75ZM20.75 11.3333C20.75 11.0112 21.0112 10.75 21.3333 10.75V8.75C19.9066 8.75 18.75 9.9066 18.75 11.3333H20.75ZM21.3333 10.75H37.1667V8.75H21.3333V10.75ZM37.1667 10.75C37.4888 10.75 37.75 11.0112 37.75 11.3333H39.75C39.75 9.9066 38.5934 8.75 37.1667 8.75V10.75ZM37.75 11.3333V38.25H39.75V11.3333H37.75ZM38.75 37.25H26.0833V39.25H38.75V37.25Z" fill="#40535E"/>
<path d="M26.0832 16.0836V16.0994" stroke="#40535E" stroke-width="2" stroke-linecap="round" stroke-linejoin="round"/>
<path d="M32.4167 16.0836V16.0994" stroke="#40535E" stroke-width="2" stroke-linecap="round" stroke-linejoin="round"/>
<path d="M32.4167 22.4166V22.4324" stroke="#40535E" stroke-width="2" stroke-linecap="round" stroke-linejoin="round"/>
<path d="M32.4167 28.7496V28.7654" stroke="#40535E" stroke-width="2" stroke-linecap="round" stroke-linejoin="round"/>
<path d="M61.672 27.302C58.072 27.302 55.768 28.49 55.768 30.47C55.768 32.414 58.072 33.602 61.672 33.602C65.272 33.602 67.576 32.414 67.576 30.47C67.576 28.49 65.272 27.302 61.672 27.302ZM61.672 29.102C63.922 29.102 65.2 29.57 65.2 30.47C65.2 31.352 63.922 31.802 61.672 31.802C59.422 31.802 58.144 31.352 58.144 30.47C58.144 29.57 59.422 29.102 61.672 29.102ZM55.948 17.672V19.562H66.496V17.672H55.948ZM54.256 24.368V26.276H69.268V24.368H54.256ZM59.818 21.47V24.854H62.194V21.47H59.818ZM65.11 17.672V19.04C65.11 20.336 65.11 21.542 64.66 23.252L67.036 23.504C67.486 21.776 67.486 20.354 67.486 19.04V17.672H65.11ZM78.2306 27.302C74.6306 27.302 72.3266 28.49 72.3266 30.47C72.3266 32.414 74.6306 33.602 78.2306 33.602C81.8306 33.602 84.1346 32.414 84.1346 30.47C84.1346 28.49 81.8306 27.302 78.2306 27.302ZM78.2306 29.102C80.4806 29.102 81.7586 29.57 81.7586 30.47C81.7586 31.352 80.4806 31.802 78.2306 31.802C75.9806 31.802 74.7026 31.352 74.7026 30.47C74.7026 29.57 75.9806 29.102 78.2306 29.102ZM72.5066 17.672V19.562H83.0546V17.672H72.5066ZM70.8146 24.368V26.276H85.8266V24.368H70.8146ZM76.3766 21.47V24.854H78.7526V21.47H76.3766ZM81.6686 17.672V19.04C81.6686 20.336 81.6686 21.542 81.2186 23.252L83.5946 23.504C84.0446 21.776 84.0446 20.354 84.0446 19.04V17.672H81.6686ZM93.5112 18.788V19.274C93.5112 20.984 91.7472 22.856 88.0752 23.306L88.9572 25.178C93.1872 24.602 95.5812 22.208 95.5812 19.274V18.788H93.5112ZM94.1952 18.788V19.274C94.1952 22.208 96.5892 24.602 100.837 25.178L101.701 23.306C98.0292 22.856 96.2652 20.984 96.2652 19.274V18.788H94.1952ZM93.6372 27.5V33.62H96.0132V27.5H93.6372ZM87.3552 26.132V28.04H102.421V26.132H87.3552ZM88.6872 17.78V19.67H101.053V17.78H88.6872ZM104.454 24.53V26.474H105.606C108.09 26.474 109.71 26.42 111.618 26.096L111.402 24.188C109.566 24.494 108.018 24.53 105.606 24.53H104.454ZM104.454 18.05V25.592H106.758V19.958H111.024V18.05H104.454ZM106.074 21.308V23.108H110.844V21.308H106.074ZM115.83 16.934V27.104H118.098V16.934H115.83ZM113.832 21.02V22.928H116.478V21.02H113.832ZM112.266 17.24V26.996H114.498V17.24H112.266ZM106.65 27.824V29.732H115.722V33.602H118.098V27.824H106.65ZM135.981 16.934V25.898H138.393V16.934H135.981ZM127.305 26.618V33.422H138.393V26.618H136.017V28.166H129.663V26.618H127.305ZM129.663 30.002H136.017V31.514H129.663V30.002ZM129.321 17.618C126.729 17.618 124.785 19.256 124.785 21.56C124.785 23.864 126.729 25.502 129.321 25.502C131.913 25.502 133.839 23.864 133.839 21.56C133.839 19.256 131.913 17.618 129.321 17.618ZM129.321 19.598C130.581 19.598 131.499 20.336 131.499 21.56C131.499 22.802 130.581 23.522 129.321 23.522C128.043 23.522 127.125 22.802 127.125 21.56C127.125 20.336 128.043 19.598 129.321 19.598ZM147.265 18.788V19.274C147.265 20.984 145.501 22.856 141.829 23.306L142.711 25.178C146.941 24.602 149.335 22.208 149.335 19.274V18.788H147.265ZM147.949 18.788V19.274C147.949 22.208 150.343 24.602 154.591 25.178L155.455 23.306C151.783 22.856 150.019 20.984 150.019 19.274V18.788H147.949ZM147.391 27.5V33.62H149.767V27.5H147.391ZM141.109 26.132V28.04H156.175V26.132H141.109ZM142.441 17.78V19.67H154.807V17.78H142.441ZM158.496 18.248V26.312H166.578V18.248H158.496ZM164.238 20.138V24.422H160.836V20.138H164.238ZM169.098 16.952V28.796H171.51V16.952H169.098ZM160.404 31.334V33.26H171.924V31.334H160.404ZM160.404 27.716V32.18H162.798V27.716H160.404Z" fill="#303E47"/>
</svg>
