<svg width="72" height="73" viewBox="0 0 72 73" fill="none" xmlns="http://www.w3.org/2000/svg">
<rect y="0.785156" width="72" height="71.5035" rx="35.7517" fill="#ECEEEF"/>
<mask id="mask0_3995_39943" style="mask-type:alpha" maskUnits="userSpaceOnUse" x="0" y="1" width="72" height="72">
<rect y="1" width="72" height="71.0137" rx="35.5069" fill="#ECEEEF"/>
</mask>
<g mask="url(#mask0_3995_39943)">
<path opacity="0.4" fill-rule="evenodd" clip-rule="evenodd" d="M-3.7034 18.4941H56.4167C61.1601 18.4941 65.0053 21.1206 65.0053 24.3605V33.1599C60.262 33.1599 56.4167 35.7864 56.4167 39.0262C56.4167 42.2661 60.262 44.8925 65.0053 44.8925V53.692C65.0053 56.9319 61.1601 59.5583 56.4167 59.5583H-3.7034C-8.44675 59.5583 -12.292 56.9319 -12.292 53.692V44.8925C-7.54865 44.8925 -3.7034 42.2661 -3.7034 39.0262C-3.7034 35.7864 -7.54865 33.1599 -12.292 33.1599V24.3605C-12.292 21.1206 -8.44675 18.4941 -3.7034 18.4941Z" fill="#F8679C"/>
<path fill-rule="evenodd" clip-rule="evenodd" d="M-9.7034 11.4941H50.4167C55.1601 11.4941 59.0053 14.1206 59.0053 17.3605V26.1599C54.262 26.1599 50.4167 28.7864 50.4167 32.0262C50.4167 35.2661 54.262 37.8925 59.0053 37.8925V46.692C59.0053 49.9319 55.1601 52.5583 50.4167 52.5583H-9.7034C-14.4468 52.5583 -18.292 49.9319 -18.292 46.692V37.8925C-13.5486 37.8925 -9.7034 35.2661 -9.7034 32.0262C-9.7034 28.7864 -13.5486 26.1599 -18.292 26.1599V17.3605C-18.292 14.1206 -14.4468 11.4941 -9.7034 11.4941Z" fill="#F8679C"/>
<path opacity="0.3" d="M44.5 13V18" stroke="white" stroke-width="2" stroke-linecap="round" stroke-linejoin="round"/>
<path opacity="0.3" d="M44.5 29V35" stroke="white" stroke-width="2" stroke-linecap="round" stroke-linejoin="round"/>
<path opacity="0.3" d="M44.5 46V52" stroke="white" stroke-width="2" stroke-linecap="round" stroke-linejoin="round"/>
<path d="M6.35176 37.3633V27.7633L7.40176 28.8133H4.25176V26.8633H8.78176V37.3633H6.35176ZM11.0258 25.9483V32.6533H17.6408V25.9483H11.0258ZM15.6758 27.5233V31.0783H12.9908V27.5233H15.6758ZM19.5608 24.8083V34.9333H21.5558V24.8083H19.5608ZM20.9858 28.8133V30.4483H23.4008V28.8133H20.9858ZM12.6008 36.8683V38.4583H22.0508V36.8683H12.6008ZM12.6008 33.9433V37.6633H14.5958V33.9433H12.6008ZM28.0346 31.9333V34.9783H30.0296V31.9333H28.0346ZM34.1246 24.8083V35.3233H36.1196V24.8083H34.1246ZM26.1146 36.8683V38.4583H36.4196V36.8683H26.1146ZM26.1146 34.3333V37.2883H28.1096V34.3333H26.1146ZM24.6146 32.5333C27.1196 32.5333 30.3746 32.4583 33.3296 31.9633L33.2096 30.5383C30.2996 30.9133 26.9096 30.9433 24.3746 30.9433L24.6146 32.5333ZM31.4996 32.8783V34.2433H34.5596V32.8783H31.4996ZM28.8446 25.2883C26.8046 25.2883 25.3796 26.2933 25.3796 27.7633C25.3796 29.2483 26.8046 30.2383 28.8446 30.2383C30.8696 30.2383 32.2946 29.2483 32.2946 27.7633C32.2946 26.2933 30.8696 25.2883 28.8446 25.2883ZM28.8446 26.7433C29.7596 26.7433 30.4046 27.0883 30.4046 27.7633C30.4046 28.4383 29.7596 28.7833 28.8446 28.7833C27.9146 28.7833 27.2696 28.4383 27.2696 27.7633C27.2696 27.0883 27.9146 26.7433 28.8446 26.7433Z" fill="white"/>
</g>
</svg>
