<svg width="72" height="73" viewBox="0 0 72 73" fill="none" xmlns="http://www.w3.org/2000/svg">
<rect y="0.785156" width="72" height="71.5035" rx="35.7517" fill="#ECEEEF"/>
<mask id="mask0_3995_39930" style="mask-type:alpha" maskUnits="userSpaceOnUse" x="0" y="0" width="72" height="73">
<rect y="0.783203" width="72" height="72" rx="36" fill="#ECEEEF"/>
</mask>
<g mask="url(#mask0_3995_39930)">
<rect x="-4" y="42.3242" width="41" height="19.2917" rx="2" fill="white"/>
<rect x="-4" y="42.3242" width="41" height="19.2917" rx="2" stroke="#B3BABF" stroke-width="2"/>
<rect x="41" y="41.3242" width="22" height="21.2917" rx="3" fill="#20A556"/>
<path d="M-2.87131 56.3672V55.1072L-2.99131 54.8312V52.5752C-2.99131 52.1752 -3.11531 51.8632 -3.36331 51.6392C-3.60331 51.4152 -3.97531 51.3032 -4.47931 51.3032C-4.82331 51.3032 -5.16331 51.3592 -5.49931 51.4712C-5.82731 51.5752 -6.10731 51.7192 -6.33931 51.9032L-7.01131 50.5952C-6.65931 50.3472 -6.23531 50.1552 -5.73931 50.0192C-5.24331 49.8832 -4.73931 49.8152 -4.22731 49.8152C-3.24331 49.8152 -2.47931 50.0472 -1.93531 50.5112C-1.39131 50.9752 -1.11931 51.6992 -1.11931 52.6832V56.3672H-2.87131ZM-4.83931 56.4632C-5.34331 56.4632 -5.77531 56.3792 -6.13531 56.2112C-6.49531 56.0352 -6.77131 55.7992 -6.96331 55.5032C-7.15531 55.2072 -7.25131 54.8752 -7.25131 54.5072C-7.25131 54.1232 -7.15931 53.7872 -6.97531 53.4992C-6.78331 53.2112 -6.48331 52.9872 -6.07531 52.8272C-5.66731 52.6592 -5.13531 52.5752 -4.47931 52.5752H-2.76331V53.6672H-4.27531C-4.71531 53.6672 -5.01931 53.7392 -5.18731 53.8832C-5.34731 54.0272 -5.42731 54.2072 -5.42731 54.4232C-5.42731 54.6632 -5.33531 54.8552 -5.15131 54.9992C-4.95931 55.1352 -4.69931 55.2032 -4.37131 55.2032C-4.05931 55.2032 -3.77931 55.1312 -3.53131 54.9872C-3.28331 54.8352 -3.10331 54.6152 -2.99131 54.3272L-2.70331 55.1912C-2.83931 55.6072 -3.08731 55.9232 -3.44731 56.1392C-3.80731 56.3552 -4.27131 56.4632 -4.83931 56.4632ZM4.39094 56.4632C3.82294 56.4632 3.33494 56.3432 2.92694 56.1032C2.51894 55.8632 2.20694 55.4992 1.99094 55.0112C1.77494 54.5152 1.66694 53.8912 1.66694 53.1392C1.66694 52.3792 1.77894 51.7552 2.00294 51.2672C2.23494 50.7792 2.55494 50.4152 2.96294 50.1752C3.37094 49.9352 3.84694 49.8152 4.39094 49.8152C4.99894 49.8152 5.54294 49.9512 6.02294 50.2232C6.51094 50.4952 6.89494 50.8792 7.17494 51.3752C7.46294 51.8712 7.60694 52.4592 7.60694 53.1392C7.60694 53.8112 7.46294 54.3952 7.17494 54.8912C6.89494 55.3872 6.51094 55.7752 6.02294 56.0552C5.54294 56.3272 4.99894 56.4632 4.39094 56.4632ZM0.574938 56.3672V47.4632H2.44694V51.2192L2.32694 53.1272L2.36294 55.0472V56.3672H0.574938ZM4.06694 54.9272C4.37894 54.9272 4.65494 54.8552 4.89494 54.7112C5.14294 54.5672 5.33894 54.3632 5.48294 54.0992C5.63494 53.8272 5.71094 53.5072 5.71094 53.1392C5.71094 52.7632 5.63494 52.4432 5.48294 52.1792C5.33894 51.9152 5.14294 51.7112 4.89494 51.5672C4.65494 51.4232 4.37894 51.3512 4.06694 51.3512C3.75494 51.3512 3.47494 51.4232 3.22694 51.5672C2.97894 51.7112 2.78294 51.9152 2.63894 52.1792C2.49494 52.4432 2.42294 52.7632 2.42294 53.1392C2.42294 53.5072 2.49494 53.8272 2.63894 54.0992C2.78294 54.3632 2.97894 54.5672 3.22694 54.7112C3.47494 54.8552 3.75494 54.9272 4.06694 54.9272ZM11.9801 56.4632C11.2841 56.4632 10.6641 56.3232 10.1201 56.0432C9.57609 55.7552 9.14809 55.3592 8.83609 54.8552C8.53209 54.3512 8.38009 53.7792 8.38009 53.1392C8.38009 52.4912 8.53209 51.9192 8.83609 51.4232C9.14809 50.9192 9.57609 50.5272 10.1201 50.2472C10.6641 49.9592 11.2841 49.8152 11.9801 49.8152C12.6601 49.8152 13.2521 49.9592 13.7561 50.2472C14.2601 50.5272 14.6321 50.9312 14.8721 51.4592L13.4201 52.2392C13.2521 51.9352 13.0401 51.7112 12.7841 51.5672C12.5361 51.4232 12.2641 51.3512 11.9681 51.3512C11.6481 51.3512 11.3601 51.4232 11.1041 51.5672C10.8481 51.7112 10.6441 51.9152 10.4921 52.1792C10.3481 52.4432 10.2761 52.7632 10.2761 53.1392C10.2761 53.5152 10.3481 53.8352 10.4921 54.0992C10.6441 54.3632 10.8481 54.5672 11.1041 54.7112C11.3601 54.8552 11.6481 54.9272 11.9681 54.9272C12.2641 54.9272 12.5361 54.8592 12.7841 54.7232C13.0401 54.5792 13.2521 54.3512 13.4201 54.0392L14.8721 54.8312C14.6321 55.3512 14.2601 55.7552 13.7561 56.0432C13.2521 56.3232 12.6601 56.4632 11.9801 56.4632ZM16.5804 56.3672V48.6872L17.4204 49.5272H14.9004V47.9672H18.5244V56.3672H16.5804ZM19.9116 56.3672V55.1072L23.1516 52.0472C23.4076 51.8152 23.5956 51.6072 23.7156 51.4232C23.8356 51.2392 23.9156 51.0712 23.9556 50.9192C24.0036 50.7672 24.0276 50.6272 24.0276 50.4992C24.0276 50.1632 23.9116 49.9072 23.6796 49.7312C23.4556 49.5472 23.1236 49.4552 22.6836 49.4552C22.3316 49.4552 22.0036 49.5232 21.6996 49.6592C21.4036 49.7952 21.1516 50.0072 20.9436 50.2952L19.5276 49.3832C19.8476 48.9032 20.2956 48.5232 20.8716 48.2432C21.4476 47.9632 22.1116 47.8232 22.8636 47.8232C23.4876 47.8232 24.0316 47.9272 24.4956 48.1352C24.9676 48.3352 25.3316 48.6192 25.5876 48.9872C25.8516 49.3552 25.9836 49.7952 25.9836 50.3072C25.9836 50.5792 25.9476 50.8512 25.8756 51.1232C25.8116 51.3872 25.6756 51.6672 25.4676 51.9632C25.2676 52.2592 24.9716 52.5912 24.5796 52.9592L21.8916 55.4912L21.5196 54.7832H26.2596V56.3672H19.9116ZM29.7858 56.5112C29.2018 56.5112 28.6218 56.4352 28.0458 56.2832C27.4698 56.1232 26.9818 55.8992 26.5817 55.6112L27.3378 54.1232C27.6578 54.3552 28.0298 54.5392 28.4538 54.6752C28.8778 54.8112 29.3058 54.8792 29.7378 54.8792C30.2258 54.8792 30.6098 54.7832 30.8898 54.5912C31.1698 54.3992 31.3098 54.1352 31.3098 53.7992C31.3098 53.4792 31.1858 53.2272 30.9378 53.0432C30.6898 52.8592 30.2898 52.7672 29.7378 52.7672H28.8498V51.4832L31.1898 48.8312L31.4058 49.5272H27.0018V47.9672H32.8818V49.2272L30.5538 51.8792L29.5698 51.3152H30.1338C31.1658 51.3152 31.9458 51.5472 32.4738 52.0112C33.0018 52.4752 33.2658 53.0712 33.2658 53.7992C33.2658 54.2712 33.1418 54.7152 32.8938 55.1312C32.6458 55.5392 32.2658 55.8712 31.7538 56.1272C31.2418 56.3832 30.5858 56.5112 29.7858 56.5112Z" fill="#303E47"/>
<path d="M-16 13.9219C-16 12.8173 -15.1046 11.9219 -14 11.9219H47C48.1046 11.9219 49 12.8173 49 13.9219V18.033C49 19.1376 48.1046 20.033 47 20.033H-14C-15.1046 20.033 -16 19.1376 -16 18.033V13.9219Z" fill="#D9DDDF"/>
<rect x="-6" y="25.1035" width="65" height="8.11111" rx="2" fill="#B3BABF"/>
</g>
</svg>
