<svg width="75" height="72" viewBox="0 0 75 72" fill="none" xmlns="http://www.w3.org/2000/svg">
<rect width="72" height="71.0137" rx="35.5069" fill="#ECEEEF"/>
<mask id="mask0_3995_39917" style="mask-type:alpha" maskUnits="userSpaceOnUse" x="0" y="0" width="72" height="72">
<rect width="72" height="71.0137" rx="35.5069" fill="#ECEEEF"/>
</mask>
<g mask="url(#mask0_3995_39917)">
<path fill-rule="evenodd" clip-rule="evenodd" d="M15.7394 10C20.3215 10 35.2902 10 39.1464 10C43.0026 10 46 11.4251 46 16.2392C46 23.8747 46 69.4859 46 72.0563C46 74.6268 45.8664 79.0909 39.4897 79.0909C33.113 79.0909 17.5848 79.0909 14.8039 79.0909C12.023 79.0909 9 77.5385 9 73.1345C9 68.7305 9 20.7463 9 16.2392C9 11.1011 12.4671 10 15.7394 10Z" fill="#40535E"/>
<path fill-rule="evenodd" clip-rule="evenodd" d="M34.5327 14.9466C35.8886 14.9639 36.4839 13.8753 36.4997 13.1153C36.4997 12.7122 36.6281 12.5798 37.13 12.5798C37.6318 12.5798 38.3718 12.5798 40.0331 12.5798C41.6943 12.5798 43.6041 13.2708 43.6041 15.9314C43.6041 18.592 43.6041 70.5248 43.6041 72.667C43.6041 74.8093 42.3436 76.0187 39.5363 76.0187C36.7289 76.0187 17.8215 76.0187 14.9572 76.0187C12.0929 76.0187 11.1953 74.4465 11.1953 72.7189C11.1953 70.9912 11.1953 17.9182 11.1953 15.7414C11.1953 13.5645 12.9141 12.5625 14.5183 12.5625C16.1225 12.5625 17.2875 12.5625 17.7458 12.5625C18.2042 12.5625 18.2996 12.8044 18.2996 13.0808C18.2996 13.3572 18.4644 14.9178 20.3622 14.9294C21.9664 14.9294 32.7184 14.9466 34.5327 14.9466Z" fill="white" stroke="#40535E"/>
<mask id="mask1_3995_39917" style="mask-type:alpha" maskUnits="userSpaceOnUse" x="10" y="12" width="35" height="65">
<path fill-rule="evenodd" clip-rule="evenodd" d="M34.5327 14.9466C35.8886 14.9639 36.4839 13.8753 36.4997 13.1153C36.4997 12.7122 36.6281 12.5798 37.13 12.5798C37.6318 12.5798 38.3718 12.5798 40.0331 12.5798C41.6943 12.5798 43.6041 13.2708 43.6041 15.9314C43.6041 18.592 43.6041 70.5248 43.6041 72.667C43.6041 74.8093 42.3436 76.0187 39.5363 76.0187C36.7289 76.0187 17.8215 76.0187 14.9572 76.0187C12.0929 76.0187 11.1953 74.4465 11.1953 72.7189C11.1953 70.9912 11.1953 17.9182 11.1953 15.7414C11.1953 13.5645 12.9141 12.5625 14.5183 12.5625C16.1225 12.5625 17.2875 12.5625 17.7458 12.5625C18.2042 12.5625 18.2996 12.8044 18.2996 13.0808C18.2996 13.3572 18.4644 14.9178 20.3622 14.9294C21.9664 14.9294 32.7184 14.9466 34.5327 14.9466Z" fill="white" stroke="white"/>
</mask>
<g mask="url(#mask1_3995_39917)">
</g>
<path fill-rule="evenodd" clip-rule="evenodd" d="M25.4378 13.3047H29.3326C29.5118 13.3047 29.6571 13.4527 29.6571 13.6352C29.6571 13.8177 29.5118 13.9657 29.3326 13.9657H25.4378C25.2586 13.9657 25.1133 13.8177 25.1133 13.6352C25.1133 13.4527 25.2586 13.3047 25.4378 13.3047Z" fill="white"/>
<ellipse cx="31.3754" cy="13.6167" rx="0.534572" ry="0.544385" fill="white"/>
<path d="M18 54C18 52.8954 18.8954 52 20 52H35C36.1046 52 37 52.8954 37 54V56C37 57.1046 36.1046 58 35 58H20C18.8954 58 18 57.1046 18 56V54Z" fill="#D9DDDF"/>
<path d="M32 33C32 35.2091 30.2091 37 28 37C25.7909 37 24 35.2091 24 33C24 30.7909 25.7909 29 28 29C30.2091 29 32 30.7909 32 33Z" stroke="#8C989E" stroke-width="2"/>
<path d="M38 35C38 40.5228 33.5228 45 28 45C22.4772 45 18 40.5228 18 35C18 29.4772 22.4772 25 28 25C33.5228 25 38 29.4772 38 35Z" stroke="#8C989E" stroke-width="2"/>
<path d="M22 43V42C22 40.8954 22.8954 40 24 40H32C33.1046 40 34 40.8954 34 42V43" stroke="#8C989E" stroke-width="2"/>
</g>
<path fill-rule="evenodd" clip-rule="evenodd" d="M33.875 54.1676L36.4208 46.5301C31.8699 39.7994 33.628 31.1136 40.5329 26.2149C47.4377 21.3163 57.3559 21.7184 63.7304 27.1555C70.1048 32.5925 70.9661 41.3845 65.7447 47.7191C60.5233 54.0536 50.8326 55.9734 43.0792 52.2093L33.875 54.1676" fill="#FED500"/>
<path d="M44.5878 44V33.5H47.0178V44H44.5878ZM49.5096 44V33.5H54.2796C55.4196 33.5 56.4246 33.72 57.2946 34.16C58.1646 34.59 58.8446 35.195 59.3346 35.975C59.8246 36.755 60.0696 37.68 60.0696 38.75C60.0696 39.81 59.8246 40.735 59.3346 41.525C58.8446 42.305 58.1646 42.915 57.2946 43.355C56.4246 43.785 55.4196 44 54.2796 44H49.5096ZM51.9396 42.005H54.1596C54.8596 42.005 55.4646 41.875 55.9746 41.615C56.4946 41.345 56.8946 40.965 57.1746 40.475C57.4646 39.985 57.6096 39.41 57.6096 38.75C57.6096 38.08 57.4646 37.505 57.1746 37.025C56.8946 36.535 56.4946 36.16 55.9746 35.9C55.4646 35.63 54.8596 35.495 54.1596 35.495H51.9396V42.005Z" fill="white"/>
</svg>
