<svg width="24" height="24" viewBox="0 0 24 24" fill="none" xmlns="http://www.w3.org/2000/svg">
<circle cx="12" cy="12" r="12" fill="#20A556"/>
<path d="M16.6133 7.67333C16.48 7.28 16.1067 7 15.6667 7H8.33333C7.89333 7 7.52667 7.28 7.38667 7.67333L6 11.6667V17C6 17.3667 6.3 17.6667 6.66667 17.6667H7.33333C7.7 17.6667 8 17.3667 8 17V16.3333H16V17C16 17.3667 16.3 17.6667 16.6667 17.6667H17.3333C17.7 17.6667 18 17.3667 18 17V11.6667L16.6133 7.67333ZM8.33333 14.3333C7.78 14.3333 7.33333 13.8867 7.33333 13.3333C7.33333 12.78 7.78 12.3333 8.33333 12.3333C8.88667 12.3333 9.33333 12.78 9.33333 13.3333C9.33333 13.8867 8.88667 14.3333 8.33333 14.3333ZM15.6667 14.3333C15.1133 14.3333 14.6667 13.8867 14.6667 13.3333C14.6667 12.78 15.1133 12.3333 15.6667 12.3333C16.22 12.3333 16.6667 12.78 16.6667 13.3333C16.6667 13.8867 16.22 14.3333 15.6667 14.3333ZM7.33333 11L8.33333 8H15.6667L16.6667 11H7.33333Z" fill="white"/>
</svg>
