<svg width="58" height="58" viewBox="0 0 58 58" fill="none" xmlns="http://www.w3.org/2000/svg">
<path d="M57 1H1V57H57V1Z" stroke="black" stroke-width="0.01" stroke-miterlimit="10"/>
<path d="M7.51404 44.5009V19.132C7.51404 18.812 7.67704 18.5149 7.94604 18.3439L28.499 9.14795C28.652 9.04995 28.827 9.00195 29.001 9.00195C29.175 9.00195 29.35 9.05095 29.503 9.14795L50.056 18.3439C50.325 18.5149 50.488 18.812 50.488 19.132V35.0009" stroke="#303E47" stroke-width="2" stroke-miterlimit="10" stroke-linecap="round"/>
<path d="M12.185 44.4991V22.0781H45.815V27.6841" stroke="#303E47" stroke-width="2" stroke-miterlimit="10" stroke-linecap="round" stroke-linejoin="round"/>
<path d="M12.185 26.75H45.815" stroke="#303E47" stroke-width="2" stroke-miterlimit="10" stroke-linecap="round"/>
<path d="M12.185 31.4219H30.868" stroke="#303E47" stroke-width="2" stroke-miterlimit="10" stroke-linecap="round"/>
<path d="M39.833 44.5H46.5V44.916C46.5 46.067 47.433 47 48.583 47C49.734 47 50.667 46.067 50.667 44.916V44.5V43.25V37.834C50.667 37.834 50.667 35.681 49.833 33.666L47.333 28.666C47.333 28.666 46.5 27 44.833 27H39.833H34.833C33.167 27 32.333 28.666 32.333 28.666L29.833 33.666C29 35.681 29 37.834 29 37.834V43.25V44.5V44.916C29 46.067 29.933 47 31.083 47C32.234 47 33.167 46.067 33.167 44.916V44.5H39.833Z" stroke="#20A556" stroke-width="3" stroke-miterlimit="10" stroke-linejoin="round"/>
<path d="M29.833 34.5H49.833" stroke="#20A556" stroke-width="2" stroke-miterlimit="10" stroke-linejoin="round"/>
<path d="M29.833 35.75C29.833 36.44 29.273 37 28.583 37H26.917C26.227 37 25.667 36.44 25.667 35.75C25.667 35.06 26.227 34.5 26.917 34.5H28.583C29.273 34.5 29.833 35.06 29.833 35.75Z" fill="#20A556"/>
<path d="M54 35.75C54 36.44 53.44 37 52.75 37H51.083C50.394 37 49.833 36.44 49.833 35.75C49.833 35.06 50.394 34.5 51.083 34.5H52.75C53.44 34.5 54 35.06 54 35.75Z" fill="#20A556"/>
<path d="M34.161 37.787C34.158 37.776 34.153 37.766 34.148 37.759C33.938 37.203 33.406 36.832 32.815 36.832C32.026 36.832 31.384 37.474 31.384 38.263C31.384 39.05 32.026 39.693 32.815 39.693H34.573C34.627 39.693 34.677 39.667 34.708 39.623C34.74 39.58 34.748 39.523 34.73 39.473L34.161 37.787Z" fill="#20A556"/>
<path d="M45.5581 37.787C45.5611 37.776 45.5661 37.766 45.5711 37.759C45.7811 37.203 46.313 36.832 46.904 36.832C47.693 36.832 48.335 37.474 48.335 38.263C48.335 39.05 47.693 39.693 46.904 39.693H45.146C45.092 39.693 45.042 39.667 45.011 39.623C44.979 39.58 44.9711 39.523 44.9891 39.473L45.5581 37.787Z" fill="#20A556"/>
<path d="M37.333 41.166H42.333" stroke="#20A556" stroke-width="2" stroke-miterlimit="10" stroke-linecap="round" stroke-linejoin="round"/>
</svg>
