<svg width="58" height="58" viewBox="0 0 58 58" fill="none" xmlns="http://www.w3.org/2000/svg">
<path d="M57 1H1V57H57V1Z" stroke="black" stroke-width="0.01" stroke-miterlimit="10"/>
<path d="M15.859 26.6459C15.854 26.6289 15.845 26.6139 15.839 26.6019C15.515 25.7449 14.693 25.1719 13.782 25.1719C12.563 25.1719 11.573 26.1629 11.573 27.3799C11.573 28.5939 12.563 29.5859 13.782 29.5859H16.495C16.577 29.5859 16.653 29.5449 16.703 29.4779C16.753 29.4119 16.763 29.3249 16.737 29.2459L15.859 26.6459Z" fill="#303E47"/>
<path d="M30.1409 26.6459C30.1459 26.6289 30.1549 26.6139 30.1609 26.6019C30.4849 25.7449 31.3069 25.1719 32.2179 25.1719C33.4369 25.1719 34.4269 26.1629 34.4269 27.3799C34.4269 28.5939 33.4369 29.5859 32.2179 29.5859H29.5049C29.4229 29.5859 29.3469 29.5449 29.2969 29.4779C29.2469 29.4119 29.2369 29.3249 29.2629 29.2459L30.1409 26.6459Z" fill="#303E47"/>
<path d="M38.159 27.6664V26.7344C38.159 25.4584 39.268 25.4584 39.268 25.4584L39.237 25.3984H40.292C41.236 25.3984 42 24.6344 42 23.6904C42 22.7464 41.236 21.9824 40.292 21.9824H38.289C38.289 21.9824 37.454 21.7754 37.088 21.0094L37.08 21.0124C37.058 20.9554 37.044 20.8994 37.02 20.8424L33.603 14.0104C33.603 14.0104 32.464 11.7344 30.188 11.7344H23.357H23H22.643H15.812C13.536 11.7344 12.397 14.0104 12.397 14.0104L8.98001 20.8424C8.95701 20.8994 8.94301 20.9554 8.92001 21.0124L8.91199 21.0094C8.54599 21.7754 7.711 21.9824 7.711 21.9824H5.70801C4.76401 21.9824 4 22.7464 4 23.6904C4 24.6344 4.76401 25.3984 5.70801 25.3984H6.763L6.73199 25.4584C6.73199 25.4584 7.841 25.4584 7.841 26.7344V34.8884V36.5954V37.1634C7.841 38.7374 9.11499 40.0114 10.688 40.0114C12.261 40.0114 13.536 38.7384 13.536 37.1634V36.5954H22.643H23H23.357H31" stroke="#303E47" stroke-width="2" stroke-miterlimit="10" stroke-linejoin="round"/>
<path d="M19.2 31.5742H26.7999" stroke="#303E47" stroke-miterlimit="10" stroke-linejoin="round"/>
<path d="M19.2 33.4062H26.7999" stroke="#303E47" stroke-miterlimit="10" stroke-linejoin="round"/>
<path d="M41.0291 46.4707C46.5519 46.4707 51.0291 41.9936 51.0291 36.4707C51.0291 30.9479 46.5519 26.4707 41.0291 26.4707C35.5062 26.4707 31.0291 30.9479 31.0291 36.4707C31.0291 41.9936 35.5062 46.4707 41.0291 46.4707Z" stroke="#20A556" stroke-width="3" stroke-miterlimit="10"/>
<path d="M38.0291 39.4707L44.0291 33.4707" stroke="#20A556" stroke-width="2" stroke-miterlimit="10" stroke-linecap="round"/>
<path d="M43.7791 40.2207C44.3313 40.2207 44.7791 39.773 44.7791 39.2207C44.7791 38.6684 44.3313 38.2207 43.7791 38.2207C43.2268 38.2207 42.7791 38.6684 42.7791 39.2207C42.7791 39.773 43.2268 40.2207 43.7791 40.2207Z" fill="#20A556"/>
<path d="M38.2791 34.7207C38.8313 34.7207 39.2791 34.273 39.2791 33.7207C39.2791 33.1684 38.8313 32.7207 38.2791 32.7207C37.7268 32.7207 37.2791 33.1684 37.2791 33.7207C37.2791 34.273 37.7268 34.7207 38.2791 34.7207Z" fill="#20A556"/>
</svg>
