<svg width="58" height="58" viewBox="0 0 58 58" fill="none" xmlns="http://www.w3.org/2000/svg">
<path d="M57 1H1V57H57V1Z" stroke="black" stroke-width="0.01" stroke-miterlimit="10"/>
<path d="M13 19C13 17.343 14.344 16 16 16H42C43.656 16 45 17.343 45 19C45 20.657 43.656 22 42 22H16C14.344 22 13 20.657 13 19Z" stroke="#303E47" stroke-width="2" stroke-miterlimit="10"/>
<path d="M34.998 28H16C14.344 28 13 26.657 13 25C13 23.343 14.344 22 16 22H42C43.656 22 45 23.343 45 25C45 25.351 44.939 25.688 44.829 26" stroke="#303E47" stroke-width="2" stroke-miterlimit="10"/>
<path d="M32.998 34H31.998H16C14.344 34 13 32.657 13 31C13 29.343 14.344 28 16 28H36.002" stroke="#303E47" stroke-width="2" stroke-miterlimit="10"/>
<path d="M32.998 40H16C14.344 40 13 38.657 13 37C13 35.343 14.344 34 16 34H32.004" stroke="#303E47" stroke-width="2" stroke-miterlimit="10"/>
<path d="M42 46.4707C47.5228 46.4707 52 41.9936 52 36.4707C52 30.9479 47.5228 26.4707 42 26.4707C36.4772 26.4707 32 30.9479 32 36.4707C32 41.9936 36.4772 46.4707 42 46.4707Z" stroke="#20A556" stroke-width="3" stroke-miterlimit="10"/>
<path d="M46.3231 31.6026C45.4741 30.9376 44.3051 30.5996 42.8481 30.5996H38.6011C37.9171 30.5996 37.6731 30.9996 37.6731 31.3746C37.6731 31.6396 37.7981 31.8616 38.0151 31.9956C38.1591 32.0896 38.3561 32.1656 38.6331 32.2356C38.7281 32.2606 38.7481 32.2986 38.7581 32.3176C38.7701 32.3386 38.8241 32.4626 38.8241 32.8686V43.1796C38.8241 43.4006 39.0041 43.5796 39.2241 43.5796H40.8661C41.0871 43.5796 41.2661 43.3996 41.2661 43.1796V38.1996C41.3971 38.2796 41.5481 38.3146 41.6961 38.3146H42.6021C44.0891 38.3146 45.3031 37.9896 46.2111 37.3496C47.1621 36.6796 47.6451 35.6746 47.6451 34.3626C47.6461 33.2196 47.2011 32.2906 46.3231 31.6026ZM41.2681 32.6976C41.2681 32.5826 41.2681 32.4526 41.7161 32.4526H42.8871C43.5031 32.4526 44.0351 32.6306 44.5111 32.9966C44.9501 33.3386 45.1581 33.7826 45.1471 34.3616C45.1471 35.0406 44.9251 35.5366 44.4691 35.8776C43.9841 36.2406 43.3241 36.4246 42.5101 36.4246H41.6781C41.5371 36.4246 41.3941 36.4576 41.2681 36.5336V32.6976Z" fill="#20A556"/>
</svg>
