<svg width="120" height="120" viewBox="0 0 120 120" fill="none" xmlns="http://www.w3.org/2000/svg">
<path d="M110.304 54.9768H55.7215C55.603 54.9756 55.4867 55.0104 55.3874 55.0769C55.2881 55.1434 55.2102 55.2385 55.1635 55.3504C55.1168 55.4623 55.1034 55.5858 55.125 55.7055C55.1466 55.8252 55.2022 55.9357 55.2849 56.023L70.0038 71.1358C70.2296 71.3713 70.537 71.5057 70.8589 71.5094H91.4727C89.0356 79.0789 84.0585 85.5131 77.4293 89.6639C70.8001 93.8147 62.9502 95.4121 55.2803 94.171C47.6103 92.9299 40.6194 88.9311 35.5548 82.8881C30.4902 76.8451 27.6816 69.1511 27.63 61.1789C27.6253 58.7537 27.8816 56.3354 28.3941 53.9681L14.5485 39.752C11.4252 46.7734 9.8737 54.424 10.008 62.1419C10.1424 69.8598 11.9591 77.4487 15.3248 84.3511C18.6904 91.2534 23.5195 97.2938 29.4571 102.028C35.3947 106.763 42.2901 110.072 49.6365 111.711C56.9829 113.35 64.5937 113.279 71.9097 111.502C79.2257 109.725 86.061 106.288 91.9134 101.442C97.7658 96.5971 102.486 90.4671 105.729 83.5027C108.971 76.5383 110.652 68.9166 110.649 61.1975C110.654 59.1188 110.539 57.0415 110.304 54.9768Z" fill="#40535E"/>
<path d="M61.0515 27.6256C66.4299 27.6275 71.7166 29.0559 76.3992 31.7724C81.0819 34.489 85.0016 38.4015 87.7785 43.1308L102.225 28.3168C97.5041 21.7537 91.3591 16.4102 84.277 12.7103C77.195 9.01028 69.3706 7.05556 61.4247 7.00117C53.4787 6.94678 45.6296 8.7942 38.5001 12.3969C31.3707 15.9996 25.1568 21.2585 20.3516 27.7564L34.743 42.533C37.5529 37.9765 41.437 34.2215 46.0357 31.6158C50.6344 29.01 55.799 27.6376 61.0515 27.6256Z" fill="#20A556"/>
</svg>
