<svg width="58" height="58" viewBox="0 0 58 58" fill="none" xmlns="http://www.w3.org/2000/svg">
<path d="M57 1H1V57H57V1Z" stroke="black" stroke-width="0.01" stroke-miterlimit="10"/>
<path d="M30.7607 19.8184C32.9699 19.8184 34.7607 18.0275 34.7607 15.8184C34.7607 13.6092 32.9699 11.8184 30.7607 11.8184C28.5516 11.8184 26.7607 13.6092 26.7607 15.8184C26.7607 18.0275 28.5516 19.8184 30.7607 19.8184Z" stroke="#303E47" stroke-width="2" stroke-miterlimit="10"/>
<path d="M19.2378 41.8184V28.1994C19.2378 25.7794 21.1998 23.8184 23.6188 23.8184H37.6188C40.0378 23.8184 41.9998 25.7794 41.9998 28.1994V30.8184" stroke="#303E47" stroke-width="2" stroke-miterlimit="10"/>
<path d="M15.7607 23.8184C17.4176 23.8184 18.7607 22.4752 18.7607 20.8184C18.7607 19.1615 17.4176 17.8184 15.7607 17.8184C14.1039 17.8184 12.7607 19.1615 12.7607 20.8184C12.7607 22.4752 14.1039 23.8184 15.7607 23.8184Z" stroke="#303E47" stroke-width="2" stroke-miterlimit="10"/>
<path d="M7.23779 39.8185V31.4825C7.23779 29.3845 8.93779 27.6855 11.0348 27.6855H20.2378" stroke="#303E47" stroke-width="2" stroke-miterlimit="10"/>
<path d="M45.5828 29.8184C43.9778 29.8184 42.5308 30.5064 41.5028 31.6004C41.1928 31.9034 40.7378 31.8724 40.7378 31.8724C40.7378 31.8724 40.2828 31.9024 39.9728 31.6004C38.9428 30.5064 37.4968 29.8184 35.8918 29.8184C32.7748 29.8184 30.2378 32.3874 30.2378 35.5454C30.2378 37.0344 30.8018 38.4464 31.8238 39.5214C31.8238 39.5214 31.8358 39.5334 31.8418 39.5384C32.0698 39.7774 32.3268 40.0004 32.5518 40.1594L40.2118 46.8054C40.3628 46.9374 40.5508 47.0014 40.7378 47.0014C40.9248 47.0014 41.1128 46.9374 41.2628 46.8054L48.8698 40.2014C49.1468 40.0004 49.4048 39.7774 49.5968 39.5744C49.6318 39.5424 49.6638 39.5104 49.6958 39.4724C50.6888 38.4044 51.2378 37.0124 51.2378 35.5454C51.2378 32.3884 48.6998 29.8184 45.5828 29.8184Z" stroke="#2EAB61" stroke-width="3" stroke-miterlimit="10"/>
</svg>
