<svg width="58" height="58" viewBox="0 0 58 58" fill="none" xmlns="http://www.w3.org/2000/svg">
<path d="M15.859 29.2602C15.854 29.2422 15.845 29.2282 15.839 29.2162C15.515 28.3602 14.693 27.7852 13.782 27.7852C12.563 27.7852 11.573 28.7762 11.573 29.9932C11.573 31.2072 12.563 32.1992 13.782 32.1992H16.495C16.577 32.1992 16.653 32.1582 16.703 32.0912C16.753 32.0262 16.763 31.9382 16.737 31.8592L15.859 29.2602Z" fill="#303E47"/>
<path d="M29.2959 32.0912C29.2459 32.0262 29.2359 31.9382 29.2619 31.8592L30.1409 29.2602C30.1459 29.2422 30.155 29.2282 30.161 29.2162C30.485 28.3602 31.3069 27.7852 32.2179 27.7852C33.4369 27.7852 34.427 28.7762 34.427 29.9932C34.427 31.2072 33.4369 32.1992 32.2179 32.1992" fill="#303E47"/>
<path d="M37.088 23.6255L37.08 23.6295C37.058 23.5725 37.044 23.5166 37.02 23.4596L33.603 16.6276C33.603 16.6276 32.464 14.3516 30.188 14.3516H23.357H23H22.643H15.812C13.536 14.3516 12.397 16.6276 12.397 16.6276L8.98001 23.4596C8.95701 23.5166 8.94301 23.5725 8.92001 23.6295L8.91199 23.6255C8.54599 24.3915 7.711 24.5985 7.711 24.5985H5.70801C4.76401 24.5985 4 25.3625 4 26.3065C4 27.2505 4.76401 28.0146 5.70801 28.0146H6.763L6.73199 28.0746C6.73199 28.0746 7.841 28.0746 7.841 29.3506V37.5045V39.2115V39.7795C7.841 41.3535 9.11499 42.6276 10.688 42.6276C12.261 42.6276 13.536 41.3545 13.536 39.7795V39.2115H22.643H23H23.357H34" stroke="#303E47" stroke-width="2" stroke-miterlimit="10" stroke-linejoin="round"/>
<path d="M19.2 34.1895H26.8" stroke="#303E47" stroke-miterlimit="10" stroke-linejoin="round"/>
<path d="M19.2 36.0215H26.8" stroke="#303E47" stroke-miterlimit="10" stroke-linejoin="round"/>
<path d="M57 1H1V57H57V1Z" stroke="black" stroke-width="0.01" stroke-miterlimit="10"/>
<path d="M33 10C35.209 10 37 11.791 37 14" stroke="#303E47" stroke-width="1.4" stroke-miterlimit="10" stroke-linecap="round"/>
<path d="M33 7C36.866 7 40 10.134 40 14" stroke="#303E47" stroke-width="1.4" stroke-miterlimit="10" stroke-linecap="round"/>
<path d="M33 4C38.522 4 43 8.478 43 14" stroke="#303E47" stroke-width="1.4" stroke-miterlimit="10" stroke-linecap="round"/>
<path d="M51 43.638C51 45.366 49.6 46.766 47.873 46.766H38.127C36.4 46.766 35 45.366 35 43.638V26.128C35 24.4 36.4 23 38.127 23H47.873C49.6 23 51 24.4 51 26.128V43.638Z" stroke="#20A556" stroke-width="3" stroke-miterlimit="10" stroke-linecap="round"/>
<path d="M39 31H47" stroke="#20A556" stroke-width="1.4" stroke-miterlimit="10" stroke-linecap="round"/>
<path d="M39 36H47" stroke="#20A556" stroke-width="1.4" stroke-miterlimit="10" stroke-linecap="round"/>
<path d="M43 43C43.5523 43 44 42.5523 44 42C44 41.4477 43.5523 41 43 41C42.4477 41 42 41.4477 42 42C42 42.5523 42.4477 43 43 43Z" fill="#20A556"/>
</svg>
