<svg width="58" height="58" viewBox="0 0 58 58" fill="none" xmlns="http://www.w3.org/2000/svg">
<path d="M57 1H1V57H57V1Z" stroke="black" stroke-width="0.01" stroke-miterlimit="10"/>
<path d="M16.5864 22.8261C16.5811 22.8081 16.5715 22.7922 16.5651 22.7795C16.2212 21.8699 15.3489 21.2617 14.382 21.2617C13.0882 21.2617 12.0375 22.3135 12.0375 23.6052C12.0375 24.8936 13.0882 25.9465 14.382 25.9465H17.2614C17.3484 25.9465 17.4291 25.9029 17.4821 25.8318C17.5352 25.7618 17.5458 25.6694 17.5182 25.5856L16.5864 22.8261Z" fill="#303E47"/>
<path d="M31.7443 22.8261C31.7496 22.8081 31.7592 22.7922 31.7656 22.7795C32.1094 21.8699 32.9818 21.2617 33.9487 21.2617C35.2425 21.2617 36.2932 22.3135 36.2932 23.6052C36.2932 24.8936 35.2425 25.9465 33.9487 25.9465H31.0693C30.9823 25.9465 30.9016 25.9029 30.8486 25.8318C30.7955 25.7618 30.7849 25.6694 30.8125 25.5856L31.7443 22.8261Z" fill="#303E47"/>
<path d="M40.2541 28.0318V24.92C40.2541 23.5658 41.4312 23.5658 41.4312 23.5658L41.3983 23.5021H42.518C43.5199 23.5021 44.3307 22.6912 44.3307 21.6893C44.3307 20.6874 43.5199 19.8765 42.518 19.8765H40.3921C40.3921 19.8765 39.5059 19.6569 39.1175 18.8439L39.109 18.8471C39.0856 18.7866 39.0707 18.7271 39.0453 18.6666L35.4187 11.4156C35.4187 11.4156 34.2098 9 31.7942 9H24.5443H24.1654H23.7865H16.5365C14.1209 9 12.912 11.4156 12.912 11.4156L9.28546 18.6666C9.26105 18.7271 9.24619 18.7866 9.22178 18.8471L9.21326 18.8439C8.82482 19.6569 7.93861 19.8765 7.93861 19.8765H5.81277C4.81087 19.8765 4 20.6874 4 21.6893C4 22.6912 4.81087 23.5021 5.81277 23.5021H6.93247L6.89956 23.5658C6.89956 23.5658 8.07659 23.5658 8.07659 24.92V33.5741V35.3858V35.9887C8.07659 37.6592 9.42872 39.0114 11.0982 39.0114C12.7677 39.0114 14.1209 37.6603 14.1209 35.9887V35.3858H23.7865H24.1654H24.5443H30.5" stroke="#303E47" stroke-width="2" stroke-miterlimit="10" stroke-linejoin="round"/>
<path d="M19 31H29" stroke="#303E47" stroke-miterlimit="10" stroke-linejoin="round"/>
<path d="M19 29H29" stroke="#303E47" stroke-miterlimit="10" stroke-linejoin="round"/>
<path d="M40 47.3848C45.5228 47.3848 50 42.9076 50 37.3848C50 31.8619 45.5228 27.3848 40 27.3848C34.4772 27.3848 30 31.8619 30 37.3848C30 42.9076 34.4772 47.3848 40 47.3848Z" stroke="#20A556" stroke-width="3" stroke-miterlimit="10"/>
<path d="M36 37.3848L39 40.3848L45 34.3848" stroke="#20A556" stroke-width="2" stroke-miterlimit="10" stroke-linecap="round"/>
</svg>
