<svg width="58" height="57" viewBox="0 0 58 57" fill="none" xmlns="http://www.w3.org/2000/svg">
<path d="M57 0.5H1V56.5H57V0.5Z" stroke="black" stroke-width="0.01" stroke-miterlimit="10"/>
<path d="M19.0966 27.4086C19.0916 27.3906 19.0835 27.3766 19.0765 27.3646C18.7525 26.5076 17.9306 25.9336 17.0196 25.9336C15.8006 25.9336 14.8105 26.9246 14.8105 28.1416C14.8105 29.3556 15.8006 30.3476 17.0196 30.3476H19.7325C19.8145 30.3476 19.8906 30.3066 19.9406 30.2396C19.9906 30.1736 20.0005 30.0866 19.9745 30.0066L19.0966 27.4086Z" fill="#303E47"/>
<path d="M33.3787 27.4086C33.3837 27.3906 33.3927 27.3766 33.3987 27.3646C33.7227 26.5076 34.5447 25.9336 35.4557 25.9336C36.6757 25.9336 37.6647 26.9246 37.6647 28.1416C37.6647 29.3556 36.6757 30.3476 35.4557 30.3476H32.7427C32.6607 30.3476 32.5847 30.3066 32.5347 30.2396C32.4847 30.1736 32.4747 30.0866 32.5007 30.0066L33.3787 27.4086Z" fill="#303E47"/>
<path d="M41.3968 31.5V27.499C41.3968 26.222 42.5058 26.222 42.5058 26.222L42.4748 26.163H43.5298C44.4738 26.163 45.2378 25.398 45.2378 24.456C45.2378 23.512 44.4738 22.748 43.5298 22.748H41.5268C41.5268 22.748 40.6918 22.541 40.3258 21.774L40.3178 21.778C40.2958 21.72 40.2818 21.665 40.2578 21.607L36.8408 14.775C36.8408 14.775 35.7018 12.5 33.4258 12.5H26.5948H26.2378H25.8808H19.0508C16.7738 12.5 15.6348 14.775 15.6348 14.775L12.2178 21.607C12.1948 21.665 12.1808 21.72 12.1578 21.778L12.1498 21.774C11.7838 22.541 10.9488 22.748 10.9488 22.748H8.9458C8.0018 22.748 7.23779 23.512 7.23779 24.456C7.23779 25.398 8.0018 26.163 8.9458 26.163H10.0008L9.96979 26.222C9.96979 26.222 11.0788 26.222 11.0788 27.499V35.653V37.36V37.927C11.0788 39.502 12.3528 40.776 13.9258 40.776C15.4988 40.776 16.7738 39.503 16.7738 37.927V37.36H25.8808H26.2378H26.5948H35.7018V37.927" stroke="#303E47" stroke-width="2" stroke-miterlimit="10" stroke-linejoin="round"/>
<path d="M22.438 32.3379H30.038" stroke="#303E47" stroke-width="2" stroke-miterlimit="10" stroke-linejoin="round"/>
<path d="M43.2379 32.0084C45.1769 32.0084 46.8919 32.9664 47.9379 34.4344L50.5129 31.7304C48.7789 29.6444 46.1629 28.3164 43.2379 28.3164C40.3129 28.3164 37.6969 29.6444 35.9629 31.7304L38.5379 34.4344C39.5849 32.9664 41.2989 32.0084 43.2379 32.0084Z" fill="#2E9752"/>
<path d="M52.1618 36.6251H48.8918H42.2388L45.1128 39.6241H48.7028C47.9338 41.9041 45.7778 43.5471 43.2378 43.5471C40.0518 43.5471 37.4678 40.9641 37.4678 37.7771C37.4678 37.3761 37.5098 36.9831 37.5878 36.6031L35.0148 34.1191C34.5168 35.2381 34.2378 36.4741 34.2378 37.7771C34.2378 42.7491 38.2668 46.7771 43.2378 46.7771C47.5758 46.7771 51.1958 43.7091 52.0488 39.6241C52.1718 39.0281 52.2378 38.4101 52.2378 37.7771C52.2378 37.3871 52.2108 37.0021 52.1618 36.6251Z" fill="#3C525C"/>
</svg>
