<svg width="58" height="58" viewBox="0 0 58 58" fill="none" xmlns="http://www.w3.org/2000/svg">
<path d="M57 1H1V57H57V1Z" stroke="black" stroke-width="0.01" stroke-miterlimit="10"/>
<path d="M46 25.2344V20.2344V18.2344C46 16.0254 44.209 14.2344 42 14.2344H16C13.791 14.2344 12 16.0254 12 18.2344V36.2344C12 38.4434 13.791 40.2344 16 40.2344H35" stroke="#303E47" stroke-width="2" stroke-miterlimit="10"/>
<path d="M19 20.7598H39" stroke="#303E47" stroke-width="2" stroke-miterlimit="10" stroke-linecap="round"/>
<path d="M19 24.7598H30" stroke="#303E47" stroke-width="2" stroke-miterlimit="10" stroke-linecap="round"/>
<path d="M15 43.2344H35" stroke="#303E47" stroke-width="2" stroke-miterlimit="10" stroke-linecap="round"/>
<path d="M53 45.8724C53 47.6004 51.6 49.0004 49.873 49.0004H38.127C36.4 49.0004 35 47.6004 35 45.8724V28.3624C35 26.6344 36.4 25.2344 38.127 25.2344H49.873C51.6 25.2344 53 26.6344 53 28.3624V45.8724Z" stroke="#20A556" stroke-width="3" stroke-miterlimit="10" stroke-linecap="round"/>
<path d="M38 30.2344C38.5523 30.2344 39 29.7867 39 29.2344C39 28.6821 38.5523 28.2344 38 28.2344C37.4477 28.2344 37 28.6821 37 29.2344C37 29.7867 37.4477 30.2344 38 30.2344Z" fill="#20A556"/>
<path d="M42 30.2344C42.5523 30.2344 43 29.7867 43 29.2344C43 28.6821 42.5523 28.2344 42 28.2344C41.4477 28.2344 41 28.6821 41 29.2344C41 29.7867 41.4477 30.2344 42 30.2344Z" fill="#20A556"/>
<path d="M46 30.2344C46.5523 30.2344 47 29.7867 47 29.2344C47 28.6821 46.5523 28.2344 46 28.2344C45.4477 28.2344 45 28.6821 45 29.2344C45 29.7867 45.4477 30.2344 46 30.2344Z" fill="#20A556"/>
<path d="M50 30.2344C50.5523 30.2344 51 29.7867 51 29.2344C51 28.6821 50.5523 28.2344 50 28.2344C49.4477 28.2344 49 28.6821 49 29.2344C49 29.7867 49.4477 30.2344 50 30.2344Z" fill="#20A556"/>
<path d="M50.2068 37.2052H49.0439L49.4919 35.6632C49.5589 35.4732 49.6148 35.3172 49.6628 35.1982C49.7088 35.0792 49.7909 34.9892 49.9109 34.9282C50.0569 34.8692 50.1838 34.8152 50.2958 34.7682C50.4108 34.7202 50.4669 34.6312 50.4669 34.4982C50.4669 34.2732 50.2878 34.1582 49.9308 34.1582H48.2798L47.4508 37.2042H45.6039L44.7209 34.2482H44.0009H43.2809L42.3979 37.2042H40.5489L39.7218 34.1582H38.0718C37.7138 34.1582 37.5349 34.2732 37.5349 34.4982C37.5349 34.6312 37.5898 34.7202 37.7048 34.7682C37.8158 34.8152 37.9449 34.8702 38.0919 34.9282C38.2099 34.9892 38.2928 35.0782 38.3388 35.1982C38.3848 35.3182 38.4409 35.4722 38.5089 35.6632L38.9589 37.2052H37.7939C37.3819 37.2052 37.0479 37.5382 37.0479 37.9502C37.0479 38.3622 37.3819 38.6962 37.7939 38.6962H39.3929L40.7159 43.2332H41.9298L43.3339 38.6962H44.6678L46.0718 43.2332H47.2859L48.6089 38.6962H50.2068C50.6188 38.6962 50.9518 38.3622 50.9518 37.9502C50.9518 37.5382 50.6188 37.2052 50.2068 37.2052ZM43.9958 36.5582L44.0009 36.5702L44.0059 36.5582L44.2048 37.2052H43.7958L43.9958 36.5582ZM41.4319 40.4402L40.9568 38.6962H41.9539L41.4319 40.4402ZM46.5699 40.4402L46.0489 38.6962H47.0449L46.5699 40.4402Z" fill="#20A556"/>
</svg>
