<svg width="58" height="58" viewBox="0 0 58 58" fill="none" xmlns="http://www.w3.org/2000/svg">
<path d="M57 1H1V57H57V1Z" stroke="black" stroke-width="0.01" stroke-miterlimit="10"/>
<path d="M28 42H12C9.791 42 8 40.209 8 38V17C8 14.791 9.791 13 12 13H40C42.209 13 44 14.791 44 17V26" stroke="#303E47" stroke-width="2" stroke-miterlimit="10"/>
<path d="M9 20H44" stroke="#303E47" stroke-width="2" stroke-miterlimit="10"/>
<path d="M16 15V10" stroke="#303E47" stroke-width="2" stroke-miterlimit="10" stroke-linecap="round"/>
<path d="M26 15V10" stroke="#303E47" stroke-width="2" stroke-miterlimit="10" stroke-linecap="round"/>
<path d="M36 15V10" stroke="#303E47" stroke-width="2" stroke-miterlimit="10" stroke-linecap="round"/>
<path d="M38.833 43.4991H45.5V43.915C45.5 45.066 46.433 45.9991 47.583 45.9991C48.734 45.9991 49.667 45.066 49.667 43.915V43.4991V42.2491V36.8331C49.667 36.8331 49.667 34.68 48.833 32.665L46.333 27.665C46.333 27.665 45.5 25.998 43.833 25.998H38.833H33.833C32.167 25.998 31.333 27.665 31.333 27.665L28.833 32.665C28 34.68 28 36.8331 28 36.8331V42.2491V43.4991V43.915C28 45.066 28.933 45.9991 30.083 45.9991C31.234 45.9991 32.167 45.066 32.167 43.915V43.4991H38.833Z" stroke="#20A556" stroke-width="3" stroke-miterlimit="10" stroke-linejoin="round"/>
<path d="M28.833 33.5H48.833" stroke="#20A556" stroke-width="2" stroke-miterlimit="10" stroke-linejoin="round"/>
<path d="M28.833 34.75C28.833 35.44 28.273 36 27.583 36H25.917C25.227 36 24.667 35.44 24.667 34.75C24.667 34.06 25.227 33.5 25.917 33.5H27.583C28.273 33.5 28.833 34.06 28.833 34.75Z" fill="#20A556"/>
<path d="M53 34.75C53 35.44 52.44 36 51.75 36H50.083C49.394 36 48.833 35.44 48.833 34.75C48.833 34.06 49.394 33.5 50.083 33.5H51.75C52.44 33.5 53 34.06 53 34.75Z" fill="#20A556"/>
<path d="M33.161 36.787C33.158 36.776 33.153 36.766 33.148 36.759C32.938 36.203 32.406 35.832 31.815 35.832C31.026 35.832 30.384 36.474 30.384 37.263C30.384 38.05 31.026 38.693 31.815 38.693H33.573C33.627 38.693 33.677 38.667 33.708 38.623C33.74 38.58 33.748 38.523 33.73 38.473L33.161 36.787Z" fill="#20A556"/>
<path d="M44.5581 36.787C44.5611 36.776 44.5661 36.766 44.5711 36.759C44.7811 36.203 45.313 35.832 45.904 35.832C46.693 35.832 47.335 36.474 47.335 37.263C47.335 38.05 46.693 38.693 45.904 38.693H44.146C44.092 38.693 44.042 38.667 44.011 38.623C43.979 38.58 43.9711 38.523 43.9891 38.473L44.5581 36.787Z" fill="#20A556"/>
<path d="M36.333 40.1641H41.333" stroke="#20A556" stroke-width="2" stroke-miterlimit="10" stroke-linecap="round" stroke-linejoin="round"/>
<path d="M15 29L18 32L24 26" stroke="#303E47" stroke-width="2" stroke-miterlimit="10" stroke-linecap="round"/>
</svg>
