<svg width="58" height="58" viewBox="0 0 58 58" fill="none" xmlns="http://www.w3.org/2000/svg">
<path d="M57 1H1V57H57V1Z" stroke="black" stroke-width="0.01" stroke-miterlimit="10"/>
<path d="M37 43.7598H21H19C16.791 43.7598 15 41.9688 15 39.7598V14.7598C15 12.5508 16.791 10.7598 19 10.7598H39C41.209 10.7598 43 12.5508 43 14.7598V31.0098" stroke="#303E47" stroke-width="2" stroke-miterlimit="10"/>
<path d="M21 18.7598H37" stroke="#303E47" stroke-width="2" stroke-miterlimit="10" stroke-linecap="round"/>
<path d="M21 23.7598H37" stroke="#303E47" stroke-width="2" stroke-miterlimit="10" stroke-linecap="round"/>
<path d="M33.3799 48.2508H36.5989C45.1719 48.2508 46.8959 41.3118 47.2419 38.5948H50.5479C50.9979 38.5948 51.3999 38.3148 51.5549 37.8938C51.7099 37.4728 51.5879 36.9987 51.2459 36.7057L43.7349 30.2678C43.5349 30.0958 43.2859 30.0098 43.0369 30.0098C42.7889 30.0098 42.5399 30.0958 42.3399 30.2678L34.8289 36.7057C34.4869 36.9987 34.3639 37.4728 34.5199 37.8938C34.6749 38.3148 35.0769 38.5948 35.5259 38.5948H38.7299C38.7289 38.5948 39.2149 46.3778 33.3799 48.2508Z" stroke="#20A556" stroke-width="3" stroke-miterlimit="10" stroke-linejoin="round"/>
</svg>
