<svg width="242" height="158" viewBox="0 0 242 158" fill="none" xmlns="http://www.w3.org/2000/svg">
<path d="M230.286 1H11.7143C5.79612 1 1 5.7809 1 11.6782V25.9326V146.321C1 152.219 5.79703 157 11.7152 157H230.287C236.205 157 241 152.219 241 146.321V25.9326V11.6782C241 5.7809 236.203 1 230.286 1Z" fill="white" stroke="#666666" stroke-width="2" stroke-miterlimit="10" stroke-linecap="round" stroke-linejoin="round"/>
<path d="M74.0073 43.168H15.5044V114.828H74.0073V43.168Z" stroke="#A6A6A7" stroke-width="2" stroke-miterlimit="10" stroke-linecap="round" stroke-linejoin="round"/>
<path d="M29.2138 70.2233C29.2138 70.2233 26.0879 58.313 30.7625 52.8227C35.438 47.3315 41.1963 46.3335 50.381 48.2476C59.563 50.1609 57.8096 42.6717 59.563 51.3247C61.3174 59.9786 60.8194 66.3249 59.8682 70.2242L59.5603 70.278C58.6959 70.3353 57.9128 74.1218 57.9128 74.1218C57.8306 71.949 59.2304 67.6954 57.477 66.6345C56.1996 65.8622 57.7265 62.5584 56.725 61.1843C55.7245 59.8101 54.5367 59.3803 51.6328 60.2281C49.3175 60.9056 44.536 61.1424 44.536 61.1424C44.536 61.1424 39.7572 60.9056 37.4409 60.2281C34.5371 59.3793 33.352 59.8101 32.3478 61.1843C31.3464 62.5593 32.875 65.8631 31.5977 66.6345C29.8442 67.6954 31.2431 71.949 31.16 74.1218C31.16 74.1218 30.3797 70.3353 29.5162 70.278L29.2138 70.2233Z" stroke="#A6A6A7" stroke-miterlimit="10" stroke-linecap="round" stroke-linejoin="round"/>
<path d="M59.2314 72.623C57.6397 92.2593 44.5369 93.0197 44.5369 93.0197C44.5369 93.0197 31.0348 92.527 29.8442 72.623" stroke="#A6A6A7" stroke-miterlimit="10" stroke-linecap="round" stroke-linejoin="round"/>
<path d="M29.2139 70.2226C29.2139 70.2226 27.3819 69.6699 27.9255 72.624C28.4674 75.5772 28.376 79.4165 30.7791 79.0559" stroke="#A6A6A7" stroke-miterlimit="10" stroke-linecap="round" stroke-linejoin="round"/>
<path d="M59.8616 70.2226C59.8616 70.2226 61.6927 69.6699 61.1499 72.624C60.6063 75.5772 60.6986 79.4165 58.2964 79.0559" stroke="#A6A6A7" stroke-miterlimit="10" stroke-linecap="round" stroke-linejoin="round"/>
<path d="M55.1077 86.2227V91.6893C55.1077 93.638 53.389 95.351 53.389 95.351C50.0101 99.2494 44.461 101.553 44.461 101.553C44.461 101.553 38.9111 99.2503 35.533 95.351C35.533 95.351 33.8125 93.6371 33.8125 91.6893V86.2227" stroke="#A6A6A7" stroke-miterlimit="10" stroke-linecap="round" stroke-linejoin="round"/>
<path d="M33.8114 88.498C33.8114 88.498 33.2787 88.498 32.9818 89.2666C32.6857 90.0343 30.6116 92.3373 31.5025 95.5292C32.3924 98.7182 35.5914 104.686 37.8437 106.576C37.8437 106.576 42.0514 102.745 44.4599 101.553" stroke="#A6A6A7" stroke-miterlimit="10" stroke-linecap="round" stroke-linejoin="round"/>
<path d="M55.1076 88.498C55.1076 88.498 55.6422 88.498 55.9373 89.2666C56.2352 90.0343 58.3084 92.3373 57.4203 95.5292C56.5303 98.7182 53.3286 104.686 51.0772 106.576C51.0772 106.576 46.8695 102.745 44.4609 101.553" stroke="#A6A6A7" stroke-miterlimit="10" stroke-linecap="round" stroke-linejoin="round"/>
<path d="M31.7886 91.5137C31.7886 91.5137 24.5455 95.393 19.4881 97.5385C17.5172 98.3754 17.3938 98.2597 15.2822 99.0311" stroke="#A6A6A7" stroke-miterlimit="10" stroke-linecap="round" stroke-linejoin="round"/>
<path d="M57.1318 91.5137C57.1318 91.5137 64.3767 95.393 69.4351 97.5385C71.8245 98.5539 71.533 98.1286 74.0074 99.1422" stroke="#A6A6A7" stroke-miterlimit="10" stroke-linecap="round" stroke-linejoin="round"/>
<path d="M46.9136 80.0304C46.9136 80.0304 46.4768 79.7554 45.7678 80.0304C45.0551 80.3073 44.5818 80.3073 44.0665 80.3073C43.552 80.3073 43.0796 80.3073 42.3688 80.0304C41.657 79.7554 41.222 80.0304 41.222 80.0304C40.9854 80.3665 42.0718 80.2281 42.8019 80.5832C43.5337 80.9365 44.0665 80.9575 44.0665 80.9575C44.0665 80.9575 44.6019 80.9365 45.332 80.5832C46.0657 80.2281 47.1493 80.3665 46.9136 80.0304Z" fill="#A6A6A7"/>
<path d="M43.2256 58.9883C43.2256 58.9883 49.6847 58.6932 51.4043 54.6172" stroke="#A6A6A7" stroke-miterlimit="10" stroke-linecap="round" stroke-linejoin="round"/>
<path d="M47.3154 59.2226C47.3154 59.2226 51.6419 59.1052 53.4218 54.3789" stroke="#A6A6A7" stroke-miterlimit="10" stroke-linecap="round" stroke-linejoin="round"/>
<path d="M51.6538 58.988C51.6538 58.988 55.9209 57.0383 56.693 53.0215" stroke="#A6A6A7" stroke-miterlimit="10" stroke-linecap="round" stroke-linejoin="round"/>
<path d="M30.376 59.695C30.376 59.695 31.3235 55.1463 37.7835 58.8089" stroke="#A6A6A7" stroke-miterlimit="10" stroke-linecap="round" stroke-linejoin="round"/>
<path d="M39.9237 83.8701C40.3285 83.9903 41.318 84.3208 42.1541 84.1678C42.9911 84.0158 43.8015 83.8364 44.0665 84.0385C44.3342 83.8354 45.1438 84.0158 45.9808 84.1678C46.8177 84.3208 47.8055 83.9903 48.2103 83.8701C48.6169 83.7453 48.6169 83.2581 47.7552 83.5686C46.8918 83.8764 46.1827 83.7134 45.5002 83.6142C44.8139 83.5131 44.0665 83.6142 44.0665 83.6142C44.0665 83.6142 43.3191 83.5131 42.6356 83.6142C41.9531 83.7134 41.2431 83.8764 40.3787 83.5686C39.518 83.2581 39.518 83.7453 39.9237 83.8701Z" fill="#A6A6A7"/>
<path d="M47.2888 105.336L48.0344 104.001C47.0439 103.195 44.4599 101.553 44.4599 101.553C44.4599 101.553 41.875 103.195 40.8845 104.001L41.6319 105.336L40.5684 114.828H48.3524L47.2888 105.336Z" fill="#A6A6A7"/>
<path d="M90.6444 17.7831C90.6444 19.3212 91.4503 21.1133 93.116 21.8828L92.311 23.0266C91.1853 22.5103 90.3904 21.4986 89.9381 20.3011C89.4867 21.6197 88.6699 22.7297 87.5113 23.2798L86.6953 22.1242C88.361 21.3556 89.1889 19.4532 89.1889 17.7822V17.2221H87.0818V16.0238H92.6619V17.2221H90.6435V17.7831H90.6444ZM96.3469 20.1135H94.8695V25.1812H93.413V15.0566H94.8695V18.915H96.3469V20.1135Z" fill="#666666"/>
<path d="M106.262 19.8154V20.9701H97.0732V19.8154H100.935V18.9803H98.1871V15.4844H105.159V16.6391H99.6335V17.8265H105.214V18.9813H102.39V19.8163H106.262V19.8154ZM105.159 23.3332C105.159 24.5207 103.824 25.1909 101.63 25.1909C99.4343 25.1909 98.1112 24.5207 98.1112 23.3332C98.1112 22.1357 99.4334 21.4637 101.63 21.4637C103.824 21.4637 105.159 22.1357 105.159 23.3332ZM103.681 23.3332C103.681 22.806 102.985 22.5628 101.63 22.5628C100.273 22.5628 99.5778 22.806 99.5778 23.3332C99.5778 23.8605 100.273 24.0909 101.63 24.0909C102.985 24.0909 103.681 23.8605 103.681 23.3332Z" fill="#666666"/>
<path d="M110.882 18.2119C110.882 19.6407 111.599 21.2781 113.188 22.0366L112.415 23.1358C111.334 22.6413 110.595 21.696 110.176 20.5741C109.735 21.7835 108.952 22.8061 107.816 23.3124L107.033 22.2005C108.677 21.4429 109.438 19.7281 109.438 18.211V17.8586H107.375V16.7039H109.438V15.2979H110.894V16.7039H112.901V17.8586H110.882V18.2119ZM116.64 20.1907H115.163V25.1811H113.707V15.0684H115.163V18.9923H116.64V20.1907Z" fill="#666666"/>
<path d="M126.555 19.9702V21.125H122.783V22.8606H121.295V21.125H117.355V19.9702H126.555ZM118.295 17.343C118.295 16.0672 119.76 15.2422 121.944 15.2422C124.14 15.2422 125.595 16.0663 125.595 17.343C125.595 18.6279 124.14 19.4421 121.944 19.4421C119.761 19.4421 118.295 18.6279 118.295 17.343ZM119.904 23.8496H125.552V25.0043H118.426V21.97H119.904V23.8496ZM119.872 17.343C119.872 17.9686 120.677 18.2874 121.945 18.2874C123.235 18.2874 124.029 17.9677 124.029 17.343C124.029 16.7165 123.235 16.3969 121.945 16.3969C120.677 16.3969 119.872 16.7156 119.872 17.343Z" fill="#666666"/>
<path d="M132.919 21.1342C131.805 20.7717 131.054 20.0459 130.613 19.1344C130.162 20.1343 129.368 20.9366 128.188 21.3318L127.449 20.1771C129.114 19.6389 129.841 18.3084 129.841 17.0326V16.8905H127.845V15.7359H133.304V16.8905H131.331V17.0235C131.331 18.221 132.026 19.464 133.626 20.0022L132.919 21.1342ZM136.227 23.8488V25.0035H129.3V21.8272H130.756V23.8497H136.227V23.8488ZM134.541 17.671V15.0547H135.997V22.4418H134.541V18.8466H132.953V17.671H134.541Z" fill="#666666"/>
<path d="M142.855 20.8154H138.068V15.8679H142.855V16.6492H144.686V15.0547H146.143V22.4309H144.686V19.9795H142.855V20.8154ZM146.363 23.8497V25.0044H139.436V21.7397H140.893V23.8497H146.363ZM141.433 17.0016H139.503V19.6735H141.433V17.0016ZM142.855 17.8049V18.8266H144.686V17.8049H142.855Z" fill="#666666"/>
<path d="M153.721 17.7265H147.797V16.5509H150.047V15.2314H151.503V16.5509H153.721V17.7265H153.721ZM153.213 20.6952C153.213 22.0912 152.164 23.113 150.763 23.113C149.373 23.113 148.326 22.0912 148.326 20.6952C148.326 19.2992 149.373 18.2775 150.763 18.2775C152.164 18.2766 153.213 19.2983 153.213 20.6952ZM151.878 20.6952C151.878 19.9476 151.392 19.4968 150.763 19.4968C150.144 19.4968 149.671 19.9476 149.671 20.6952C149.671 21.442 150.145 21.8927 150.763 21.8927C151.392 21.8927 151.878 21.442 151.878 20.6952ZM156.323 15.0547V25.1793H154.866V20.2099H153.531V19.0351H154.866V15.0547H156.323Z" fill="#666666"/>
<path d="M167.12 19.7272V20.8701H157.944V19.7272H167.12ZM158.34 18.2101C160.259 18.0453 161.252 17.3741 161.484 16.682H158.782V15.5273H166.293V16.682H163.579C163.811 17.3741 164.804 18.0453 166.734 18.2101L166.227 19.342C164.318 19.1663 163.061 18.4623 162.532 17.4952C161.991 18.4632 160.744 19.1663 158.825 19.342L158.34 18.2101ZM166.038 23.2997C166.038 24.4981 164.704 25.1793 162.51 25.1793C160.315 25.1793 158.99 24.4981 158.99 23.2997C158.99 22.1122 160.314 21.421 162.51 21.421C164.704 21.4201 166.038 22.1122 166.038 23.2997ZM164.561 23.2997C164.561 22.7724 163.867 22.5411 162.51 22.5411C161.153 22.5411 160.458 22.7724 160.458 23.2997C160.458 23.827 161.153 24.0692 162.51 24.0692C163.867 24.0692 164.561 23.827 164.561 23.2997Z" fill="#666666"/>
<path d="M88.4702 127.625C88.4702 125.736 89.1318 124.824 90.1734 124.824C91.2068 124.824 91.8684 125.744 91.8684 127.625C91.8684 129.515 91.2059 130.457 90.1734 130.457C89.1308 130.457 88.4702 129.515 88.4702 127.625ZM91.2068 127.625C91.2068 126.04 90.7893 125.372 90.1734 125.372C89.5466 125.372 89.1309 126.039 89.1309 127.625C89.1309 129.226 89.5466 129.917 90.1734 129.917C90.7893 129.916 91.2068 129.226 91.2068 127.625Z" fill="#666666"/>
<path d="M92.5977 127.625C92.5977 125.736 93.2592 124.824 94.299 124.824C95.3333 124.824 95.9949 125.744 95.9949 127.625C95.9949 129.515 95.3324 130.457 94.299 130.457C93.2592 130.457 92.5977 129.515 92.5977 127.625ZM95.3333 127.625C95.3333 126.04 94.9167 125.372 94.299 125.372C93.674 125.372 93.2583 126.039 93.2583 127.625C93.2583 129.226 93.674 129.917 94.299 129.917C94.9167 129.916 95.3333 129.226 95.3333 127.625Z" fill="#666666"/>
<path d="M96.7241 127.625C96.7241 125.736 97.3866 124.824 98.4273 124.824C99.4607 124.824 100.122 125.744 100.122 127.625C100.122 129.515 99.4598 130.457 98.4273 130.457C97.3866 130.457 96.7241 129.515 96.7241 127.625ZM99.4607 127.625C99.4607 126.04 99.045 125.372 98.4273 125.372C97.8023 125.372 97.3857 126.039 97.3857 127.625C97.3857 129.226 97.8023 129.917 98.4273 129.917C99.045 129.916 99.4607 129.226 99.4607 127.625Z" fill="#666666"/>
<path d="M100.852 127.625C100.852 125.736 101.514 124.824 102.555 124.824C103.589 124.824 104.249 125.744 104.249 127.625C104.249 129.515 103.588 130.457 102.555 130.457C101.514 130.457 100.852 129.515 100.852 127.625ZM103.589 127.625C103.589 126.04 103.171 125.372 102.555 125.372C101.928 125.372 101.514 126.039 101.514 127.625C101.514 129.226 101.928 129.917 102.555 129.917C103.171 129.916 103.589 129.226 103.589 127.625Z" fill="#666666"/>
<path d="M105.157 129.947C105.157 129.642 105.38 129.42 105.648 129.42C105.916 129.42 106.139 129.642 106.139 129.947C106.139 130.25 105.916 130.458 105.648 130.458C105.381 130.457 105.157 130.25 105.157 129.947Z" fill="#666666"/>
<path d="M108.712 127.625C108.712 125.736 109.374 124.824 110.413 124.824C111.449 124.824 112.11 125.744 112.11 127.625C112.11 129.515 111.449 130.457 110.413 130.457C109.374 130.457 108.712 129.515 108.712 127.625ZM111.449 127.625C111.449 126.04 111.032 125.372 110.413 125.372C109.789 125.372 109.373 126.039 109.373 127.625C109.373 129.226 109.789 129.917 110.413 129.917C111.032 129.916 111.449 129.226 111.449 127.625Z" fill="#666666"/>
<path d="M112.839 127.625C112.839 125.736 113.501 124.824 114.542 124.824C115.575 124.824 116.237 125.744 116.237 127.625C116.237 129.515 115.574 130.457 114.542 130.457C113.5 130.457 112.839 129.515 112.839 127.625ZM115.575 127.625C115.575 126.04 115.159 125.372 114.542 125.372C113.917 125.372 113.5 126.039 113.5 127.625C113.5 129.226 113.917 129.917 114.542 129.917C115.159 129.916 115.575 129.226 115.575 127.625Z" fill="#666666"/>
<path d="M117.145 129.947C117.145 129.642 117.368 129.42 117.635 129.42C117.903 129.42 118.126 129.642 118.126 129.947C118.126 130.25 117.903 130.458 117.635 130.458C117.368 130.457 117.145 130.25 117.145 129.947Z" fill="#666666"/>
<path d="M120.699 127.625C120.699 125.736 121.361 124.824 122.401 124.824C123.435 124.824 124.096 125.744 124.096 127.625C124.096 129.515 123.434 130.457 122.401 130.457C121.361 130.457 120.699 129.515 120.699 127.625ZM123.435 127.625C123.435 126.04 123.019 125.372 122.401 125.372C121.777 125.372 121.36 126.039 121.36 127.625C121.36 129.226 121.777 129.917 122.401 129.917C123.019 129.916 123.435 129.226 123.435 127.625Z" fill="#666666"/>
<path d="M124.826 127.625C124.826 125.736 125.489 124.824 126.529 124.824C127.564 124.824 128.224 125.744 128.224 127.625C128.224 129.515 127.563 130.457 126.529 130.457C125.488 130.457 124.826 129.515 124.826 127.625ZM127.564 127.625C127.564 126.04 127.146 125.372 126.529 125.372C125.903 125.372 125.488 126.039 125.488 127.625C125.488 129.226 125.903 129.917 126.529 129.917C127.146 129.916 127.564 129.226 127.564 127.625Z" fill="#666666"/>
<path d="M139.922 127.67C139.922 124.791 141.539 123.119 143.887 123.119C146.237 123.119 147.854 124.804 147.854 127.67C147.854 130.535 146.237 132.291 143.887 132.291C141.539 132.291 139.922 130.535 139.922 127.67ZM146.044 127.67C146.044 125.771 145.205 124.636 143.887 124.636C142.571 124.636 141.731 125.771 141.731 127.67C141.731 129.557 142.571 130.762 143.887 130.762C145.206 130.762 146.044 129.557 146.044 127.67Z" fill="black"/>
<path d="M149.152 127.67C149.152 124.791 150.771 123.119 153.119 123.119C155.467 123.119 157.085 124.804 157.085 127.67C157.085 130.535 155.467 132.291 153.119 132.291C150.771 132.291 149.152 130.535 149.152 127.67ZM155.275 127.67C155.275 125.771 154.436 124.636 153.119 124.636C151.801 124.636 150.962 125.771 150.962 127.67C150.962 129.557 151.801 130.762 153.119 130.762C154.436 130.762 155.275 129.557 155.275 127.67Z" fill="black"/>
<path d="M165.237 125.113C165.237 126.904 166.123 128.803 167.969 129.568L167.105 130.81C165.823 130.26 164.95 129.185 164.458 127.859C163.966 129.293 163.079 130.498 161.785 131.084L160.887 129.831C162.732 129.007 163.63 126.989 163.63 125.113V124.503H161.33V123.201H167.514V124.503H165.237V125.113H165.237ZM170.114 122.15V133.15H168.532V122.15H170.114Z" fill="black"/>
<path d="M177.605 128.016H172.321V122.856H173.879V124.217H176.048V122.856H177.605V128.016ZM180.805 131.025C180.805 132.362 179.368 133.164 177.067 133.164C174.778 133.164 173.339 132.362 173.339 131.025C173.339 129.677 174.778 128.876 177.067 128.876C179.368 128.876 180.805 129.677 180.805 131.025ZM176.048 125.424H173.879V126.786H176.048V125.424ZM179.236 131.025C179.236 130.404 178.482 130.106 177.068 130.106C175.666 130.106 174.911 130.404 174.911 131.025C174.911 131.646 175.666 131.945 177.068 131.945C178.481 131.945 179.236 131.646 179.236 131.025ZM182.147 124.719V126.009H180.685V128.636H179.105V122.164H180.685V124.72H182.147V124.719Z" fill="black"/>
<path d="M188.383 125.148C187.7 126.879 186.155 128.061 183.722 128.743L183.111 127.5C185.627 126.833 186.837 125.651 187.041 124.157H183.709V122.891H188.766C188.766 123.237 188.742 123.572 188.695 123.894H190.671V122.15H192.253V128.48H190.671V127.43H188.24V126.163H190.671V125.148H188.383ZM192.327 130.857C192.327 132.231 190.854 133.09 188.612 133.09C186.359 133.09 184.885 132.231 184.885 130.857C184.885 129.484 186.359 128.623 188.612 128.623C190.854 128.622 192.327 129.484 192.327 130.857ZM190.769 130.857C190.769 130.189 189.966 129.844 188.612 129.844C187.245 129.844 186.443 130.189 186.443 130.857C186.443 131.525 187.245 131.872 188.612 131.872C189.966 131.872 190.769 131.525 190.769 130.857Z" fill="black"/>
<path d="M199.998 127.765C198.741 127.478 197.854 126.87 197.35 126.08C196.861 126.963 195.949 127.645 194.643 127.943L193.96 126.737C195.686 126.354 196.477 125.363 196.524 124.336H194.369V123.094H196.524V122.127H198.106V123.094H200.287V124.336H198.106C198.154 125.267 198.945 126.212 200.658 126.569L199.998 127.765ZM197.04 131.885H203.067V133.067H195.471V130.118H201.186V129.497H195.458V128.301H202.744V131.228H197.041V131.885H197.04ZM204.192 124.349V125.638H202.743V127.848H201.161V122.151H202.743V124.349H204.192Z" fill="black"/>
<path d="M210.992 128.445C209.757 128.123 208.894 127.442 208.392 126.569C207.9 127.573 207.037 128.349 205.756 128.719L205.013 127.5C206.762 126.999 207.529 125.757 207.552 124.528H205.396V123.285H207.552V122.115H209.133V123.285H211.315V124.528H209.133C209.157 125.662 209.949 126.772 211.709 127.239L210.992 128.445ZM214.358 131.072C214.358 132.386 212.92 133.15 210.584 133.15C208.234 133.15 206.796 132.386 206.796 131.072C206.796 129.746 208.234 128.982 210.584 128.982C212.92 128.982 214.358 129.746 214.358 131.072ZM212.777 131.072C212.777 130.476 212.022 130.188 210.585 130.188C209.123 130.188 208.38 130.475 208.38 131.072C208.38 131.67 209.123 131.945 210.585 131.945C212.022 131.945 212.777 131.669 212.777 131.072ZM212.728 125.09V122.151H214.31V128.79H212.728V126.354H211.015V125.089H212.728V125.09Z" fill="black"/>
<path d="M221.935 128.361C220.725 128.002 219.887 127.275 219.406 126.367C218.916 127.452 218.041 128.325 216.747 128.743L215.956 127.512C217.742 126.916 218.532 125.519 218.556 124.146H216.364V122.878H222.332V124.146H220.175C220.198 125.399 220.955 126.63 222.692 127.143L221.935 128.361ZM224.919 131.024C224.919 132.361 223.483 133.15 221.193 133.15C218.891 133.15 217.454 132.361 217.454 131.024C217.454 129.676 218.891 128.875 221.193 128.875C223.482 128.875 224.919 129.676 224.919 131.024ZM223.35 131.024C223.35 130.392 222.595 130.093 221.193 130.093C219.779 130.093 219.024 130.392 219.024 131.024C219.024 131.645 219.779 131.944 221.193 131.944C222.595 131.944 223.35 131.645 223.35 131.024ZM226.261 124.683V125.972H224.799V128.683H223.218V122.15H224.799V124.683H226.261Z" fill="black"/>
<path d="M97.9575 69.8741V70.7748H86.6968V69.8741H91.7707V68.9043C89.5467 68.8205 88.3095 68.2113 88.3095 67.144C88.3095 65.9656 89.755 65.3564 92.3408 65.3564C94.8993 65.3564 96.3585 65.9656 96.3585 67.144C96.3585 68.2113 95.1076 68.8205 92.9119 68.9043V69.8741H97.9575ZM97.317 64.872H87.2797V63.985H91.7698V62.7656H92.911V63.985H97.317V64.872ZM96.5951 73.4621C96.5951 74.6951 95.0381 75.3462 92.3399 75.3462C89.6161 75.3462 88.0582 74.6951 88.0582 73.4621C88.0582 72.2017 89.6152 71.5497 92.3399 71.5497C95.0381 71.5506 96.5951 72.2017 96.5951 73.4621ZM95.4265 73.4621C95.4265 72.7691 94.3282 72.3948 92.3399 72.3948C90.3389 72.3948 89.226 72.7691 89.226 73.4621C89.226 74.1405 90.3389 74.502 92.3399 74.502C94.3282 74.502 95.4265 74.1405 95.4265 73.4621ZM92.3399 68.1139C94.1336 68.1139 95.1487 67.7678 95.1487 67.144C95.1487 66.5211 94.1336 66.1742 92.3399 66.1742C90.5189 66.1742 89.5037 66.5221 89.5037 67.144C89.5046 67.7678 90.5189 68.1139 92.3399 68.1139Z" fill="#666666"/>
<path d="M105.998 63.5418C105.998 66.7008 103.788 68.6951 100.116 69.5265L99.7007 68.6122C102.815 67.9329 104.58 66.4504 104.761 64.4688H100.326V63.5408H105.998V63.5418ZM110.142 74.3347V75.2344H101.674V72.0481H108.585V70.7741H101.648V69.8735H109.725V72.8932H102.816V74.3347H110.142ZM109.724 69.277H108.584V62.9316H109.724V69.277Z" fill="#666666"/>
<path d="M123.578 69.0704V69.9856H112.29V69.0704H117.364V67.6298H113.707V63.5H122.175V64.4143H114.848V66.7146H122.258V67.6298H118.504V69.0704H123.578ZM122.187 73.1164C122.187 74.5571 120.575 75.3612 117.933 75.3612C115.263 75.3612 113.651 74.5571 113.651 73.1164C113.651 71.6749 115.263 70.8717 117.933 70.8717C120.575 70.8726 122.187 71.6749 122.187 73.1164ZM121.033 73.1164C121.033 72.2431 119.879 71.7586 117.932 71.7586C115.959 71.7586 114.804 72.2431 114.804 73.1164C114.804 73.9888 115.959 74.4733 117.932 74.4733C119.88 74.4742 121.033 73.9888 121.033 73.1164Z" fill="#666666"/>
<path d="M86.6953 46.8139H89.1249V39.9759H87.0772V38.5908C88.2084 38.3777 88.9879 38.0881 89.706 37.6465H91.3718V46.8139H93.4952V48.6261H86.6953V46.8139Z" fill="black"/>
<path d="M94.8438 47.2703L95.8982 45.8533C96.5698 46.509 97.3958 47.0107 98.4191 47.0107C99.5659 47.0107 100.344 46.4616 100.344 45.5173C100.344 44.4518 99.6874 43.7962 97.2277 43.7962V42.1825C99.3055 42.1825 99.9779 41.4977 99.9779 40.5533C99.9779 39.7001 99.4279 39.1983 98.4657 39.1983C97.6553 39.1983 96.9992 39.5789 96.3258 40.2037L95.18 38.8331C96.1577 37.9799 97.2432 37.4316 98.5726 37.4316C100.758 37.4316 102.24 38.498 102.24 40.3858C102.24 41.5742 101.537 42.3965 100.36 42.8691V42.9447C101.629 43.2798 102.607 44.2096 102.607 45.6566C102.607 47.6664 100.788 48.8393 98.633 48.8393C96.8466 48.8393 95.6387 48.1691 94.8438 47.2703Z" fill="black"/>
<path d="M104.2 43.4629H108.371V45.062H104.2V43.4629Z" fill="black"/>
<path d="M110.361 46.8139H112.79V39.9759H110.743V38.5908C111.874 38.3777 112.653 38.0881 113.372 37.6465H115.036V46.8139H117.161V48.6261H110.361V46.8139Z" fill="black"/>
<path d="M119.365 46.8139H121.794V39.9759H119.747V38.5908C120.878 38.3777 121.657 38.0881 122.375 37.6465H124.041V46.8139H126.165V48.6261H119.365V46.8139Z" fill="black"/>
<path d="M127.865 43.4629H132.036V45.062H127.865V43.4629Z" fill="black"/>
<path d="M134.025 46.8139H136.455V39.9759H134.407V38.5908C135.539 38.3777 136.318 38.0881 137.036 37.6465H138.702V46.8139H140.825V48.6261H134.025V46.8139Z" fill="black"/>
<path d="M142.433 47.3313C145.384 44.5292 147.323 42.6105 147.323 40.9804C147.323 39.8685 146.712 39.1992 145.628 39.1992C144.803 39.1992 144.13 39.7474 143.55 40.3712L142.327 39.1528C143.367 38.0409 144.375 37.4316 145.919 37.4316C148.058 37.4316 149.479 38.7867 149.479 40.8584C149.479 42.7771 147.706 44.7569 145.69 46.8596C146.255 46.7986 147.004 46.7366 147.538 46.7366H150.013V48.6253H142.434V47.3313H142.433Z" fill="black"/>
<path d="M151.179 47.2703L152.233 45.8533C152.905 46.509 153.731 47.0107 154.755 47.0107C155.901 47.0107 156.679 46.4616 156.679 45.5173C156.679 44.4518 156.022 43.7962 153.563 43.7962V42.1825C155.64 42.1825 156.313 41.4977 156.313 40.5533C156.313 39.7001 155.763 39.1983 154.801 39.1983C153.99 39.1983 153.334 39.5789 152.661 40.2037L151.515 38.8331C152.493 37.9799 153.578 37.4316 154.908 37.4316C157.093 37.4316 158.575 38.498 158.575 40.3858C158.575 41.5742 157.872 42.3965 156.695 42.8691V42.9447C157.964 43.2798 158.942 44.2096 158.942 45.6566C158.942 47.6664 157.123 48.8393 154.968 48.8393C153.181 48.8393 151.974 48.1691 151.179 47.2703Z" fill="black"/>
<path d="M164.935 45.9006H160.106V44.3625L164.323 37.6465H167.028V44.1804H168.357V45.9015H167.028V48.627H164.935V45.9006ZM164.935 44.1794V41.9866C164.935 41.3309 164.98 40.2965 165.011 39.6408H164.95C164.675 40.2345 164.37 40.7982 164.049 41.4074L162.291 44.1794H164.935Z" fill="black"/>
<path d="M169.187 47.3021L170.227 45.8705C170.868 46.4952 171.662 47.0134 172.718 47.0134C173.894 47.0134 174.72 46.3277 174.72 45.0946C174.72 43.8762 173.955 43.1905 172.809 43.1905C172.136 43.1905 171.769 43.359 171.113 43.7842L170.09 43.1295L170.395 37.6465H176.447V39.5197H172.336L172.122 41.911C172.581 41.7125 172.962 41.606 173.481 41.606C175.377 41.606 176.966 42.6723 176.966 45.0172C176.966 47.4387 175.102 48.8401 173.008 48.8401C171.219 48.8401 170.028 48.1399 169.187 47.3021Z" fill="black"/>
<path d="M178.542 43.4319C178.542 39.2438 180.636 37.4316 182.928 37.4316C184.304 37.4316 185.312 38.0108 185.985 38.7111L184.792 40.0516C184.395 39.6099 183.707 39.2438 183.051 39.2438C181.751 39.2438 180.682 40.2036 180.591 43.0357C181.218 42.259 182.18 41.8028 182.914 41.8028C184.808 41.8028 186.168 42.8846 186.168 45.184C186.168 47.4378 184.549 48.8393 182.609 48.8393C180.468 48.8384 178.542 47.1938 178.542 43.4319ZM180.65 44.5893C180.864 46.447 181.628 47.1482 182.561 47.1482C183.417 47.1482 184.104 46.4926 184.104 45.184C184.104 43.951 183.462 43.3864 182.484 43.3864C181.905 43.3864 181.217 43.706 180.65 44.5893Z" fill="black"/>
<path d="M187.546 43.4629H191.718V45.062H187.546V43.4629Z" fill="black"/>
<path d="M198.307 39.5197H193.218V37.6465H200.737V39.017C198.169 42.1396 197.756 44.3479 197.573 48.627H195.296C195.496 44.8351 196.198 42.4438 198.307 39.5197Z" fill="black"/>
<path d="M202.177 45.8232C202.177 44.4682 203.078 43.6003 204.118 43.0512V42.9911C203.261 42.3664 202.619 41.5596 202.619 40.4013C202.619 38.59 204.071 37.4316 206.026 37.4316C208.028 37.4316 209.312 38.62 209.312 40.4168C209.312 41.4986 208.578 42.381 207.86 42.8837V42.9602C208.884 43.5384 209.755 44.3453 209.755 45.8232C209.755 47.5289 208.242 48.8393 205.95 48.8393C203.797 48.8384 202.177 47.5899 202.177 45.8232ZM207.663 45.7468C207.663 44.6503 206.608 44.2542 205.156 43.6605C204.561 44.1331 204.118 44.8033 204.118 45.5792C204.118 46.5991 204.958 47.2548 206.012 47.2548C206.975 47.2548 207.663 46.7211 207.663 45.7468ZM207.479 40.5688C207.479 39.6545 206.929 39.0153 205.981 39.0153C205.218 39.0153 204.606 39.5025 204.606 40.4004C204.606 41.4057 205.493 41.8783 206.67 42.3346C207.189 41.7873 207.479 41.1935 207.479 40.5688Z" fill="black"/>
<path d="M192.688 88.2637C192.688 90.2753 191.051 91.9063 189.033 91.9063H90.3507C88.3323 91.9063 86.6958 90.2753 86.6958 88.2637C86.6958 86.2521 88.3323 84.6211 90.3507 84.6211H189.033C191.051 84.6211 192.688 86.2521 192.688 88.2637Z" fill="#CBCCCC"/>
<path d="M192.688 101.924C192.688 103.935 191.051 105.566 189.033 105.566H90.3507C88.3323 105.566 86.6958 103.935 86.6958 101.924C86.6958 99.9122 88.3323 98.2812 90.3507 98.2812H189.033C191.051 98.2812 192.688 99.9122 192.688 101.924Z" fill="#CBCCCC"/>
<rect x="106.638" y="29.5" width="111.151" height="27" rx="4.5" stroke="#20A556" stroke-width="3"/>
<rect x="137.679" y="114.5" width="22.0332" height="27" rx="4.5" stroke="#20A556" stroke-width="3"/>
</svg>
