<svg width="58" height="58" viewBox="0 0 58 58" fill="none" xmlns="http://www.w3.org/2000/svg">
<path d="M57 1H1V57H57V1Z" stroke="black" stroke-width="0.01" stroke-miterlimit="10"/>
<path d="M49.834 31C49.943 30.35 50 29.682 50 29C50 22.373 44.627 17 38 17H24.48L20.781 12.375C20.587 12.133 20.298 12 20 12C19.89 12 19.777 12.019 19.669 12.056C19.269 12.197 19 12.575 19 13V17.385C15.129 18.385 12.02 21.267 10.697 25H8V33H10.697C12.131 37.049 15.669 40.102 20 40.83V43C20 44.656 21.343 46 23 46C24.657 46 26 44.656 26 43V41H33" stroke="#303E47" stroke-width="2" stroke-miterlimit="10" stroke-linejoin="round"/>
<path d="M18 26C18.5523 26 19 25.5523 19 25C19 24.4477 18.5523 24 18 24C17.4477 24 17 24.4477 17 25C17 25.5523 17.4477 26 18 26Z" fill="#303E47"/>
<path d="M27 21H38" stroke="#303E47" stroke-width="2" stroke-miterlimit="10" stroke-linecap="round" stroke-linejoin="round"/>
<path d="M42 46.4707C47.5228 46.4707 52 41.9936 52 36.4707C52 30.9479 47.5228 26.4707 42 26.4707C36.4772 26.4707 32 30.9479 32 36.4707C32 41.9936 36.4772 46.4707 42 46.4707Z" stroke="#20A556" stroke-width="3" stroke-miterlimit="10"/>
<path d="M48.2068 36.1544H47.0439L47.4919 34.6124C47.5589 34.4224 47.6148 34.2664 47.6628 34.1474C47.7088 34.0284 47.7909 33.9384 47.9109 33.8774C48.0569 33.8184 48.1838 33.7644 48.2958 33.7174C48.4108 33.6694 48.4669 33.5804 48.4669 33.4474C48.4669 33.2224 48.2878 33.1074 47.9308 33.1074H46.2798L45.4508 36.1534H43.6039L42.7209 33.1974H42.0009H41.2809L40.3979 36.1534H38.5489L37.7218 33.1074H36.0718C35.7138 33.1074 35.5349 33.2224 35.5349 33.4474C35.5349 33.5804 35.5898 33.6694 35.7048 33.7174C35.8158 33.7644 35.9449 33.8194 36.0919 33.8774C36.2099 33.9384 36.2928 34.0274 36.3388 34.1474C36.3848 34.2674 36.4409 34.4214 36.5089 34.6124L36.9589 36.1544H35.7939C35.3819 36.1544 35.0479 36.4874 35.0479 36.8994C35.0479 37.3114 35.3819 37.6454 35.7939 37.6454H37.3929L38.7159 42.1824H39.9298L41.3339 37.6454H42.6678L44.0718 42.1824H45.2859L46.6089 37.6454H48.2068C48.6188 37.6454 48.9518 37.3114 48.9518 36.8994C48.9518 36.4874 48.6188 36.1544 48.2068 36.1544ZM41.9958 35.5074L42.0009 35.5194L42.0059 35.5074L42.2048 36.1544H41.7958L41.9958 35.5074ZM39.4319 39.3904L38.9568 37.6464H39.9539L39.4319 39.3904ZM44.5699 39.3904L44.0489 37.6464H45.0449L44.5699 39.3904Z" fill="#20A556"/>
</svg>
