<svg width="58" height="58" viewBox="0 0 58 58" fill="none" xmlns="http://www.w3.org/2000/svg">
<path d="M57 1H1V57H57V1Z" stroke="black" stroke-width="0.01" stroke-miterlimit="10"/>
<path d="M25 18C27.7614 18 30 15.7614 30 13C30 10.2386 27.7614 8 25 8C22.2386 8 20 10.2386 20 13C20 15.7614 22.2386 18 25 18Z" stroke="#303E47" stroke-width="2" stroke-miterlimit="10"/>
<path d="M10.762 42V26.381C10.762 23.962 12.724 22 15.143 22H34.858C37.277 22 39.239 23.961 39.239 26.381V30" stroke="#303E47" stroke-width="2" stroke-miterlimit="10"/>
<path d="M22.314 34C22.314 31.791 23.977 30 26.029 30H43.314C45.366 30 47.029 31.791 47.029 34V42C47.029 44.209 45.366 46 43.314 46H26.029C23.977 46 22.314 44.209 22.314 42V34Z" stroke="#20A556" stroke-width="3" stroke-miterlimit="10"/>
<path d="M33.0346 35.3599L33.1226 35.4074C33.2882 35.1008 33.4736 34.9757 33.6732 34.9757C33.8842 34.9757 34.0754 35.1027 34.2451 35.4081C34.4102 35.7106 34.4971 36.0967 34.4971 36.5716C34.4971 37.0222 34.4105 37.3921 34.2455 37.6874C34.0775 37.986 33.8852 38.1118 33.6732 38.1118C33.4727 38.1118 33.2875 37.9882 33.1222 37.6881L33.1222 37.688C32.9594 37.3928 32.8752 37.0227 32.8752 36.5716C32.8752 36.0962 32.9597 35.7098 33.1226 35.4073L33.0346 35.3599ZM33.0346 35.3599C33.2087 35.0375 33.4212 34.8757 33.6732 34.8757C33.935 34.8757 34.1536 35.0375 34.3327 35.3599C34.5081 35.681 34.5971 36.0849 34.5971 36.5716C34.5971 37.0347 34.5081 37.4226 34.3327 37.7363C34.1549 38.0525 33.935 38.2118 33.6732 38.2118C33.4212 38.2118 33.2087 38.0525 33.0346 37.7363C32.8617 37.4226 32.7752 37.0347 32.7752 36.5716C32.7752 36.0849 32.8617 35.681 33.0346 35.3599ZM32.1805 34.9199L32.1805 34.92C31.8516 35.3941 31.6883 35.9455 31.6883 36.5716C31.6883 37.1821 31.8519 37.7226 32.181 38.188C32.519 38.6672 33.0263 38.9035 33.6868 38.9035C34.3357 38.9035 34.8418 38.6667 35.1904 38.1893L35.1907 38.1888C35.5262 37.7235 35.695 37.1828 35.695 36.5716C35.695 35.9453 35.5305 35.3936 35.1963 34.9194L35.1963 34.9193C34.8537 34.4344 34.3441 34.1952 33.6868 34.1952C33.0271 34.1952 32.5183 34.4343 32.1805 34.9199ZM37.7454 33.9H37.6802L37.6539 33.9597L34.1264 41.9597L34.0645 42.1H34.2179H35.0763H35.1417L35.1679 42.0401L38.672 34.0401L38.7334 33.9H38.5804H37.7454ZM37.6189 37.8509L37.6184 37.8516C37.2913 38.3301 37.1267 38.8812 37.1267 39.5075C37.1267 40.1193 37.2902 40.6586 37.6193 41.1251L37.6194 41.1254C37.9586 41.6031 38.4658 41.8394 39.1251 41.8394C39.7762 41.8394 40.2815 41.604 40.6277 41.1261C40.9658 40.6595 41.1334 40.1199 41.1334 39.5075C41.1334 38.8812 40.9688 38.3297 40.6349 37.8508L40.6348 37.8506C40.2924 37.362 39.7841 37.12 39.1251 37.12C38.466 37.12 37.9588 37.362 37.6189 37.8509ZM38.5732 38.3446L38.5735 38.3442C38.7386 38.0351 38.9206 37.9116 39.1103 37.9116C39.3212 37.9116 39.5124 38.0386 39.6822 38.3453C39.8473 38.6464 39.9341 39.0338 39.9341 39.5075C39.9341 39.958 39.8477 40.3292 39.6826 40.6258C39.5148 40.9228 39.3226 41.0477 39.1103 41.0477C38.9193 41.0477 38.7375 40.9264 38.5729 40.6266C38.41 40.3299 38.3247 39.9584 38.3247 39.5075C38.3247 39.0335 38.4104 38.6459 38.5732 38.3446Z" fill="#20A556" stroke="#20A556" stroke-width="0.2"/>
<circle cx="28" cy="32" r="1" fill="#20A556"/>
<circle cx="28" cy="36" r="1" fill="#20A556"/>
<circle cx="28" cy="40" r="1" fill="#20A556"/>
<circle cx="28" cy="44" r="1" fill="#20A556"/>
</svg>
