<svg width="72" height="72" viewBox="0 0 72 72" fill="none" xmlns="http://www.w3.org/2000/svg">
<path d="M34.3337 5.26753C35.3425 4.59364 36.6579 4.59364 37.6666 5.26753L40.1941 6.95596C40.8555 7.39781 41.6654 7.5589 42.4455 7.4038L45.4268 6.81112C46.6166 6.57457 47.8319 7.07793 48.506 8.08656L50.1949 10.6137C50.6369 11.275 51.3234 11.7338 52.1036 11.889L55.0847 12.4823C56.2745 12.7191 57.2046 13.6492 57.4414 14.839L58.0347 17.8201C58.19 18.6003 58.6487 19.2868 59.31 19.7288L61.8372 21.4178C62.8458 22.0919 63.3492 23.3071 63.1126 24.497L62.5199 27.4782C62.3648 28.2583 62.5259 29.0682 62.9678 29.7296L64.6562 32.2571C65.3301 33.2659 65.3301 34.5812 64.6562 35.59L62.9678 38.1175C62.5259 38.7789 62.3648 39.5887 62.5199 40.3689L63.1126 43.3501C63.3492 44.54 62.8458 45.7552 61.8372 46.4293L59.31 48.1183C58.6487 48.5602 58.19 49.2468 58.0347 50.0269L57.4414 53.008C57.2046 54.1978 56.2745 55.1279 55.0847 55.3647L52.1036 55.958C51.3234 56.1133 50.6369 56.572 50.1949 57.2334L48.506 59.7605C47.8319 60.7691 46.6166 61.2725 45.4268 61.0359L42.4455 60.4433C41.6654 60.2882 40.8555 60.4492 40.1941 60.8911L37.6666 62.5795C36.6579 63.2534 35.3425 63.2534 34.3337 62.5795L31.8063 60.8911C31.1448 60.4492 30.335 60.2882 29.5548 60.4433L26.5736 61.0359C25.3837 61.2725 24.1685 60.7691 23.4944 59.7605L21.8055 57.2334C21.3635 56.572 20.6769 56.1133 19.8968 55.958L16.9157 55.3647C15.7259 55.1279 14.7958 54.1978 14.559 53.008L13.9657 50.0269C13.8104 49.2468 13.3517 48.5602 12.6904 48.1183L10.1632 46.4293C9.15459 45.7552 8.65123 44.54 8.88778 43.3501L9.48046 40.3689C9.63556 39.5887 9.47447 38.7789 9.03262 38.1175L7.34419 35.59C6.6703 34.5812 6.6703 33.2659 7.34419 32.2571L9.03262 29.7296C9.47447 29.0682 9.63556 28.2583 9.48046 27.4782L8.88778 24.497C8.65123 23.3071 9.15459 22.0919 10.1632 21.4178L12.6904 19.7288C13.3517 19.2868 13.8104 18.6003 13.9657 17.8201L14.559 14.839C14.7958 13.6492 15.7259 12.7191 16.9157 12.4823L19.8968 11.889C20.6769 11.7338 21.3635 11.275 21.8055 10.6137L23.4944 8.08657C24.1685 7.07793 25.3837 6.57457 26.5736 6.81112L29.5548 7.4038C30.335 7.5589 31.1448 7.39781 31.8063 6.95596L34.3337 5.26753Z" fill="url(#paint0_linear_3449_24383)"/>
<g filter="url(#filter0_di_3449_24383)">
<circle cx="36" cy="33.9234" r="22.1538" fill="url(#paint1_linear_3449_24383)"/>
</g>
<g filter="url(#filter1_i_3449_24383)">
<circle cx="36" cy="33.9238" r="18" fill="url(#paint2_linear_3449_24383)"/>
</g>
<g filter="url(#filter2_di_3449_24383)">
<path d="M28.7729 31.3206C28.9244 31.2445 29.1353 31.1303 29.4057 30.9781C29.6762 30.8259 30.1764 30.478 30.9066 29.9344C31.6367 29.3908 32.31 28.8091 32.9266 28.1894C33.316 27.798 33.6865 27.3522 34.038 26.8521C34.3896 26.352 34.6816 25.8818 34.9142 25.4414C35.1468 25.0011 35.3523 24.5907 35.5308 24.2101C35.7092 23.8296 35.8363 23.5306 35.912 23.3132L36.0419 22.9707C36.0635 23.0577 36.1013 23.1746 36.1554 23.3213C36.2095 23.4681 36.3339 23.7589 36.5286 24.1938C36.7233 24.6287 36.9315 25.05 37.1533 25.4577C37.375 25.8654 37.6671 26.3248 38.0294 26.8358C38.3918 27.3468 38.7677 27.798 39.1571 28.1894C39.7628 28.8091 40.4118 29.3799 41.1041 29.9018C41.7964 30.4236 42.3372 30.7879 42.7266 30.9944L43.2945 31.3206C43.1431 31.3967 42.9322 31.5136 42.6617 31.6712C42.3913 31.8289 41.891 32.1768 41.1609 32.715C40.4308 33.2532 39.7628 33.8321 39.1571 34.4518C38.7677 34.8432 38.3945 35.289 38.0376 35.7891C37.6806 36.2892 37.3858 36.7595 37.1533 37.1998C36.9207 37.6401 36.7152 38.0505 36.5367 38.4311C36.3582 38.8116 36.2311 39.1106 36.1554 39.328L36.0419 39.6705C36.0094 39.5835 35.9661 39.4667 35.912 39.3199C35.858 39.1731 35.7336 38.8823 35.5389 38.4474C35.3442 38.0125 35.1359 37.5912 34.9142 37.1835C34.6925 36.7758 34.4031 36.3164 34.0461 35.8054C33.6892 35.2944 33.316 34.8432 32.9266 34.4518C32.31 33.8321 31.6529 33.2613 30.9552 32.7394C30.2576 32.2176 29.7248 31.8506 29.3571 31.6386C28.9893 31.4266 28.7946 31.3206 28.7729 31.3206Z" fill="url(#paint3_linear_3449_24383)"/>
</g>
<path d="M25.1426 40.9102C25.2032 40.8837 25.2875 40.844 25.3957 40.7911C25.5039 40.7381 25.704 40.6171 25.996 40.428C26.2881 40.2389 26.5574 40.0366 26.804 39.8211C26.9598 39.6849 27.108 39.5299 27.2486 39.3559C27.3892 39.182 27.5061 39.0184 27.5991 38.8652C27.6921 38.7121 27.7743 38.5693 27.8457 38.437C27.9171 38.3046 27.9679 38.2006 27.9982 38.125L28.0501 38.0059C28.0588 38.0361 28.0739 38.0768 28.0956 38.1278C28.1172 38.1789 28.167 38.28 28.2448 38.4313C28.3227 38.5826 28.406 38.7291 28.4947 38.8709C28.5834 39.0127 28.7002 39.1725 28.8452 39.3502C28.9901 39.528 29.1405 39.6849 29.2962 39.8211C29.5385 40.0366 29.7981 40.2352 30.075 40.4167C30.352 40.5982 30.5683 40.7249 30.7241 40.7967L30.9512 40.9102C30.8906 40.9366 30.8063 40.9773 30.6981 41.0321C30.5899 41.087 30.3898 41.208 30.0978 41.3952C29.8057 41.5824 29.5385 41.7837 29.2962 41.9993C29.1405 42.1354 28.9912 42.2905 28.8484 42.4644C28.7056 42.6384 28.5877 42.802 28.4947 42.9551C28.4017 43.1083 28.3195 43.251 28.2481 43.3834C28.1767 43.5157 28.1259 43.6197 28.0956 43.6954L28.0501 43.8145C28.0372 43.7842 28.0199 43.7436 27.9982 43.6925C27.9766 43.6415 27.9268 43.5403 27.8489 43.3891C27.7711 43.2378 27.6878 43.0913 27.5991 42.9494C27.5104 42.8076 27.3946 42.6479 27.2519 42.4701C27.1091 42.2924 26.9598 42.1354 26.804 41.9993C26.5574 41.7837 26.2946 41.5852 26.0155 41.4037C25.7364 41.2222 25.5233 41.0945 25.3762 41.0208C25.2291 40.947 25.1512 40.9102 25.1426 40.9102Z" fill="#FCF8E8"/>
<path d="M41.8086 40.9102C41.8616 40.8837 41.9354 40.844 42.0301 40.7911C42.1247 40.7381 42.2998 40.6171 42.5554 40.428C42.8109 40.2389 43.0466 40.0366 43.2624 39.8211C43.3987 39.6849 43.5283 39.5299 43.6514 39.3559C43.7744 39.182 43.8766 39.0184 43.958 38.8652C44.0394 38.7121 44.1114 38.5693 44.1738 38.437C44.2363 38.3046 44.2808 38.2006 44.3073 38.125L44.3527 38.0059C44.3603 38.0361 44.3735 38.0768 44.3925 38.1278C44.4114 38.1789 44.4549 38.28 44.5231 38.4313C44.5912 38.5826 44.6641 38.7291 44.7417 38.8709C44.8193 39.0127 44.9215 39.1725 45.0484 39.3502C45.1752 39.528 45.3068 39.6849 45.443 39.8211C45.6551 40.0366 45.8822 40.2352 46.1245 40.4167C46.3668 40.5982 46.5561 40.7249 46.6924 40.7967L46.8911 40.9102C46.8381 40.9366 46.7643 40.9773 46.6697 41.0321C46.575 41.087 46.3999 41.208 46.1444 41.3952C45.8888 41.5824 45.6551 41.7837 45.443 41.9993C45.3068 42.1354 45.1761 42.2905 45.0512 42.4644C44.9263 42.6384 44.8231 42.802 44.7417 42.9551C44.6603 43.1083 44.5884 43.251 44.5259 43.3834C44.4634 43.5157 44.419 43.6197 44.3925 43.6954L44.3527 43.8145C44.3414 43.7842 44.3262 43.7436 44.3073 43.6925C44.2883 43.6415 44.2448 43.5403 44.1767 43.3891C44.1085 43.2378 44.0356 43.0913 43.958 42.9494C43.8804 42.8076 43.7791 42.6479 43.6542 42.4701C43.5293 42.2924 43.3987 42.1354 43.2624 41.9993C43.0466 41.7837 42.8166 41.5852 42.5724 41.4037C42.3282 41.2222 42.1418 41.0945 42.013 41.0208C41.8843 40.947 41.8162 40.9102 41.8086 40.9102Z" fill="#FCF8E8"/>
<path d="M19.3848 58.1543L19.3848 69.2312L5.53861 69.2312L9.30318 63.6928L5.53861 58.1543L19.3848 58.1543Z" fill="#6F65E0"/>
<path d="M52.6152 69.2305L52.6152 58.1535L66.4614 58.1535L62.6968 63.692L66.4614 69.2305L52.6152 69.2305Z" fill="#6F65E0"/>
<rect x="13.8462" y="54" width="44.3077" height="12.4615" fill="#8177F7"/>
<path d="M28.9897 63.0762H30.873C32.353 63.0762 33.2246 62.1567 33.2246 60.5913V60.5845C33.2246 59.0225 32.3496 58.144 30.873 58.144H28.9897V63.0762ZM30.022 62.2217V58.9951H30.75C31.6558 58.9951 32.1719 59.5591 32.1719 60.5879V60.5947C32.1719 61.6611 31.6729 62.2217 30.75 62.2217H30.022ZM33.8911 63.0762H34.9233V58.144H33.8911V63.0762ZM35.4292 63.0762H36.5127L36.8853 61.8799H38.6284L39.001 63.0762H40.0845L38.3652 58.144H37.1519L35.4292 63.0762ZM37.7466 59.1011H37.7671L38.3892 61.1074H37.1245L37.7466 59.1011ZM41.978 63.0762H43.0103V58.144H41.978V63.0762Z" fill="white"/>
<defs>
<filter id="filter0_di_3449_24383" x="13.8462" y="11.7695" width="47.3076" height="47.3086" filterUnits="userSpaceOnUse" color-interpolation-filters="sRGB">
<feFlood flood-opacity="0" result="BackgroundImageFix"/>
<feColorMatrix in="SourceAlpha" type="matrix" values="0 0 0 0 0 0 0 0 0 0 0 0 0 0 0 0 0 0 127 0" result="hardAlpha"/>
<feOffset dx="2" dy="2"/>
<feGaussianBlur stdDeviation="0.5"/>
<feComposite in2="hardAlpha" operator="out"/>
<feColorMatrix type="matrix" values="0 0 0 0 1 0 0 0 0 1 0 0 0 0 1 0 0 0 0.05 0"/>
<feBlend mode="normal" in2="BackgroundImageFix" result="effect1_dropShadow_3449_24383"/>
<feBlend mode="normal" in="SourceGraphic" in2="effect1_dropShadow_3449_24383" result="shape"/>
<feColorMatrix in="SourceAlpha" type="matrix" values="0 0 0 0 0 0 0 0 0 0 0 0 0 0 0 0 0 0 127 0" result="hardAlpha"/>
<feOffset dx="2" dy="2"/>
<feGaussianBlur stdDeviation="0.5"/>
<feComposite in2="hardAlpha" operator="arithmetic" k2="-1" k3="1"/>
<feColorMatrix type="matrix" values="0 0 0 0 0.905882 0 0 0 0 0.729412 0 0 0 0 0.290196 0 0 0 0.2 0"/>
<feBlend mode="normal" in2="shape" result="effect2_innerShadow_3449_24383"/>
</filter>
<filter id="filter1_i_3449_24383" x="18" y="15.9238" width="36" height="36" filterUnits="userSpaceOnUse" color-interpolation-filters="sRGB">
<feFlood flood-opacity="0" result="BackgroundImageFix"/>
<feBlend mode="normal" in="SourceGraphic" in2="BackgroundImageFix" result="shape"/>
<feColorMatrix in="SourceAlpha" type="matrix" values="0 0 0 0 0 0 0 0 0 0 0 0 0 0 0 0 0 0 127 0" result="hardAlpha"/>
<feOffset dx="2" dy="2"/>
<feComposite in2="hardAlpha" operator="arithmetic" k2="-1" k3="1"/>
<feColorMatrix type="matrix" values="0 0 0 0 1 0 0 0 0 1 0 0 0 0 1 0 0 0 0.2 0"/>
<feBlend mode="normal" in2="shape" result="effect1_innerShadow_3449_24383"/>
</filter>
<filter id="filter2_di_3449_24383" x="28.7729" y="22.9707" width="17.5215" height="19.6992" filterUnits="userSpaceOnUse" color-interpolation-filters="sRGB">
<feFlood flood-opacity="0" result="BackgroundImageFix"/>
<feColorMatrix in="SourceAlpha" type="matrix" values="0 0 0 0 0 0 0 0 0 0 0 0 0 0 0 0 0 0 127 0" result="hardAlpha"/>
<feOffset dx="2" dy="2"/>
<feGaussianBlur stdDeviation="0.5"/>
<feComposite in2="hardAlpha" operator="out"/>
<feColorMatrix type="matrix" values="0 0 0 0 0.75 0 0 0 0 0.567353 0 0 0 0 0.103125 0 0 0 0.15 0"/>
<feBlend mode="normal" in2="BackgroundImageFix" result="effect1_dropShadow_3449_24383"/>
<feBlend mode="normal" in="SourceGraphic" in2="effect1_dropShadow_3449_24383" result="shape"/>
<feColorMatrix in="SourceAlpha" type="matrix" values="0 0 0 0 0 0 0 0 0 0 0 0 0 0 0 0 0 0 127 0" result="hardAlpha"/>
<feOffset dx="2" dy="2"/>
<feGaussianBlur stdDeviation="0.5"/>
<feComposite in2="hardAlpha" operator="arithmetic" k2="-1" k3="1"/>
<feColorMatrix type="matrix" values="0 0 0 0 1 0 0 0 0 1 0 0 0 0 1 0 0 0 0.1 0"/>
<feBlend mode="normal" in2="shape" result="effect2_innerShadow_3449_24383"/>
</filter>
<linearGradient id="paint0_linear_3449_24383" x1="19.2434" y1="14.1051" x2="50.6486" y2="60.8465" gradientUnits="userSpaceOnUse">
<stop stop-color="#FFE261"/>
<stop offset="1" stop-color="#FFC940"/>
</linearGradient>
<linearGradient id="paint1_linear_3449_24383" x1="23.077" y1="18.5388" x2="48" y2="50.8465" gradientUnits="userSpaceOnUse">
<stop stop-color="#FFD033"/>
<stop offset="1" stop-color="#FFB81F"/>
</linearGradient>
<linearGradient id="paint2_linear_3449_24383" x1="25.5" y1="21.4238" x2="45.75" y2="47.6738" gradientUnits="userSpaceOnUse">
<stop stop-color="#FFD154"/>
<stop offset="1" stop-color="#FFE261"/>
</linearGradient>
<linearGradient id="paint3_linear_3449_24383" x1="31.4957" y1="26.7977" x2="40.0993" y2="36.7728" gradientUnits="userSpaceOnUse">
<stop stop-color="#FFFCF0"/>
<stop offset="1" stop-color="#FAF3DC"/>
</linearGradient>
</defs>
</svg>
