<svg width="72" height="72" viewBox="0 0 72 72" fill="none" xmlns="http://www.w3.org/2000/svg">
<path d="M59.6885 11.1847L36.4978 4.22739C36.1731 4.12993 35.827 4.12993 35.5022 4.22739L12.311 11.1847C11.5784 11.4045 11.0767 12.0788 11.0767 12.8437V38.3539C11.0767 41.6719 12.42 45.0685 15.0691 48.4492C17.0923 51.0313 19.8915 53.624 23.3887 56.1555C29.2637 60.4082 35.0488 63.017 35.2922 63.1259C35.5173 63.2267 35.7586 63.2772 36 63.2772C36.2413 63.2772 36.4827 63.2269 36.7077 63.1259C36.951 63.017 42.7361 60.4082 48.611 56.1555C52.1082 53.624 54.9073 51.0313 56.9306 48.4492C59.5797 45.0686 60.9228 41.6721 60.9228 38.3539V12.8437C60.9228 12.0788 60.4213 11.4045 59.6885 11.1847Z" fill="url(#paint0_linear_3449_24281)"/>
<g filter="url(#filter0_di_3449_24281)">
<path d="M55.0824 15.262L36.401 9.74932C36.1394 9.6721 35.8606 9.6721 35.5989 9.74932L16.9172 15.262C16.327 15.4361 15.9229 15.9704 15.9229 16.5765V36.7895C15.9229 39.4186 17.005 42.1099 19.139 44.7886C20.7688 46.8345 23.0237 48.8888 25.8409 50.8947C30.5735 54.2643 35.2337 56.3314 35.4298 56.4177C35.6111 56.4976 35.8055 56.5376 36 56.5376C36.1944 56.5376 36.3888 56.4977 36.5701 56.4177C36.7661 56.3314 41.4263 54.2643 46.1589 50.8947C48.976 48.8888 51.2309 46.8345 52.8608 44.7886C54.9948 42.11 56.0767 39.4187 56.0767 36.7895V16.5765C56.0767 15.9704 55.6727 15.4361 55.0824 15.262Z" fill="url(#paint1_linear_3449_24281)"/>
</g>
<g filter="url(#filter1_di_3449_24281)">
<path d="M36.5399 25.2288C35.3423 24.1633 33.7952 23.5745 32.1922 23.5742H26.8683C26.536 23.5742 26.2172 23.7062 25.9823 23.9412C25.7473 24.1762 25.6152 24.495 25.6152 24.8273V30.1511C25.6152 33.4742 27.8583 35.565 31.0775 36.0011C30.5907 35.0664 30.3523 34.0222 30.3852 32.9688C30.4041 31.9126 30.6152 30.8686 31.0083 29.8881L28.6683 28.1365C28.6101 28.0929 28.5611 28.0382 28.524 27.9756C28.487 27.913 28.4626 27.8438 28.4523 27.7718C28.4421 27.6998 28.4461 27.6265 28.4641 27.556C28.4822 27.4855 28.5139 27.4193 28.5575 27.3611C28.6468 27.2452 28.7778 27.1686 28.9227 27.1479C29.0676 27.1273 29.2148 27.164 29.3329 27.2504L31.5206 28.8911C32.0693 27.9757 32.7964 27.1797 33.6586 26.5506C34.5208 25.9215 35.5006 25.472 36.5399 25.2288Z" fill="url(#paint2_linear_3449_24281)" shape-rendering="crispEdges"/>
</g>
<g filter="url(#filter2_di_3449_24281)">
<path d="M38.0007 26.455C36.2721 26.7045 34.6911 27.568 33.5469 28.8876C32.4028 30.2072 31.772 31.8946 31.7699 33.6411C31.807 34.2664 31.8857 34.8886 32.0053 35.5034C34.8432 33.5885 38.2137 32.6193 41.6353 32.7342C41.7685 32.7374 41.8957 32.7903 41.9918 32.8826C42.0879 32.9748 42.1459 33.0997 42.1546 33.2327C42.1528 33.3735 42.096 33.508 41.9964 33.6076C41.8969 33.7072 41.7623 33.764 41.6215 33.7658C38.3109 33.6598 35.0554 34.6316 32.3446 36.535C30.8072 37.6173 29.5765 39.0794 28.7722 40.7788C28.7184 40.9082 28.6909 41.047 28.6914 41.1872C28.6919 41.3273 28.7204 41.4659 28.7752 41.5949C28.8301 41.7239 28.9101 41.8406 29.0106 41.9382C29.1112 42.0359 29.2302 42.1124 29.3607 42.1634C29.6211 42.2637 29.9102 42.26 30.1679 42.153C30.4257 42.0461 30.6324 41.844 30.7453 41.5888C31.4275 40.3423 32.3253 39.2266 33.3969 38.2934C34.3276 39.4475 35.5893 40.289 37.0123 40.705C38.4354 41.1209 39.9517 41.0914 41.3574 40.6203C42.7632 40.1492 43.9911 39.2591 44.8761 38.0697C45.7612 36.8802 46.261 35.4484 46.3084 33.9665V29.4596C46.3084 29.4596 46.1353 23.6027 44.9238 23.5404C44.093 23.4919 43.8299 24.8073 42.1546 25.6173C40.985 26.0635 39.7552 26.3319 38.5061 26.4134L38.0007 26.455Z" fill="url(#paint3_linear_3449_24281)" shape-rendering="crispEdges"/>
</g>
<path d="M19.3843 58.1543L19.3843 69.2312L5.53813 69.2312L9.30269 63.6928L5.53813 58.1543L19.3843 58.1543Z" fill="#14C7A9"/>
<path d="M52.6152 69.2305L52.6152 58.1535L66.4614 58.1535L62.6968 63.692L66.4614 69.2305L52.6152 69.2305Z" fill="#14C7A9"/>
<rect x="13.8462" y="54" width="44.3077" height="12.4615" fill="#1ED9AD"/>
<path d="M20.5312 63.0762H22.7153C23.7681 63.0762 24.4209 62.5361 24.4209 61.6714V61.6646C24.4209 61.0186 23.9253 60.5332 23.2383 60.4819V60.4614C23.7817 60.3896 24.1919 59.9282 24.1919 59.3882V59.3813C24.1919 58.6226 23.6074 58.144 22.6777 58.144H20.5312V63.0762ZM22.4111 58.9097C22.8931 58.9097 23.1768 59.1353 23.1768 59.5283V59.5352C23.1768 59.9624 22.8657 60.2051 22.2847 60.2051H21.5635V58.9097H22.4111ZM22.4077 60.9058C23.04 60.9058 23.3682 61.1484 23.3682 61.5996V61.6064C23.3682 62.0645 23.0435 62.3071 22.4521 62.3071H21.5635V60.9058H22.4077ZM25.0088 63.0762H26.041V61.2886H26.8682L27.7876 63.0762H28.9565L27.9175 61.1348C28.4644 60.9194 28.8096 60.3794 28.8096 59.73V59.7231C28.8096 58.7319 28.1533 58.144 27.0459 58.144H25.0088V63.0762ZM26.041 60.5059V58.9507H26.9194C27.4287 58.9507 27.7534 59.2515 27.7534 59.7231V59.73C27.7534 60.2153 27.4458 60.5059 26.9331 60.5059H26.041ZM31.7183 63.1616C33.1846 63.1616 34.0972 62.1807 34.0972 60.6118V60.605C34.0972 59.0396 33.1812 58.0586 31.7183 58.0586C30.2588 58.0586 29.3394 59.0361 29.3394 60.605V60.6118C29.3394 62.1807 30.252 63.1616 31.7183 63.1616ZM31.7183 62.2866C30.9082 62.2866 30.3921 61.644 30.3921 60.6118V60.605C30.3921 59.5728 30.9116 58.9336 31.7183 58.9336C32.5283 58.9336 33.0444 59.5762 33.0444 60.605V60.6118C33.0444 61.6338 32.5386 62.2866 31.7183 62.2866ZM34.7637 63.0762H35.7925V59.8462H35.813L38.0483 63.0762H38.9438V58.144H37.915V61.3501H37.8945L35.666 58.144H34.7637V63.0762ZM39.6616 63.0762H43.4692V62.2251H40.9023V62.2046L43.4009 58.814V58.144H39.7197V58.9951H42.1704V59.0156L39.6616 62.4028V63.0762ZM44.1836 63.0762H47.4512V62.2251H45.2158V60.9844H47.3247V60.1777H45.2158V58.9951H47.4512V58.144H44.1836V63.0762ZM49.584 63.0762H50.6162V58.144H49.584V63.0762ZM51.4365 63.0762H52.4688V58.144H51.4365V63.0762Z" fill="white"/>
<defs>
<filter id="filter0_di_3449_24281" x="15.9229" y="9.69141" width="43.1538" height="49.8457" filterUnits="userSpaceOnUse" color-interpolation-filters="sRGB">
<feFlood flood-opacity="0" result="BackgroundImageFix"/>
<feColorMatrix in="SourceAlpha" type="matrix" values="0 0 0 0 0 0 0 0 0 0 0 0 0 0 0 0 0 0 127 0" result="hardAlpha"/>
<feOffset dx="2" dy="2"/>
<feGaussianBlur stdDeviation="0.5"/>
<feComposite in2="hardAlpha" operator="out"/>
<feColorMatrix type="matrix" values="0 0 0 0 1 0 0 0 0 1 0 0 0 0 1 0 0 0 0.05 0"/>
<feBlend mode="normal" in2="BackgroundImageFix" result="effect1_dropShadow_3449_24281"/>
<feBlend mode="normal" in="SourceGraphic" in2="effect1_dropShadow_3449_24281" result="shape"/>
<feColorMatrix in="SourceAlpha" type="matrix" values="0 0 0 0 0 0 0 0 0 0 0 0 0 0 0 0 0 0 127 0" result="hardAlpha"/>
<feOffset dx="2" dy="2"/>
<feGaussianBlur stdDeviation="0.5"/>
<feComposite in2="hardAlpha" operator="arithmetic" k2="-1" k3="1"/>
<feColorMatrix type="matrix" values="0 0 0 0 0.858824 0 0 0 0 0.541176 0 0 0 0 0.32549 0 0 0 0.2 0"/>
<feBlend mode="normal" in2="shape" result="effect2_innerShadow_3449_24281"/>
</filter>
<filter id="filter1_di_3449_24281" x="25.6152" y="23.5742" width="11.9248" height="13.4277" filterUnits="userSpaceOnUse" color-interpolation-filters="sRGB">
<feFlood flood-opacity="0" result="BackgroundImageFix"/>
<feColorMatrix in="SourceAlpha" type="matrix" values="0 0 0 0 0 0 0 0 0 0 0 0 0 0 0 0 0 0 127 0" result="hardAlpha"/>
<feOffset dx="1" dy="1"/>
<feComposite in2="hardAlpha" operator="out"/>
<feColorMatrix type="matrix" values="0 0 0 0 0.827451 0 0 0 0 0.52549 0 0 0 0 0.309804 0 0 0 0.3 0"/>
<feBlend mode="normal" in2="BackgroundImageFix" result="effect1_dropShadow_3449_24281"/>
<feBlend mode="normal" in="SourceGraphic" in2="effect1_dropShadow_3449_24281" result="shape"/>
<feColorMatrix in="SourceAlpha" type="matrix" values="0 0 0 0 0 0 0 0 0 0 0 0 0 0 0 0 0 0 127 0" result="hardAlpha"/>
<feOffset dx="2" dy="2"/>
<feGaussianBlur stdDeviation="0.5"/>
<feComposite in2="hardAlpha" operator="arithmetic" k2="-1" k3="1"/>
<feColorMatrix type="matrix" values="0 0 0 0 1 0 0 0 0 1 0 0 0 0 1 0 0 0 0.05 0"/>
<feBlend mode="normal" in2="shape" result="effect2_innerShadow_3449_24281"/>
</filter>
<filter id="filter2_di_3449_24281" x="28.6914" y="23.5391" width="19.6172" height="20.6973" filterUnits="userSpaceOnUse" color-interpolation-filters="sRGB">
<feFlood flood-opacity="0" result="BackgroundImageFix"/>
<feColorMatrix in="SourceAlpha" type="matrix" values="0 0 0 0 0 0 0 0 0 0 0 0 0 0 0 0 0 0 127 0" result="hardAlpha"/>
<feOffset dx="2" dy="2"/>
<feComposite in2="hardAlpha" operator="out"/>
<feColorMatrix type="matrix" values="0 0 0 0 0.827451 0 0 0 0 0.52549 0 0 0 0 0.309804 0 0 0 0.5 0"/>
<feBlend mode="normal" in2="BackgroundImageFix" result="effect1_dropShadow_3449_24281"/>
<feBlend mode="normal" in="SourceGraphic" in2="effect1_dropShadow_3449_24281" result="shape"/>
<feColorMatrix in="SourceAlpha" type="matrix" values="0 0 0 0 0 0 0 0 0 0 0 0 0 0 0 0 0 0 127 0" result="hardAlpha"/>
<feOffset dx="2" dy="2"/>
<feGaussianBlur stdDeviation="0.5"/>
<feComposite in2="hardAlpha" operator="arithmetic" k2="-1" k3="1"/>
<feColorMatrix type="matrix" values="0 0 0 0 1 0 0 0 0 1 0 0 0 0 1 0 0 0 0.05 0"/>
<feBlend mode="normal" in2="shape" result="effect2_innerShadow_3449_24281"/>
</filter>
<linearGradient id="paint0_linear_3449_24281" x1="21.9708" y1="14.0357" x2="54.8057" y2="55.2371" gradientUnits="userSpaceOnUse">
<stop stop-color="#F7D2A1"/>
<stop offset="1" stop-color="#E0905A"/>
</linearGradient>
<linearGradient id="paint1_linear_3449_24281" x1="24.2882" y1="16.8485" x2="51.381" y2="46.9515" gradientUnits="userSpaceOnUse">
<stop stop-color="#EDB984"/>
<stop offset="1" stop-color="#DB8D58"/>
</linearGradient>
<linearGradient id="paint2_linear_3449_24281" x1="25.6152" y1="23.5383" x2="44.3075" y2="38.0768" gradientUnits="userSpaceOnUse">
<stop stop-color="#FFF4E5"/>
<stop offset="1" stop-color="#FAD5AA" stop-opacity="0"/>
</linearGradient>
<linearGradient id="paint3_linear_3449_24281" x1="34.6154" y1="28.0391" x2="51.2308" y2="42.2314" gradientUnits="userSpaceOnUse">
<stop stop-color="#FFF4E5"/>
<stop offset="1" stop-color="#FAD5AA" stop-opacity="0"/>
</linearGradient>
</defs>
</svg>
