<svg width="72" height="72" viewBox="0 0 72 72" fill="none" xmlns="http://www.w3.org/2000/svg">
<path d="M59.6885 11.1847L36.4978 4.22739C36.1731 4.12993 35.827 4.12993 35.5022 4.22739L12.311 11.1847C11.5784 11.4045 11.0767 12.0788 11.0767 12.8437V38.3539C11.0767 41.6719 12.42 45.0685 15.0691 48.4492C17.0923 51.0313 19.8915 53.624 23.3887 56.1555C29.2637 60.4082 35.0488 63.017 35.2922 63.1259C35.5173 63.2267 35.7586 63.2772 36 63.2772C36.2413 63.2772 36.4827 63.2269 36.7077 63.1259C36.951 63.017 42.7361 60.4082 48.611 56.1555C52.1082 53.624 54.9073 51.0313 56.9306 48.4492C59.5797 45.0686 60.9228 41.6721 60.9228 38.3539V12.8437C60.9228 12.0788 60.4213 11.4045 59.6885 11.1847Z" fill="url(#paint0_linear_3449_24306)"/>
<g filter="url(#filter0_di_3449_24306)">
<path d="M55.0824 15.262L36.401 9.74932C36.1394 9.6721 35.8606 9.6721 35.5989 9.74932L16.9172 15.262C16.327 15.4361 15.9229 15.9704 15.9229 16.5765V36.7895C15.9229 39.4186 17.005 42.1099 19.139 44.7886C20.7688 46.8345 23.0237 48.8888 25.8409 50.8947C30.5735 54.2643 35.2337 56.3314 35.4298 56.4177C35.6111 56.4976 35.8055 56.5376 36 56.5376C36.1944 56.5376 36.3888 56.4977 36.5701 56.4177C36.7661 56.3314 41.4263 54.2643 46.1589 50.8947C48.976 48.8888 51.2309 46.8345 52.8608 44.7886C54.9948 42.11 56.0767 39.4187 56.0767 36.7895V16.5765C56.0767 15.9704 55.6727 15.4361 55.0824 15.262Z" fill="url(#paint1_linear_3449_24306)"/>
</g>
<g filter="url(#filter1_di_3449_24306)">
<path d="M29.9858 31.5264L35.1329 24.6639C35.2339 24.5293 35.3647 24.4201 35.5152 24.3449C35.6657 24.2696 35.8316 24.2305 35.9998 24.2305C36.168 24.2305 36.334 24.2696 36.4844 24.3449C36.6349 24.4201 36.7658 24.5293 36.8667 24.6639L42.0139 31.5264C42.1545 31.714 42.2306 31.9421 42.2306 32.1766C42.2306 32.4111 42.1545 32.6392 42.0139 32.8268L36.8667 39.6893C36.7658 39.8239 36.6349 39.9331 36.4844 40.0083C36.334 40.0836 36.168 40.1227 35.9998 40.1227C35.8316 40.1227 35.6657 40.0836 35.5152 40.0083C35.3647 39.9331 35.2339 39.8239 35.1329 39.6893L29.9858 32.8268C29.8451 32.6392 29.769 32.4111 29.769 32.1766C29.769 31.9421 29.8451 31.714 29.9858 31.5264Z" fill="url(#paint2_linear_3449_24306)"/>
</g>
<path d="M19.3848 58.1543L19.3848 69.2312L5.53861 69.2312L9.30318 63.6928L5.53861 58.1543L19.3848 58.1543Z" fill="#14C7A9"/>
<path d="M52.6152 69.2305L52.6152 58.1535L66.4614 58.1535L62.6968 63.692L66.4614 69.2305L52.6152 69.2305Z" fill="#14C7A9"/>
<rect x="13.8462" y="54" width="44.3077" height="12.4615" fill="#1ED9AD"/>
<path d="M25.1342 63.1616C26.3783 63.1616 27.1234 62.5601 27.1234 61.6133V61.6099C27.1234 60.834 26.6586 60.4136 25.6264 60.2085L25.1034 60.1025C24.536 59.9897 24.2831 59.8086 24.2831 59.4976V59.4941C24.2831 59.1421 24.601 58.8994 25.1307 58.896C25.64 58.896 25.9955 59.1318 26.0468 59.5181L26.0502 59.5591H27.0243L27.0209 59.4941C26.973 58.6294 26.2723 58.0586 25.1307 58.0586C24.037 58.0586 23.2509 58.6533 23.2509 59.5557V59.5591C23.2509 60.3008 23.7431 60.7656 24.7172 60.9604L25.2367 61.063C25.8485 61.1895 26.0912 61.3569 26.0912 61.6919V61.6953C26.0912 62.0713 25.7323 62.3208 25.1615 62.3208C24.5975 62.3208 24.1908 62.0815 24.1259 61.6987L24.119 61.6611H23.1449L23.1483 61.7158C23.2064 62.625 23.9618 63.1616 25.1342 63.1616ZM27.7557 63.0762H28.788V58.144H27.7557V63.0762ZM29.6083 63.0762H32.7972V62.2251H30.6405V58.144H29.6083V63.0762ZM34.3353 63.0762H35.5931L37.244 58.144H36.099L34.9745 62.02H34.954L33.8261 58.144H32.6845L34.3353 63.0762ZM37.7499 63.0762H41.0175V62.2251H38.7821V60.9844H40.891V60.1777H38.7821V58.9951H41.0175V58.144H37.7499V63.0762ZM41.7626 63.0762H42.7948V61.2886H43.622L44.5414 63.0762H45.7103L44.6713 61.1348C45.2181 60.9194 45.5634 60.3794 45.5634 59.73V59.7231C45.5634 58.7319 44.9071 58.144 43.7997 58.144H41.7626V63.0762ZM42.7948 60.5059V58.9507H43.6732C44.1825 58.9507 44.5072 59.2515 44.5072 59.7231V59.73C44.5072 60.2153 44.1996 60.5059 43.6869 60.5059H42.7948ZM47.6347 63.0762H48.6669V58.144H47.6347V63.0762Z" fill="white"/>
<defs>
<filter id="filter0_di_3449_24306" x="15.9229" y="9.69141" width="43.1538" height="49.8457" filterUnits="userSpaceOnUse" color-interpolation-filters="sRGB">
<feFlood flood-opacity="0" result="BackgroundImageFix"/>
<feColorMatrix in="SourceAlpha" type="matrix" values="0 0 0 0 0 0 0 0 0 0 0 0 0 0 0 0 0 0 127 0" result="hardAlpha"/>
<feOffset dx="2" dy="2"/>
<feGaussianBlur stdDeviation="0.5"/>
<feComposite in2="hardAlpha" operator="out"/>
<feColorMatrix type="matrix" values="0 0 0 0 1 0 0 0 0 1 0 0 0 0 1 0 0 0 0.05 0"/>
<feBlend mode="normal" in2="BackgroundImageFix" result="effect1_dropShadow_3449_24306"/>
<feBlend mode="normal" in="SourceGraphic" in2="effect1_dropShadow_3449_24306" result="shape"/>
<feColorMatrix in="SourceAlpha" type="matrix" values="0 0 0 0 0 0 0 0 0 0 0 0 0 0 0 0 0 0 127 0" result="hardAlpha"/>
<feOffset dx="2" dy="2"/>
<feGaussianBlur stdDeviation="0.5"/>
<feComposite in2="hardAlpha" operator="arithmetic" k2="-1" k3="1"/>
<feColorMatrix type="matrix" values="0 0 0 0 0.718958 0 0 0 0 0.749995 0 0 0 0 0.85 0 0 0 0.3 0"/>
<feBlend mode="normal" in2="shape" result="effect2_innerShadow_3449_24306"/>
</filter>
<filter id="filter1_di_3449_24306" x="29.769" y="24.2305" width="14.4614" height="17.8926" filterUnits="userSpaceOnUse" color-interpolation-filters="sRGB">
<feFlood flood-opacity="0" result="BackgroundImageFix"/>
<feColorMatrix in="SourceAlpha" type="matrix" values="0 0 0 0 0 0 0 0 0 0 0 0 0 0 0 0 0 0 127 0" result="hardAlpha"/>
<feOffset dx="2" dy="2"/>
<feComposite in2="hardAlpha" operator="out"/>
<feColorMatrix type="matrix" values="0 0 0 0 0.576319 0 0 0 0 0.630283 0 0 0 0 0.804167 0 0 0 0.2 0"/>
<feBlend mode="normal" in2="BackgroundImageFix" result="effect1_dropShadow_3449_24306"/>
<feBlend mode="normal" in="SourceGraphic" in2="effect1_dropShadow_3449_24306" result="shape"/>
<feColorMatrix in="SourceAlpha" type="matrix" values="0 0 0 0 0 0 0 0 0 0 0 0 0 0 0 0 0 0 127 0" result="hardAlpha"/>
<feOffset dx="2" dy="2"/>
<feGaussianBlur stdDeviation="0.5"/>
<feComposite in2="hardAlpha" operator="arithmetic" k2="-1" k3="1"/>
<feColorMatrix type="matrix" values="0 0 0 0 1 0 0 0 0 1 0 0 0 0 1 0 0 0 0.1 0"/>
<feBlend mode="normal" in2="shape" result="effect2_innerShadow_3449_24306"/>
</filter>
<linearGradient id="paint0_linear_3449_24306" x1="21.9708" y1="14.0357" x2="54.8057" y2="55.2371" gradientUnits="userSpaceOnUse">
<stop stop-color="#E8ECFA"/>
<stop offset="1" stop-color="#CED5EB"/>
</linearGradient>
<linearGradient id="paint1_linear_3449_24306" x1="24.2882" y1="16.8485" x2="51.381" y2="46.9515" gradientUnits="userSpaceOnUse">
<stop stop-color="#D8DEF0"/>
<stop offset="1" stop-color="#C1C8E0"/>
</linearGradient>
<linearGradient id="paint2_linear_3449_24306" x1="32.3652" y1="26.6585" x2="41.6061" y2="36.0514" gradientUnits="userSpaceOnUse">
<stop stop-color="white"/>
<stop offset="1" stop-color="#F0F3FF"/>
</linearGradient>
</defs>
</svg>
