<svg width="72" height="72" viewBox="0 0 72 72" fill="none" xmlns="http://www.w3.org/2000/svg">
<path d="M34.3337 5.26753C35.3425 4.59364 36.6579 4.59364 37.6666 5.26753L40.1941 6.95596C40.8555 7.39781 41.6654 7.5589 42.4455 7.4038L45.4268 6.81112C46.6166 6.57457 47.8319 7.07793 48.506 8.08656L50.1949 10.6137C50.6369 11.275 51.3234 11.7338 52.1036 11.889L55.0847 12.4823C56.2745 12.7191 57.2046 13.6492 57.4414 14.839L58.0347 17.8201C58.19 18.6003 58.6487 19.2868 59.31 19.7288L61.8372 21.4178C62.8458 22.0919 63.3492 23.3071 63.1126 24.497L62.5199 27.4782C62.3648 28.2583 62.5259 29.0682 62.9678 29.7296L64.6562 32.2571C65.3301 33.2659 65.3301 34.5812 64.6562 35.59L62.9678 38.1175C62.5259 38.7789 62.3648 39.5887 62.5199 40.3689L63.1126 43.3501C63.3492 44.54 62.8458 45.7552 61.8372 46.4293L59.31 48.1183C58.6487 48.5602 58.19 49.2468 58.0347 50.0269L57.4414 53.008C57.2046 54.1978 56.2745 55.1279 55.0847 55.3647L52.1036 55.958C51.3234 56.1133 50.6369 56.572 50.1949 57.2334L48.506 59.7605C47.8319 60.7691 46.6166 61.2725 45.4268 61.0359L42.4455 60.4433C41.6654 60.2882 40.8555 60.4492 40.1941 60.8911L37.6666 62.5795C36.6579 63.2534 35.3425 63.2534 34.3337 62.5795L31.8063 60.8911C31.1448 60.4492 30.335 60.2882 29.5548 60.4433L26.5736 61.0359C25.3837 61.2725 24.1685 60.7691 23.4944 59.7605L21.8055 57.2334C21.3635 56.572 20.6769 56.1133 19.8968 55.958L16.9157 55.3647C15.7259 55.1279 14.7958 54.1978 14.559 53.008L13.9657 50.0269C13.8104 49.2468 13.3517 48.5602 12.6904 48.1183L10.1632 46.4293C9.15459 45.7552 8.65123 44.54 8.88778 43.3501L9.48046 40.3689C9.63556 39.5887 9.47447 38.7789 9.03262 38.1175L7.34419 35.59C6.6703 34.5812 6.6703 33.2659 7.34419 32.2571L9.03262 29.7296C9.47447 29.0682 9.63556 28.2583 9.48046 27.4782L8.88778 24.497C8.65123 23.3071 9.15459 22.0919 10.1632 21.4178L12.6904 19.7288C13.3517 19.2868 13.8104 18.6003 13.9657 17.8201L14.559 14.839C14.7958 13.6492 15.7259 12.7191 16.9157 12.4823L19.8968 11.889C20.6769 11.7338 21.3635 11.275 21.8055 10.6137L23.4944 8.08657C24.1685 7.07793 25.3837 6.57457 26.5736 6.81112L29.5548 7.4038C30.335 7.5589 31.1448 7.39781 31.8063 6.95596L34.3337 5.26753Z" fill="url(#paint0_linear_3466_25950)"/>
<g filter="url(#filter0_di_3466_25950)">
<circle cx="36" cy="33.9234" r="22.1538" fill="url(#paint1_linear_3466_25950)"/>
</g>
<g filter="url(#filter1_i_3466_25950)">
<circle cx="36" cy="33.9238" r="18" fill="url(#paint2_linear_3466_25950)"/>
</g>
<g filter="url(#filter2_di_3466_25950)">
<path d="M43.6502 40.5862H28.3502C28.0265 40.5862 27.7617 40.8491 27.7617 41.1704V42.3386C27.7617 42.6599 28.0265 42.9228 28.3502 42.9228H43.6502C43.9738 42.9228 44.2387 42.6599 44.2387 42.3386V41.1704C44.2387 40.8491 43.9738 40.5862 43.6502 40.5862ZM46.004 28.9035C45.0294 28.9035 44.2387 29.6885 44.2387 30.6559C44.2387 30.9152 44.2975 31.1561 44.4005 31.3788L41.7377 32.9633C41.1713 33.2992 40.4394 33.1093 40.1121 32.5398L37.1146 27.3337C37.5081 27.0124 37.7656 26.5305 37.7656 25.9829C37.7656 25.0154 36.9748 24.2305 36.0002 24.2305C35.0255 24.2305 34.2348 25.0154 34.2348 25.9829C34.2348 26.5305 34.4923 27.0124 34.8858 27.3337L31.8883 32.5398C31.561 33.1093 30.8254 33.2992 30.2627 32.9633L27.6036 31.3788C27.7029 31.1598 27.7654 30.9152 27.7654 30.6559C27.7654 29.6885 26.9747 28.9035 26 28.9035C25.0254 28.9035 24.231 29.6885 24.231 30.6559C24.231 31.6234 25.0217 32.4084 25.9963 32.4084C26.092 32.4084 26.1876 32.3937 26.2795 32.3791L28.9386 39.418H43.0617L45.7208 32.3791C45.8128 32.3937 45.9084 32.4084 46.004 32.4084C46.9787 32.4084 47.7694 31.6234 47.7694 30.6559C47.7694 29.6885 46.9787 28.9035 46.004 28.9035Z" fill="url(#paint3_linear_3466_25950)"/>
</g>
<path d="M36.0002 31.8457L36.814 33.4948L38.6339 33.7592L37.317 35.0428L37.6279 36.8553L36.0002 35.9996L34.3725 36.8553L34.6833 35.0428L33.3665 33.7592L35.1863 33.4948L36.0002 31.8457Z" fill="#FFD759"/>
<path d="M19.3848 58.1543L19.3848 69.2312L5.53861 69.2312L9.30318 63.6928L5.53861 58.1543L19.3848 58.1543Z" fill="#CC4E5D"/>
<path d="M52.6152 69.2305L52.6152 58.1535L66.4614 58.1535L62.6968 63.692L66.4614 69.2305L52.6152 69.2305Z" fill="#CC4E5D"/>
<rect x="13.8462" y="54" width="44.3077" height="12.4615" fill="#EB5466"/>
<path d="M22.5262 63.0762H23.4456V59.7402H23.473L24.806 63.0762H25.4554L26.785 59.7402H26.8157V63.0762H27.7352V58.144H26.5423L25.1409 61.6885H25.1204L23.719 58.144H22.5262V63.0762ZM28.241 63.0762H29.3245L29.6971 61.8799H31.4402L31.8128 63.0762H32.8963L31.1771 58.144H29.9637L28.241 63.0762ZM30.5584 59.1011H30.5789L31.201 61.1074H29.9363L30.5584 59.1011ZM35.1009 63.1616C36.345 63.1616 37.0901 62.5601 37.0901 61.6133V61.6099C37.0901 60.834 36.6253 60.4136 35.5931 60.2085L35.0701 60.1025C34.5027 59.9897 34.2498 59.8086 34.2498 59.4976V59.4941C34.2498 59.1421 34.5677 58.8994 35.0975 58.896C35.6067 58.896 35.9622 59.1318 36.0135 59.5181L36.0169 59.5591H36.991L36.9876 59.4941C36.9398 58.6294 36.2391 58.0586 35.0975 58.0586C34.0037 58.0586 33.2176 58.6533 33.2176 59.5557V59.5591C33.2176 60.3008 33.7098 60.7656 34.6839 60.9604L35.2034 61.063C35.8152 61.1895 36.0579 61.3569 36.0579 61.6919V61.6953C36.0579 62.0713 35.699 62.3208 35.1282 62.3208C34.5643 62.3208 34.1575 62.0815 34.0926 61.6987L34.0857 61.6611H33.1116L33.115 61.7158C33.1732 62.625 33.9285 63.1616 35.1009 63.1616ZM38.7649 63.0762H39.7972V58.9951H41.2259V58.144H37.3397V58.9951H38.7649V63.0762ZM41.7967 63.0762H45.0643V62.2251H42.8289V60.9844H44.9378V60.1777H42.8289V58.9951H45.0643V58.144H41.7967V63.0762ZM45.8094 63.0762H46.8416V61.2886H47.6688L48.5882 63.0762H49.7571L48.7181 61.1348C49.2649 60.9194 49.6102 60.3794 49.6102 59.73V59.7231C49.6102 58.7319 48.9539 58.144 47.8465 58.144H45.8094V63.0762ZM46.8416 60.5059V58.9507H47.72C48.2293 58.9507 48.554 59.2515 48.554 59.7231V59.73C48.554 60.2153 48.2464 60.5059 47.7337 60.5059H46.8416Z" fill="white"/>
<defs>
<filter id="filter0_di_3466_25950" x="13.8462" y="11.7695" width="47.3076" height="47.3086" filterUnits="userSpaceOnUse" color-interpolation-filters="sRGB">
<feFlood flood-opacity="0" result="BackgroundImageFix"/>
<feColorMatrix in="SourceAlpha" type="matrix" values="0 0 0 0 0 0 0 0 0 0 0 0 0 0 0 0 0 0 127 0" result="hardAlpha"/>
<feOffset dx="2" dy="2"/>
<feGaussianBlur stdDeviation="0.5"/>
<feComposite in2="hardAlpha" operator="out"/>
<feColorMatrix type="matrix" values="0 0 0 0 1 0 0 0 0 1 0 0 0 0 1 0 0 0 0.05 0"/>
<feBlend mode="normal" in2="BackgroundImageFix" result="effect1_dropShadow_3466_25950"/>
<feBlend mode="normal" in="SourceGraphic" in2="effect1_dropShadow_3466_25950" result="shape"/>
<feColorMatrix in="SourceAlpha" type="matrix" values="0 0 0 0 0 0 0 0 0 0 0 0 0 0 0 0 0 0 127 0" result="hardAlpha"/>
<feOffset dx="2" dy="2"/>
<feGaussianBlur stdDeviation="0.5"/>
<feComposite in2="hardAlpha" operator="arithmetic" k2="-1" k3="1"/>
<feColorMatrix type="matrix" values="0 0 0 0 0.905882 0 0 0 0 0.729412 0 0 0 0 0.290196 0 0 0 0.2 0"/>
<feBlend mode="normal" in2="shape" result="effect2_innerShadow_3466_25950"/>
</filter>
<filter id="filter1_i_3466_25950" x="18" y="15.9238" width="36" height="36" filterUnits="userSpaceOnUse" color-interpolation-filters="sRGB">
<feFlood flood-opacity="0" result="BackgroundImageFix"/>
<feBlend mode="normal" in="SourceGraphic" in2="BackgroundImageFix" result="shape"/>
<feColorMatrix in="SourceAlpha" type="matrix" values="0 0 0 0 0 0 0 0 0 0 0 0 0 0 0 0 0 0 127 0" result="hardAlpha"/>
<feOffset dx="2" dy="2"/>
<feComposite in2="hardAlpha" operator="arithmetic" k2="-1" k3="1"/>
<feColorMatrix type="matrix" values="0 0 0 0 1 0 0 0 0 1 0 0 0 0 1 0 0 0 0.2 0"/>
<feBlend mode="normal" in2="shape" result="effect1_innerShadow_3466_25950"/>
</filter>
<filter id="filter2_di_3466_25950" x="24.231" y="24.2305" width="26.5386" height="21.6914" filterUnits="userSpaceOnUse" color-interpolation-filters="sRGB">
<feFlood flood-opacity="0" result="BackgroundImageFix"/>
<feColorMatrix in="SourceAlpha" type="matrix" values="0 0 0 0 0 0 0 0 0 0 0 0 0 0 0 0 0 0 127 0" result="hardAlpha"/>
<feOffset dx="2" dy="2"/>
<feGaussianBlur stdDeviation="0.5"/>
<feComposite in2="hardAlpha" operator="out"/>
<feColorMatrix type="matrix" values="0 0 0 0 0.75 0 0 0 0 0.567353 0 0 0 0 0.103125 0 0 0 0.15 0"/>
<feBlend mode="normal" in2="BackgroundImageFix" result="effect1_dropShadow_3466_25950"/>
<feBlend mode="normal" in="SourceGraphic" in2="effect1_dropShadow_3466_25950" result="shape"/>
<feColorMatrix in="SourceAlpha" type="matrix" values="0 0 0 0 0 0 0 0 0 0 0 0 0 0 0 0 0 0 127 0" result="hardAlpha"/>
<feOffset dx="2" dy="2"/>
<feGaussianBlur stdDeviation="0.5"/>
<feComposite in2="hardAlpha" operator="arithmetic" k2="-1" k3="1"/>
<feColorMatrix type="matrix" values="0 0 0 0 1 0 0 0 0 1 0 0 0 0 1 0 0 0 0.1 0"/>
<feBlend mode="normal" in2="shape" result="effect2_innerShadow_3466_25950"/>
</filter>
<linearGradient id="paint0_linear_3466_25950" x1="19.2434" y1="14.1051" x2="50.6486" y2="60.8465" gradientUnits="userSpaceOnUse">
<stop stop-color="#FFE261"/>
<stop offset="1" stop-color="#FFC940"/>
</linearGradient>
<linearGradient id="paint1_linear_3466_25950" x1="23.077" y1="18.5388" x2="48" y2="50.8465" gradientUnits="userSpaceOnUse">
<stop stop-color="#FFD033"/>
<stop offset="1" stop-color="#FFB81F"/>
</linearGradient>
<linearGradient id="paint2_linear_3466_25950" x1="25.5" y1="21.4238" x2="45.75" y2="47.6738" gradientUnits="userSpaceOnUse">
<stop stop-color="#FFD154"/>
<stop offset="1" stop-color="#FFE261"/>
</linearGradient>
<linearGradient id="paint3_linear_3466_25950" x1="28.6444" y1="28.5141" x2="37.2047" y2="42.8869" gradientUnits="userSpaceOnUse">
<stop stop-color="#FFFCF0"/>
<stop offset="1" stop-color="#FAF3DC"/>
</linearGradient>
</defs>
</svg>
