<svg width="72" height="72" viewBox="0 0 72 72" fill="none" xmlns="http://www.w3.org/2000/svg">
<path d="M34.3337 5.26753C35.3425 4.59364 36.6579 4.59364 37.6666 5.26753L40.1941 6.95596C40.8555 7.39781 41.6654 7.5589 42.4455 7.4038L45.4268 6.81112C46.6166 6.57457 47.8319 7.07793 48.506 8.08656L50.1949 10.6137C50.6369 11.275 51.3234 11.7338 52.1036 11.889L55.0847 12.4823C56.2745 12.7191 57.2046 13.6492 57.4414 14.839L58.0347 17.8201C58.19 18.6003 58.6487 19.2868 59.31 19.7288L61.8372 21.4178C62.8458 22.0919 63.3492 23.3071 63.1126 24.497L62.5199 27.4782C62.3648 28.2583 62.5259 29.0682 62.9678 29.7296L64.6562 32.2571C65.3301 33.2659 65.3301 34.5812 64.6562 35.59L62.9678 38.1175C62.5259 38.7789 62.3648 39.5887 62.5199 40.3689L63.1126 43.3501C63.3492 44.54 62.8458 45.7552 61.8372 46.4293L59.31 48.1183C58.6487 48.5602 58.19 49.2468 58.0347 50.0269L57.4414 53.008C57.2046 54.1978 56.2745 55.1279 55.0847 55.3647L52.1036 55.958C51.3234 56.1133 50.6369 56.572 50.1949 57.2334L48.506 59.7605C47.8319 60.7691 46.6166 61.2725 45.4268 61.0359L42.4455 60.4433C41.6654 60.2882 40.8555 60.4492 40.1941 60.8911L37.6666 62.5795C36.6579 63.2534 35.3425 63.2534 34.3337 62.5795L31.8063 60.8911C31.1448 60.4492 30.335 60.2882 29.5548 60.4433L26.5736 61.0359C25.3837 61.2725 24.1685 60.7691 23.4944 59.7605L21.8055 57.2334C21.3635 56.572 20.6769 56.1133 19.8968 55.958L16.9157 55.3647C15.7259 55.1279 14.7958 54.1978 14.559 53.008L13.9657 50.0269C13.8104 49.2468 13.3517 48.5602 12.6904 48.1183L10.1632 46.4293C9.15459 45.7552 8.65123 44.54 8.88778 43.3501L9.48046 40.3689C9.63556 39.5887 9.47447 38.7789 9.03262 38.1175L7.34419 35.59C6.6703 34.5812 6.6703 33.2659 7.34419 32.2571L9.03262 29.7296C9.47447 29.0682 9.63556 28.2583 9.48046 27.4782L8.88778 24.497C8.65123 23.3071 9.15459 22.0919 10.1632 21.4178L12.6904 19.7288C13.3517 19.2868 13.8104 18.6003 13.9657 17.8201L14.559 14.839C14.7958 13.6492 15.7259 12.7191 16.9157 12.4823L19.8968 11.889C20.6769 11.7338 21.3635 11.275 21.8055 10.6137L23.4944 8.08657C24.1685 7.07793 25.3837 6.57457 26.5736 6.81112L29.5548 7.4038C30.335 7.5589 31.1448 7.39781 31.8063 6.95596L34.3337 5.26753Z" fill="url(#paint0_linear_3449_24400)"/>
<g filter="url(#filter0_di_3449_24400)">
<circle cx="36" cy="33.9234" r="22.1538" fill="url(#paint1_linear_3449_24400)"/>
</g>
<g filter="url(#filter1_i_3449_24400)">
<circle cx="36" cy="33.9238" r="18" fill="url(#paint2_linear_3449_24400)"/>
</g>
<g filter="url(#filter2_di_3449_24400)">
<path d="M28.7729 34.3206C28.9244 34.2445 29.1353 34.1303 29.4057 33.9781C29.6762 33.8259 30.1764 33.478 30.9066 32.9344C31.6367 32.3908 32.31 31.8091 32.9266 31.1894C33.316 30.798 33.6865 30.3522 34.038 29.8521C34.3896 29.352 34.6816 28.8818 34.9142 28.4414C35.1468 28.0011 35.3523 27.5907 35.5308 27.2101C35.7092 26.8296 35.8363 26.5306 35.912 26.3132L36.0419 25.9707C36.0635 26.0577 36.1013 26.1746 36.1554 26.3213C36.2095 26.4681 36.3339 26.7589 36.5286 27.1938C36.7233 27.6287 36.9315 28.05 37.1533 28.4577C37.375 28.8654 37.6671 29.3248 38.0294 29.8358C38.3918 30.3468 38.7677 30.798 39.1571 31.1894C39.7628 31.8091 40.4118 32.3799 41.1041 32.9018C41.7964 33.4236 42.3372 33.7879 42.7266 33.9944L43.2945 34.3206C43.1431 34.3967 42.9322 34.5136 42.6617 34.6712C42.3913 34.8289 41.891 35.1768 41.1609 35.715C40.4308 36.2532 39.7628 36.8321 39.1571 37.4518C38.7677 37.8432 38.3945 38.289 38.0376 38.7891C37.6806 39.2892 37.3858 39.7595 37.1533 40.1998C36.9207 40.6401 36.7152 41.0505 36.5367 41.4311C36.3582 41.8116 36.2311 42.1106 36.1554 42.328L36.0419 42.6705C36.0094 42.5835 35.9661 42.4667 35.912 42.3199C35.858 42.1731 35.7336 41.8823 35.5389 41.4474C35.3442 41.0125 35.1359 40.5912 34.9142 40.1835C34.6925 39.7758 34.4031 39.3164 34.0461 38.8054C33.6892 38.2944 33.316 37.8432 32.9266 37.4518C32.31 36.8321 31.6529 36.2613 30.9552 35.7394C30.2576 35.2176 29.7248 34.8506 29.3571 34.6386C28.9893 34.4266 28.7946 34.3206 28.7729 34.3206Z" fill="url(#paint3_linear_3449_24400)"/>
</g>
<path d="M25.1426 27.3887C25.2032 27.3622 25.2875 27.3225 25.3957 27.2696C25.5039 27.2166 25.704 27.0956 25.996 26.9065C26.2881 26.7174 26.5574 26.5151 26.804 26.2996C26.9598 26.1634 27.108 26.0084 27.2486 25.8344C27.3892 25.6605 27.5061 25.4969 27.5991 25.3438C27.6921 25.1906 27.7743 25.0478 27.8457 24.9155C27.9171 24.7831 27.9679 24.6791 27.9982 24.6035L28.0501 24.4844C28.0588 24.5146 28.0739 24.5553 28.0956 24.6063C28.1172 24.6574 28.167 24.7585 28.2448 24.9098C28.3227 25.0611 28.406 25.2076 28.4947 25.3494C28.5834 25.4912 28.7002 25.651 28.8452 25.8288C28.9901 26.0065 29.1405 26.1634 29.2962 26.2996C29.5385 26.5151 29.7981 26.7137 30.075 26.8952C30.352 27.0767 30.5683 27.2034 30.7241 27.2752L30.9512 27.3887C30.8906 27.4152 30.8063 27.4558 30.6981 27.5106C30.5899 27.5655 30.3898 27.6865 30.0978 27.8737C29.8057 28.0609 29.5385 28.2623 29.2962 28.4778C29.1405 28.6139 28.9912 28.769 28.8484 28.943C28.7056 29.1169 28.5877 29.2805 28.4947 29.4336C28.4017 29.5868 28.3195 29.7295 28.2481 29.8619C28.1767 29.9943 28.1259 30.0982 28.0956 30.1739L28.0501 30.293C28.0372 30.2628 28.0199 30.2221 27.9982 30.171C27.9766 30.12 27.9268 30.0188 27.8489 29.8676C27.7711 29.7163 27.6878 29.5698 27.5991 29.428C27.5104 29.2861 27.3946 29.1264 27.2519 28.9486C27.1091 28.7709 26.9598 28.6139 26.804 28.4778C26.5574 28.2623 26.2946 28.0637 26.0155 27.8822C25.7364 27.7007 25.5233 27.573 25.3762 27.4993C25.2291 27.4256 25.1512 27.3887 25.1426 27.3887Z" fill="#FCF8E8"/>
<path d="M25.1426 41.9102C25.2032 41.8837 25.2875 41.844 25.3957 41.7911C25.5039 41.7381 25.704 41.6171 25.996 41.428C26.2881 41.2389 26.5574 41.0366 26.804 40.8211C26.9598 40.6849 27.108 40.5299 27.2486 40.3559C27.3892 40.182 27.5061 40.0184 27.5991 39.8652C27.6921 39.7121 27.7743 39.5693 27.8457 39.437C27.9171 39.3046 27.9679 39.2006 27.9982 39.125L28.0501 39.0059C28.0588 39.0361 28.0739 39.0768 28.0956 39.1278C28.1172 39.1789 28.167 39.28 28.2448 39.4313C28.3227 39.5826 28.406 39.7291 28.4947 39.8709C28.5834 40.0127 28.7002 40.1725 28.8452 40.3502C28.9901 40.528 29.1405 40.6849 29.2962 40.8211C29.5385 41.0366 29.7981 41.2352 30.075 41.4167C30.352 41.5982 30.5683 41.7249 30.7241 41.7967L30.9512 41.9102C30.8906 41.9366 30.8063 41.9773 30.6981 42.0321C30.5899 42.087 30.3898 42.208 30.0978 42.3952C29.8057 42.5824 29.5385 42.7837 29.2962 42.9993C29.1405 43.1354 28.9912 43.2905 28.8484 43.4644C28.7056 43.6384 28.5877 43.802 28.4947 43.9551C28.4017 44.1083 28.3195 44.251 28.2481 44.3834C28.1767 44.5157 28.1259 44.6197 28.0956 44.6954L28.0501 44.8145C28.0372 44.7842 28.0199 44.7436 27.9982 44.6925C27.9766 44.6415 27.9268 44.5403 27.8489 44.3891C27.7711 44.2378 27.6878 44.0913 27.5991 43.9494C27.5104 43.8076 27.3946 43.6479 27.2519 43.4701C27.1091 43.2924 26.9598 43.1354 26.804 42.9993C26.5574 42.7837 26.2946 42.5852 26.0155 42.4037C25.7364 42.2222 25.5233 42.0945 25.3762 42.0208C25.2291 41.947 25.1512 41.9102 25.1426 41.9102Z" fill="#FCF8E8"/>
<path d="M41.8086 27.3887C41.8616 27.3622 41.9354 27.3225 42.0301 27.2696C42.1247 27.2166 42.2998 27.0956 42.5554 26.9065C42.8109 26.7174 43.0466 26.5151 43.2624 26.2996C43.3987 26.1634 43.5283 26.0084 43.6514 25.8344C43.7744 25.6605 43.8766 25.4969 43.958 25.3438C44.0394 25.1906 44.1114 25.0478 44.1738 24.9155C44.2363 24.7831 44.2808 24.6791 44.3073 24.6035L44.3527 24.4844C44.3603 24.5146 44.3735 24.5553 44.3925 24.6063C44.4114 24.6574 44.4549 24.7585 44.5231 24.9098C44.5912 25.0611 44.6641 25.2076 44.7417 25.3494C44.8193 25.4912 44.9215 25.651 45.0484 25.8288C45.1752 26.0065 45.3068 26.1634 45.443 26.2996C45.6551 26.5151 45.8822 26.7137 46.1245 26.8952C46.3668 27.0767 46.5561 27.2034 46.6924 27.2752L46.8911 27.3887C46.8381 27.4152 46.7643 27.4558 46.6697 27.5106C46.575 27.5655 46.3999 27.6865 46.1444 27.8737C45.8888 28.0609 45.6551 28.2623 45.443 28.4778C45.3068 28.6139 45.1761 28.769 45.0512 28.943C44.9263 29.1169 44.8231 29.2805 44.7417 29.4336C44.6603 29.5868 44.5884 29.7295 44.5259 29.8619C44.4634 29.9943 44.419 30.0982 44.3925 30.1739L44.3527 30.293C44.3414 30.2628 44.3262 30.2221 44.3073 30.171C44.2883 30.12 44.2448 30.0188 44.1767 29.8676C44.1085 29.7163 44.0356 29.5698 43.958 29.428C43.8804 29.2861 43.7791 29.1264 43.6542 28.9486C43.5293 28.7709 43.3987 28.6139 43.2624 28.4778C43.0466 28.2623 42.8166 28.0637 42.5724 27.8822C42.3282 27.7007 42.1418 27.573 42.013 27.4993C41.8843 27.4256 41.8162 27.3887 41.8086 27.3887Z" fill="#FCF8E8"/>
<path d="M41.8086 41.9102C41.8616 41.8837 41.9354 41.844 42.0301 41.7911C42.1247 41.7381 42.2998 41.6171 42.5554 41.428C42.8109 41.2389 43.0466 41.0366 43.2624 40.8211C43.3987 40.6849 43.5283 40.5299 43.6514 40.3559C43.7744 40.182 43.8766 40.0184 43.958 39.8652C44.0394 39.7121 44.1114 39.5693 44.1738 39.437C44.2363 39.3046 44.2808 39.2006 44.3073 39.125L44.3527 39.0059C44.3603 39.0361 44.3735 39.0768 44.3925 39.1278C44.4114 39.1789 44.4549 39.28 44.5231 39.4313C44.5912 39.5826 44.6641 39.7291 44.7417 39.8709C44.8193 40.0127 44.9215 40.1725 45.0484 40.3502C45.1752 40.528 45.3068 40.6849 45.443 40.8211C45.6551 41.0366 45.8822 41.2352 46.1245 41.4167C46.3668 41.5982 46.5561 41.7249 46.6924 41.7967L46.8911 41.9102C46.8381 41.9366 46.7643 41.9773 46.6697 42.0321C46.575 42.087 46.3999 42.208 46.1444 42.3952C45.8888 42.5824 45.6551 42.7837 45.443 42.9993C45.3068 43.1354 45.1761 43.2905 45.0512 43.4644C44.9263 43.6384 44.8231 43.802 44.7417 43.9551C44.6603 44.1083 44.5884 44.251 44.5259 44.3834C44.4634 44.5157 44.419 44.6197 44.3925 44.6954L44.3527 44.8145C44.3414 44.7842 44.3262 44.7436 44.3073 44.6925C44.2883 44.6415 44.2448 44.5403 44.1767 44.3891C44.1085 44.2378 44.0356 44.0913 43.958 43.9494C43.8804 43.8076 43.7791 43.6479 43.6542 43.4701C43.5293 43.2924 43.3987 43.1354 43.2624 42.9993C43.0466 42.7837 42.8166 42.5852 42.5724 42.4037C42.3282 42.2222 42.1418 42.0945 42.013 42.0208C41.8843 41.947 41.8162 41.9102 41.8086 41.9102Z" fill="#FCF8E8"/>
<path d="M19.3848 58.1543L19.3848 69.2312L5.53861 69.2312L9.30318 63.6928L5.53861 58.1543L19.3848 58.1543Z" fill="#6F65E0"/>
<path d="M52.6152 69.2305L52.6152 58.1535L66.4614 58.1535L62.6968 63.692L66.4614 69.2305L52.6152 69.2305Z" fill="#6F65E0"/>
<rect x="13.8462" y="54" width="44.3077" height="12.4615" fill="#8177F7"/>
<path d="M28.0635 63.0762H29.9468C31.4268 63.0762 32.2983 62.1567 32.2983 60.5913V60.5845C32.2983 59.0225 31.4233 58.144 29.9468 58.144H28.0635V63.0762ZM29.0957 62.2217V58.9951H29.8237C30.7295 58.9951 31.2456 59.5591 31.2456 60.5879V60.5947C31.2456 61.6611 30.7466 62.2217 29.8237 62.2217H29.0957ZM32.9648 63.0762H33.9971V58.144H32.9648V63.0762ZM34.5029 63.0762H35.5864L35.959 61.8799H37.7021L38.0747 63.0762H39.1582L37.439 58.144H36.2256L34.5029 63.0762ZM36.8203 59.1011H36.8408L37.4629 61.1074H36.1982L36.8203 59.1011ZM41.0518 63.0762H42.084V58.144H41.0518V63.0762ZM42.9043 63.0762H43.9365V58.144H42.9043V63.0762Z" fill="white"/>
<defs>
<filter id="filter0_di_3449_24400" x="13.8462" y="11.7695" width="47.3076" height="47.3086" filterUnits="userSpaceOnUse" color-interpolation-filters="sRGB">
<feFlood flood-opacity="0" result="BackgroundImageFix"/>
<feColorMatrix in="SourceAlpha" type="matrix" values="0 0 0 0 0 0 0 0 0 0 0 0 0 0 0 0 0 0 127 0" result="hardAlpha"/>
<feOffset dx="2" dy="2"/>
<feGaussianBlur stdDeviation="0.5"/>
<feComposite in2="hardAlpha" operator="out"/>
<feColorMatrix type="matrix" values="0 0 0 0 1 0 0 0 0 1 0 0 0 0 1 0 0 0 0.05 0"/>
<feBlend mode="normal" in2="BackgroundImageFix" result="effect1_dropShadow_3449_24400"/>
<feBlend mode="normal" in="SourceGraphic" in2="effect1_dropShadow_3449_24400" result="shape"/>
<feColorMatrix in="SourceAlpha" type="matrix" values="0 0 0 0 0 0 0 0 0 0 0 0 0 0 0 0 0 0 127 0" result="hardAlpha"/>
<feOffset dx="2" dy="2"/>
<feGaussianBlur stdDeviation="0.5"/>
<feComposite in2="hardAlpha" operator="arithmetic" k2="-1" k3="1"/>
<feColorMatrix type="matrix" values="0 0 0 0 0.905882 0 0 0 0 0.729412 0 0 0 0 0.290196 0 0 0 0.2 0"/>
<feBlend mode="normal" in2="shape" result="effect2_innerShadow_3449_24400"/>
</filter>
<filter id="filter1_i_3449_24400" x="18" y="15.9238" width="36" height="36" filterUnits="userSpaceOnUse" color-interpolation-filters="sRGB">
<feFlood flood-opacity="0" result="BackgroundImageFix"/>
<feBlend mode="normal" in="SourceGraphic" in2="BackgroundImageFix" result="shape"/>
<feColorMatrix in="SourceAlpha" type="matrix" values="0 0 0 0 0 0 0 0 0 0 0 0 0 0 0 0 0 0 127 0" result="hardAlpha"/>
<feOffset dx="2" dy="2"/>
<feComposite in2="hardAlpha" operator="arithmetic" k2="-1" k3="1"/>
<feColorMatrix type="matrix" values="0 0 0 0 1 0 0 0 0 1 0 0 0 0 1 0 0 0 0.2 0"/>
<feBlend mode="normal" in2="shape" result="effect1_innerShadow_3449_24400"/>
</filter>
<filter id="filter2_di_3449_24400" x="28.7729" y="25.9707" width="17.5215" height="19.6992" filterUnits="userSpaceOnUse" color-interpolation-filters="sRGB">
<feFlood flood-opacity="0" result="BackgroundImageFix"/>
<feColorMatrix in="SourceAlpha" type="matrix" values="0 0 0 0 0 0 0 0 0 0 0 0 0 0 0 0 0 0 127 0" result="hardAlpha"/>
<feOffset dx="2" dy="2"/>
<feGaussianBlur stdDeviation="0.5"/>
<feComposite in2="hardAlpha" operator="out"/>
<feColorMatrix type="matrix" values="0 0 0 0 0.75 0 0 0 0 0.567353 0 0 0 0 0.103125 0 0 0 0.15 0"/>
<feBlend mode="normal" in2="BackgroundImageFix" result="effect1_dropShadow_3449_24400"/>
<feBlend mode="normal" in="SourceGraphic" in2="effect1_dropShadow_3449_24400" result="shape"/>
<feColorMatrix in="SourceAlpha" type="matrix" values="0 0 0 0 0 0 0 0 0 0 0 0 0 0 0 0 0 0 127 0" result="hardAlpha"/>
<feOffset dx="2" dy="2"/>
<feGaussianBlur stdDeviation="0.5"/>
<feComposite in2="hardAlpha" operator="arithmetic" k2="-1" k3="1"/>
<feColorMatrix type="matrix" values="0 0 0 0 1 0 0 0 0 1 0 0 0 0 1 0 0 0 0.1 0"/>
<feBlend mode="normal" in2="shape" result="effect2_innerShadow_3449_24400"/>
</filter>
<linearGradient id="paint0_linear_3449_24400" x1="19.2434" y1="14.1051" x2="50.6486" y2="60.8465" gradientUnits="userSpaceOnUse">
<stop stop-color="#FFE261"/>
<stop offset="1" stop-color="#FFC940"/>
</linearGradient>
<linearGradient id="paint1_linear_3449_24400" x1="23.077" y1="18.5388" x2="48" y2="50.8465" gradientUnits="userSpaceOnUse">
<stop stop-color="#FFD033"/>
<stop offset="1" stop-color="#FFB81F"/>
</linearGradient>
<linearGradient id="paint2_linear_3449_24400" x1="25.5" y1="21.4238" x2="45.75" y2="47.6738" gradientUnits="userSpaceOnUse">
<stop stop-color="#FFD154"/>
<stop offset="1" stop-color="#FFE261"/>
</linearGradient>
<linearGradient id="paint3_linear_3449_24400" x1="31.4957" y1="29.7977" x2="40.0993" y2="39.7728" gradientUnits="userSpaceOnUse">
<stop stop-color="#FFFCF0"/>
<stop offset="1" stop-color="#FAF3DC"/>
</linearGradient>
</defs>
</svg>
