<svg width="72" height="72" viewBox="0 0 72 72" fill="none" xmlns="http://www.w3.org/2000/svg">
<path d="M59.6885 13.9543L36.4978 6.99692C36.1731 6.89946 35.827 6.89946 35.5022 6.99692L12.311 13.9543C11.5784 14.174 11.0767 14.8484 11.0767 15.6133V41.1234C11.0767 44.4415 12.42 47.838 15.0691 51.2188C17.0923 53.8008 19.8915 56.3935 23.3887 58.9251C29.2637 63.1778 35.0488 65.7866 35.2922 65.8955C35.5173 65.9963 35.7586 66.0467 36 66.0467C36.2413 66.0467 36.4827 65.9964 36.7077 65.8955C36.951 65.7866 42.7361 63.1778 48.611 58.9251C52.1082 56.3935 54.9073 53.8008 56.9306 51.2188C59.5797 47.8381 60.9228 44.4416 60.9228 41.1234V15.6133C60.9228 14.8484 60.4213 14.174 59.6885 13.9543Z" fill="#20A556"/>
<path d="M48.2753 33.8583H34.8178C34.7884 33.8584 34.7597 33.8673 34.7354 33.8838C34.7112 33.9003 34.6924 33.9237 34.6816 33.9509C34.6708 33.9781 34.6685 34.0079 34.6749 34.0364C34.6813 34.065 34.6961 34.0909 34.7175 34.111L38.3409 37.7228C38.3689 37.7508 38.4022 37.7729 38.439 37.7877C38.4758 37.8026 38.5152 37.8099 38.5549 37.8092H43.6357C43.0428 39.626 41.8183 41.1729 40.182 42.1722C38.5458 43.1714 36.6051 43.5574 34.7085 43.261C32.812 42.9645 31.0837 42.0049 29.8343 40.5546C28.5849 39.1043 27.8962 37.2583 27.8918 35.3482C27.8928 34.7668 27.9555 34.1871 28.079 33.6188L24.6628 30.2266C23.865 31.9626 23.4825 33.8589 23.5452 35.7668C23.608 37.6747 24.1143 39.5421 25.0245 41.2225C25.9347 42.903 27.2239 44.3506 28.791 45.4519C30.3581 46.5531 32.1605 47.278 34.0565 47.5696C35.9526 47.8613 37.8908 47.7117 39.719 47.1326C41.5472 46.5536 43.2156 45.5609 44.5933 44.2323C45.971 42.9038 47.0204 41.2756 47.6593 39.4757C48.2981 37.6757 48.509 35.7529 48.2753 33.8583V33.8583Z" fill="white"/>
<path d="M36.2352 27.1521C37.5578 27.1528 38.8579 27.4979 40.0097 28.1542C41.1615 28.8104 42.1262 29.7556 42.8104 30.8983L46.3544 27.3202C45.1959 25.7301 43.6856 24.4351 41.9439 23.5383C40.2022 22.6414 38.2771 22.1676 36.322 22.1546C34.3668 22.1415 32.4357 22.5896 30.6824 23.463C28.929 24.3365 27.4019 25.6112 26.2227 27.1857L29.7601 30.7571C30.4513 29.6542 31.4072 28.7455 32.5392 28.1153C33.6712 27.4851 34.9426 27.1538 36.2352 27.1521V27.1521Z" fill="white"/>
</svg>
