<svg width="72" height="72" viewBox="0 0 72 72" fill="none" xmlns="http://www.w3.org/2000/svg">
<path d="M59.6885 11.1847L36.4978 4.22739C36.1731 4.12993 35.827 4.12993 35.5022 4.22739L12.311 11.1847C11.5784 11.4045 11.0767 12.0788 11.0767 12.8437V38.3539C11.0767 41.6719 12.42 45.0685 15.0691 48.4492C17.0923 51.0313 19.8915 53.624 23.3887 56.1555C29.2637 60.4082 35.0488 63.017 35.2922 63.1259C35.5173 63.2267 35.7586 63.2772 36 63.2772C36.2413 63.2772 36.4827 63.2269 36.7077 63.1259C36.951 63.017 42.7361 60.4082 48.611 56.1555C52.1082 53.624 54.9073 51.0313 56.9306 48.4492C59.5797 45.0686 60.9228 41.6721 60.9228 38.3539V12.8437C60.9228 12.0788 60.4213 11.4045 59.6885 11.1847Z" fill="url(#paint0_linear_3449_24258)"/>
<g filter="url(#filter0_di_3449_24258)">
<path d="M55.0824 15.262L36.401 9.74932C36.1394 9.6721 35.8606 9.6721 35.5989 9.74932L16.9172 15.262C16.327 15.4361 15.9229 15.9704 15.9229 16.5765V36.7895C15.9229 39.4186 17.005 42.1099 19.139 44.7886C20.7688 46.8345 23.0237 48.8888 25.8409 50.8947C30.5735 54.2643 35.2337 56.3314 35.4298 56.4177C35.6111 56.4976 35.8055 56.5376 36 56.5376C36.1944 56.5376 36.3888 56.4977 36.5701 56.4177C36.7661 56.3314 41.4263 54.2643 46.1589 50.8947C48.976 48.8888 51.2309 46.8345 52.8608 44.7886C54.9948 42.11 56.0767 39.4187 56.0767 36.7895V16.5765C56.0767 15.9704 55.6727 15.4361 55.0824 15.262Z" fill="url(#paint1_linear_3449_24258)"/>
</g>
<g filter="url(#filter1_di_3449_24258)">
<path d="M43.3045 23.1678C43.116 22.7537 42.5775 22.7372 42.352 23.128C41.3086 24.9134 39.4407 26.0263 37.3068 26.0263H34.6142C31.0466 26.0263 28.1521 28.875 28.1521 32.3861C28.1521 32.6179 28.179 32.8399 28.2026 33.0651C30.3499 31.5514 33.4497 30.2662 37.8453 30.2662C38.1415 30.2662 38.3838 30.5047 38.3838 30.7961C38.3838 31.0876 38.1415 31.3261 37.8453 31.3261C29.3839 31.3261 25.7961 36.4305 25.0018 38.3483C24.7797 38.8882 25.0422 39.5043 25.5908 39.7263C26.1428 39.9515 26.7688 39.6898 26.9976 39.1532C27.0481 39.034 27.7011 37.5666 29.4176 36.1522C30.5081 37.6063 32.5814 38.9942 35.3042 38.7094C40.5884 38.3318 44.3075 33.668 44.3075 27.9575C44.3075 26.2946 43.944 24.5722 43.3045 23.1678Z" fill="url(#paint2_linear_3449_24258)"/>
</g>
<path d="M19.3848 58.1543L19.3848 69.2312L5.53861 69.2312L9.30318 63.6928L5.53861 58.1543L19.3848 58.1543Z" fill="#14C7A9"/>
<path d="M52.6152 69.2305L52.6152 58.1535L66.4614 58.1535L62.6968 63.692L66.4614 69.2305L52.6152 69.2305Z" fill="#14C7A9"/>
<rect x="13.8462" y="54" width="44.3077" height="12.4615" fill="#1ED9AD"/>
<path d="M21.4575 63H23.6416C24.6943 63 25.3472 62.46 25.3472 61.5952V61.5884C25.3472 60.9424 24.8516 60.457 24.1646 60.4058V60.3853C24.708 60.3135 25.1182 59.8521 25.1182 59.312V59.3052C25.1182 58.5464 24.5337 58.0679 23.604 58.0679H21.4575V63ZM23.3374 58.8335C23.8193 58.8335 24.103 59.0591 24.103 59.4521V59.459C24.103 59.8862 23.792 60.1289 23.2109 60.1289H22.4897V58.8335H23.3374ZM23.334 60.8296C23.9663 60.8296 24.2944 61.0723 24.2944 61.5234V61.5303C24.2944 61.9883 23.9697 62.231 23.3784 62.231H22.4897V60.8296H23.334ZM25.9351 63H26.9673V61.2124H27.7944L28.7139 63H29.8828L28.8438 61.0586C29.3906 60.8433 29.7358 60.3032 29.7358 59.6538V59.647C29.7358 58.6558 29.0796 58.0679 27.9722 58.0679H25.9351V63ZM26.9673 60.4297V58.8745H27.8457C28.355 58.8745 28.6797 59.1753 28.6797 59.647V59.6538C28.6797 60.1392 28.3721 60.4297 27.8594 60.4297H26.9673ZM32.6445 63.0854C34.1108 63.0854 35.0234 62.1045 35.0234 60.5356V60.5288C35.0234 58.9634 34.1074 57.9824 32.6445 57.9824C31.1851 57.9824 30.2656 58.96 30.2656 60.5288V60.5356C30.2656 62.1045 31.1782 63.0854 32.6445 63.0854ZM32.6445 62.2104C31.8345 62.2104 31.3184 61.5679 31.3184 60.5356V60.5288C31.3184 59.4966 31.8379 58.8574 32.6445 58.8574C33.4546 58.8574 33.9707 59.5 33.9707 60.5288V60.5356C33.9707 61.5576 33.4648 62.2104 32.6445 62.2104ZM35.6899 63H36.7188V59.77H36.7393L38.9746 63H39.8701V58.0679H38.8413V61.2739H38.8208L36.5923 58.0679H35.6899V63ZM40.5879 63H44.3955V62.1489H41.8286V62.1284L44.3271 58.7378V58.0679H40.646V58.9189H43.0967V58.9395L40.5879 62.3267V63ZM45.1099 63H48.3774V62.1489H46.1421V60.9082H48.251V60.1016H46.1421V58.9189H48.3774V58.0679H45.1099V63ZM50.5103 63H51.5425V58.0679H50.5103V63Z" fill="white"/>
<defs>
<filter id="filter0_di_3449_24258" x="15.9229" y="9.69141" width="43.1538" height="49.8457" filterUnits="userSpaceOnUse" color-interpolation-filters="sRGB">
<feFlood flood-opacity="0" result="BackgroundImageFix"/>
<feColorMatrix in="SourceAlpha" type="matrix" values="0 0 0 0 0 0 0 0 0 0 0 0 0 0 0 0 0 0 127 0" result="hardAlpha"/>
<feOffset dx="2" dy="2"/>
<feGaussianBlur stdDeviation="0.5"/>
<feComposite in2="hardAlpha" operator="out"/>
<feColorMatrix type="matrix" values="0 0 0 0 1 0 0 0 0 1 0 0 0 0 1 0 0 0 0.05 0"/>
<feBlend mode="normal" in2="BackgroundImageFix" result="effect1_dropShadow_3449_24258"/>
<feBlend mode="normal" in="SourceGraphic" in2="effect1_dropShadow_3449_24258" result="shape"/>
<feColorMatrix in="SourceAlpha" type="matrix" values="0 0 0 0 0 0 0 0 0 0 0 0 0 0 0 0 0 0 127 0" result="hardAlpha"/>
<feOffset dx="2" dy="2"/>
<feGaussianBlur stdDeviation="0.5"/>
<feComposite in2="hardAlpha" operator="arithmetic" k2="-1" k3="1"/>
<feColorMatrix type="matrix" values="0 0 0 0 0.858824 0 0 0 0 0.541176 0 0 0 0 0.32549 0 0 0 0.2 0"/>
<feBlend mode="normal" in2="shape" result="effect2_innerShadow_3449_24258"/>
</filter>
<filter id="filter1_di_3449_24258" x="24.9229" y="22.8457" width="21.3848" height="18.9609" filterUnits="userSpaceOnUse" color-interpolation-filters="sRGB">
<feFlood flood-opacity="0" result="BackgroundImageFix"/>
<feColorMatrix in="SourceAlpha" type="matrix" values="0 0 0 0 0 0 0 0 0 0 0 0 0 0 0 0 0 0 127 0" result="hardAlpha"/>
<feOffset dx="2" dy="2"/>
<feComposite in2="hardAlpha" operator="out"/>
<feColorMatrix type="matrix" values="0 0 0 0 0.829167 0 0 0 0 0.525517 0 0 0 0 0.310938 0 0 0 0.5 0"/>
<feBlend mode="normal" in2="BackgroundImageFix" result="effect1_dropShadow_3449_24258"/>
<feBlend mode="normal" in="SourceGraphic" in2="effect1_dropShadow_3449_24258" result="shape"/>
<feColorMatrix in="SourceAlpha" type="matrix" values="0 0 0 0 0 0 0 0 0 0 0 0 0 0 0 0 0 0 127 0" result="hardAlpha"/>
<feOffset dx="2" dy="2"/>
<feGaussianBlur stdDeviation="0.5"/>
<feComposite in2="hardAlpha" operator="arithmetic" k2="-1" k3="1"/>
<feColorMatrix type="matrix" values="0 0 0 0 1 0 0 0 0 1 0 0 0 0 1 0 0 0 0.05 0"/>
<feBlend mode="normal" in2="shape" result="effect2_innerShadow_3449_24258"/>
</filter>
<linearGradient id="paint0_linear_3449_24258" x1="21.9708" y1="14.0357" x2="54.8057" y2="55.2371" gradientUnits="userSpaceOnUse">
<stop stop-color="#F7D2A1"/>
<stop offset="1" stop-color="#E0905A"/>
</linearGradient>
<linearGradient id="paint1_linear_3449_24258" x1="24.2882" y1="16.8485" x2="51.381" y2="46.9515" gradientUnits="userSpaceOnUse">
<stop stop-color="#EDB984"/>
<stop offset="1" stop-color="#DB8D58"/>
</linearGradient>
<linearGradient id="paint2_linear_3449_24258" x1="29.1595" y1="25.6805" x2="37.6035" y2="40.0434" gradientUnits="userSpaceOnUse">
<stop stop-color="#FFF4E6"/>
<stop offset="1" stop-color="#FAD5AA"/>
</linearGradient>
</defs>
</svg>
