<svg width="72" height="72" viewBox="0 0 72 72" fill="none" xmlns="http://www.w3.org/2000/svg">
<path d="M59.6885 11.1847L36.4978 4.22739C36.1731 4.12993 35.827 4.12993 35.5022 4.22739L12.311 11.1847C11.5784 11.4045 11.0767 12.0788 11.0767 12.8437V38.3539C11.0767 41.6719 12.42 45.0685 15.0691 48.4492C17.0923 51.0313 19.8915 53.624 23.3887 56.1555C29.2637 60.4082 35.0488 63.017 35.2922 63.1259C35.5173 63.2267 35.7586 63.2772 36 63.2772C36.2413 63.2772 36.4827 63.2269 36.7077 63.1259C36.951 63.017 42.7361 60.4082 48.611 56.1555C52.1082 53.624 54.9073 51.0313 56.9306 48.4492C59.5797 45.0686 60.9228 41.6721 60.9228 38.3539V12.8437C60.9228 12.0788 60.4213 11.4045 59.6885 11.1847Z" fill="url(#paint0_linear_3449_24366)"/>
<g filter="url(#filter0_di_3449_24366)">
<path d="M55.0824 15.262L36.401 9.74932C36.1394 9.6721 35.8606 9.6721 35.5989 9.74932L16.9172 15.262C16.327 15.4361 15.9229 15.9704 15.9229 16.5765V36.7895C15.9229 39.4186 17.005 42.1099 19.139 44.7886C20.7688 46.8345 23.0237 48.8888 25.8409 50.8947C30.5735 54.2643 35.2337 56.3314 35.4298 56.4177C35.6111 56.4976 35.8055 56.5376 36 56.5376C36.1944 56.5376 36.3888 56.4977 36.5701 56.4177C36.7661 56.3314 41.4263 54.2643 46.1589 50.8947C48.976 48.8888 51.2309 46.8345 52.8608 44.7886C54.9948 42.11 56.0767 39.4187 56.0767 36.7895V16.5765C56.0767 15.9704 55.6727 15.4361 55.0824 15.262Z" fill="url(#paint1_linear_3449_24366)"/>
</g>
<path d="M19.3848 58.1543L19.3848 69.2312L5.53861 69.2312L9.30318 63.6928L5.53861 58.1543L19.3848 58.1543Z" fill="#356A8C"/>
<path d="M52.6152 69.2305L52.6152 58.1535L66.4614 58.1535L62.6968 63.692L66.4614 69.2305L52.6152 69.2305Z" fill="#356A8C"/>
<rect x="13.8462" y="54" width="44.3077" height="12.4615" fill="#3B80AD"/>
<path d="M26.5528 63.1616C27.9268 63.1616 28.7403 62.3481 28.7403 61.0049V60.4375H26.6075V61.2065H27.7354L27.732 61.2783C27.7046 61.8867 27.2432 62.2866 26.5699 62.2866C25.7495 62.2866 25.23 61.6543 25.23 60.5845V60.5811C25.23 59.5352 25.7188 58.9336 26.5323 58.9336C27.0894 58.9336 27.4825 59.2104 27.6465 59.689L27.6602 59.7231H28.6958L28.6856 59.6753C28.5215 58.749 27.7149 58.0586 26.5288 58.0586C25.083 58.0586 24.1773 59.0122 24.1773 60.5913V60.5947C24.1773 62.2012 25.0796 63.1616 26.5528 63.1616ZM31.649 63.1616C33.1153 63.1616 34.0279 62.1807 34.0279 60.6118V60.605C34.0279 59.0396 33.1119 58.0586 31.649 58.0586C30.1895 58.0586 29.2701 59.0361 29.2701 60.605V60.6118C29.2701 62.1807 30.1827 63.1616 31.649 63.1616ZM31.649 62.2866C30.8389 62.2866 30.3228 61.644 30.3228 60.6118V60.605C30.3228 59.5728 30.8423 58.9336 31.649 58.9336C32.459 58.9336 32.9751 59.5762 32.9751 60.605V60.6118C32.9751 61.6338 32.4693 62.2866 31.649 62.2866ZM34.6944 63.0762H37.8833V62.2251H35.7266V58.144H34.6944V63.0762ZM38.4952 63.0762H40.3785C41.8584 63.0762 42.73 62.1567 42.73 60.5913V60.5845C42.73 59.0225 41.855 58.144 40.3785 58.144H38.4952V63.0762ZM39.5274 62.2217V58.9951H40.2554C41.1612 58.9951 41.6773 59.5591 41.6773 60.5879V60.5947C41.6773 61.6611 41.1783 62.2217 40.2554 62.2217H39.5274ZM44.7842 63.0762H45.8164V58.144H44.7842V63.0762ZM46.6368 63.0762H47.669V58.144H46.6368V63.0762Z" fill="white"/>
<g filter="url(#filter1_di_3449_24366)">
<path d="M28.1801 26.7408C28.547 25.9976 29.6068 25.9976 29.9736 26.7408L30.8789 28.575C31.0245 28.8702 31.3061 29.0747 31.6318 29.1221L33.656 29.4162C34.4762 29.5354 34.8037 30.5433 34.2102 31.1219L32.7455 32.5496C32.5098 32.7794 32.4022 33.1103 32.4579 33.4347L32.8036 35.4507C32.9438 36.2676 32.0863 36.8906 31.3527 36.5049L29.5422 35.5531C29.2509 35.3999 28.9029 35.3999 28.6115 35.5531L26.8011 36.5049C26.0674 36.8906 25.21 36.2676 25.3501 35.4507L25.6959 33.4347C25.7515 33.1103 25.644 32.7793 25.4083 32.5496L23.9436 31.1219C23.3501 30.5433 23.6776 29.5354 24.4978 29.4162L26.522 29.1221C26.8477 29.0747 27.1293 28.8702 27.2749 28.575L28.1801 26.7408Z" fill="url(#paint2_linear_3449_24366)"/>
</g>
<g filter="url(#filter2_di_3449_24366)">
<path d="M42.0263 26.7408C42.3932 25.9976 43.453 25.9976 43.8198 26.7408L44.725 28.575C44.8707 28.8702 45.1523 29.0747 45.478 29.1221L47.5022 29.4162C48.3224 29.5354 48.6499 30.5433 48.0564 31.1219L46.5917 32.5496C46.356 32.7794 46.2484 33.1103 46.3041 33.4347L46.6498 35.4507C46.7899 36.2676 45.9325 36.8906 45.1989 36.5049L43.3884 35.5531C43.0971 35.3999 42.7491 35.3999 42.4577 35.5531L40.6473 36.5049C39.9136 36.8906 39.0562 36.2676 39.1963 35.4507L39.5421 33.4347C39.5977 33.1103 39.4902 32.7793 39.2545 32.5496L37.7898 31.1219C37.1963 30.5433 37.5238 29.5354 38.344 29.4162L40.3682 29.1221C40.6939 29.0747 40.9754 28.8702 41.1211 28.575L42.0263 26.7408Z" fill="url(#paint3_linear_3449_24366)"/>
</g>
<defs>
<filter id="filter0_di_3449_24366" x="15.9229" y="9.69141" width="43.1538" height="49.8457" filterUnits="userSpaceOnUse" color-interpolation-filters="sRGB">
<feFlood flood-opacity="0" result="BackgroundImageFix"/>
<feColorMatrix in="SourceAlpha" type="matrix" values="0 0 0 0 0 0 0 0 0 0 0 0 0 0 0 0 0 0 127 0" result="hardAlpha"/>
<feOffset dx="2" dy="2"/>
<feGaussianBlur stdDeviation="0.5"/>
<feComposite in2="hardAlpha" operator="out"/>
<feColorMatrix type="matrix" values="0 0 0 0 1 0 0 0 0 1 0 0 0 0 1 0 0 0 0.05 0"/>
<feBlend mode="normal" in2="BackgroundImageFix" result="effect1_dropShadow_3449_24366"/>
<feBlend mode="normal" in="SourceGraphic" in2="effect1_dropShadow_3449_24366" result="shape"/>
<feColorMatrix in="SourceAlpha" type="matrix" values="0 0 0 0 0 0 0 0 0 0 0 0 0 0 0 0 0 0 127 0" result="hardAlpha"/>
<feOffset dx="2" dy="2"/>
<feGaussianBlur stdDeviation="0.5"/>
<feComposite in2="hardAlpha" operator="arithmetic" k2="-1" k3="1"/>
<feColorMatrix type="matrix" values="0 0 0 0 0.905882 0 0 0 0 0.729412 0 0 0 0 0.290196 0 0 0 0.2 0"/>
<feBlend mode="normal" in2="shape" result="effect2_innerShadow_3449_24366"/>
</filter>
<filter id="filter1_di_3449_24366" x="23.6406" y="26.1836" width="13.8726" height="13.4375" filterUnits="userSpaceOnUse" color-interpolation-filters="sRGB">
<feFlood flood-opacity="0" result="BackgroundImageFix"/>
<feColorMatrix in="SourceAlpha" type="matrix" values="0 0 0 0 0 0 0 0 0 0 0 0 0 0 0 0 0 0 127 0" result="hardAlpha"/>
<feOffset dx="2" dy="2"/>
<feGaussianBlur stdDeviation="0.5"/>
<feComposite in2="hardAlpha" operator="out"/>
<feColorMatrix type="matrix" values="0 0 0 0 0.75 0 0 0 0 0.567353 0 0 0 0 0.103125 0 0 0 0.15 0"/>
<feBlend mode="normal" in2="BackgroundImageFix" result="effect1_dropShadow_3449_24366"/>
<feBlend mode="normal" in="SourceGraphic" in2="effect1_dropShadow_3449_24366" result="shape"/>
<feColorMatrix in="SourceAlpha" type="matrix" values="0 0 0 0 0 0 0 0 0 0 0 0 0 0 0 0 0 0 127 0" result="hardAlpha"/>
<feOffset dx="2" dy="2"/>
<feGaussianBlur stdDeviation="0.5"/>
<feComposite in2="hardAlpha" operator="arithmetic" k2="-1" k3="1"/>
<feColorMatrix type="matrix" values="0 0 0 0 1 0 0 0 0 1 0 0 0 0 1 0 0 0 0.1 0"/>
<feBlend mode="normal" in2="shape" result="effect2_innerShadow_3449_24366"/>
</filter>
<filter id="filter2_di_3449_24366" x="37.4868" y="26.1836" width="13.8726" height="13.4375" filterUnits="userSpaceOnUse" color-interpolation-filters="sRGB">
<feFlood flood-opacity="0" result="BackgroundImageFix"/>
<feColorMatrix in="SourceAlpha" type="matrix" values="0 0 0 0 0 0 0 0 0 0 0 0 0 0 0 0 0 0 127 0" result="hardAlpha"/>
<feOffset dx="2" dy="2"/>
<feGaussianBlur stdDeviation="0.5"/>
<feComposite in2="hardAlpha" operator="out"/>
<feColorMatrix type="matrix" values="0 0 0 0 0.75 0 0 0 0 0.567353 0 0 0 0 0.103125 0 0 0 0.15 0"/>
<feBlend mode="normal" in2="BackgroundImageFix" result="effect1_dropShadow_3449_24366"/>
<feBlend mode="normal" in="SourceGraphic" in2="effect1_dropShadow_3449_24366" result="shape"/>
<feColorMatrix in="SourceAlpha" type="matrix" values="0 0 0 0 0 0 0 0 0 0 0 0 0 0 0 0 0 0 127 0" result="hardAlpha"/>
<feOffset dx="2" dy="2"/>
<feGaussianBlur stdDeviation="0.5"/>
<feComposite in2="hardAlpha" operator="arithmetic" k2="-1" k3="1"/>
<feColorMatrix type="matrix" values="0 0 0 0 1 0 0 0 0 1 0 0 0 0 1 0 0 0 0.1 0"/>
<feBlend mode="normal" in2="shape" result="effect2_innerShadow_3449_24366"/>
</filter>
<linearGradient id="paint0_linear_3449_24366" x1="21.9708" y1="14.0357" x2="54.8057" y2="55.2371" gradientUnits="userSpaceOnUse">
<stop stop-color="#FFE261"/>
<stop offset="1" stop-color="#FFC940"/>
</linearGradient>
<linearGradient id="paint1_linear_3449_24366" x1="24.2882" y1="16.8485" x2="51.381" y2="46.9515" gradientUnits="userSpaceOnUse">
<stop stop-color="#FFD033"/>
<stop offset="1" stop-color="#FFB81F"/>
</linearGradient>
<linearGradient id="paint2_linear_3449_24366" x1="24.75" y1="28.0969" x2="31.673" y2="37.3277" gradientUnits="userSpaceOnUse">
<stop stop-color="#FFFCF0"/>
<stop offset="1" stop-color="#FAF3DC"/>
</linearGradient>
<linearGradient id="paint3_linear_3449_24366" x1="38.5962" y1="28.0969" x2="45.5192" y2="37.3277" gradientUnits="userSpaceOnUse">
<stop stop-color="#FFFCF0"/>
<stop offset="1" stop-color="#FAF3DC"/>
</linearGradient>
</defs>
</svg>
