<svg width="176" height="54" viewBox="0 0 176 54" fill="none" xmlns="http://www.w3.org/2000/svg">
<g clip-path="url(#clip0_2936_19515)">
<path d="M38.7976 49.4049C32.5723 55.5263 22.3968 55.5263 16.1715 49.4049L4.67333 38.1159C-1.55192 31.9945 -1.55192 21.9887 4.67333 15.8847L16.1715 4.57835C22.3968 -1.54304 32.5723 -1.54304 38.7976 4.57835L50.2958 15.8674C56.521 21.9887 56.521 31.9945 50.2958 38.0986L38.7976 49.3876V49.4049Z" fill="#E60012"/>
<path d="M20.6684 43.5958C19.7514 43.5958 19.0107 42.8848 18.9754 42.0004C18.9578 41.5495 19.1165 41.1333 19.4163 40.8039C19.7161 40.4744 20.1394 40.2836 20.5979 40.2663C21.5326 40.2143 22.3261 40.9426 22.3614 41.8617C22.3967 42.7807 21.6736 43.5611 20.739 43.5958H20.6684Z" fill="white"/>
<path d="M26.8583 12.7637C25.9236 12.7637 25.1829 13.0585 24.5657 13.6481C23.2607 14.914 22.5729 17.5498 22.6434 21.0527C22.714 25.3706 23.7545 33.833 27.211 38.1856C27.7753 38.8966 28.3749 39.4515 28.9921 39.8677C29.5917 40.2666 30.2795 40.6481 31.3553 40.6481C31.6374 40.6481 31.9549 40.6134 32.2723 40.5614C34.2474 40.0931 36.734 37.9255 38.5681 35.0469C38.8503 34.6134 39.3264 34.3533 39.8555 34.3533C40.1376 34.3533 40.4198 34.44 40.6667 34.5787C41.0194 34.7868 41.2487 35.1163 41.3368 35.5151C41.425 35.914 41.3545 36.3128 41.1428 36.6423C38.815 40.2839 35.7288 42.8504 32.9072 43.492C32.9072 43.492 32.8719 43.492 32.8366 43.492C32.3252 43.5787 31.8138 43.6307 31.32 43.6307C29.5036 43.6307 28.2162 42.9544 27.2992 42.3475C26.3998 41.7579 25.5533 40.9775 24.7773 40.0064C19.91 33.8677 19.5925 22.3706 19.5573 21.0874C19.5044 18.0353 19.9452 13.8908 22.3789 11.5151C23.5605 10.3533 25.0595 9.76367 26.8054 9.76367H27.0875C28.8334 9.76367 30.3324 10.3533 31.514 11.5151C33.9476 13.8908 34.3885 18.0353 34.3356 21.0874C34.2827 24.2781 33.6831 30.4515 30.3148 35.9833C30.0326 36.4342 29.5388 36.7116 29.0098 36.7116C28.7276 36.7116 28.4631 36.6423 28.2338 36.5036C27.5108 36.0874 27.2815 35.151 27.7048 34.4573C30.0679 30.5903 31.1965 26.3244 31.2847 21.0527C31.3376 17.5498 30.6675 14.9313 29.3625 13.6481C28.7629 13.0585 28.0046 12.7637 27.0875 12.7637H26.823H26.8583Z" fill="white"/>
<path d="M73.1336 30.763C73.1336 31.1618 73.2041 31.4739 73.3452 31.7167C73.4863 31.9595 73.8037 32.0809 74.3151 32.0809H84.4025V34.4046H69.6947C68.8835 34.4046 68.2662 34.1965 67.8254 33.7803C67.3845 33.3641 67.1729 32.7225 67.1729 31.8381V15.1387H73.1336V30.763Z" fill="#E60012"/>
<path d="M109.674 24.7809C109.674 26.1681 109.392 27.4861 108.827 28.752C108.263 30.0179 107.452 31.1277 106.411 32.0988C105.353 33.0525 104.066 33.8155 102.531 34.3878C100.997 34.9601 99.2689 35.2375 97.3114 35.2375C95.3539 35.2375 93.5728 34.9601 92.0385 34.3878C90.5042 33.8155 89.2168 33.0525 88.1764 32.0988C87.1359 31.145 86.3423 30.0179 85.7956 28.752C85.2489 27.4861 84.9844 26.1508 84.9844 24.7809C84.9844 23.4109 85.2489 22.0757 85.7603 20.8098C86.2718 19.5439 87.0477 18.434 88.0882 17.4629C89.1287 16.5092 90.416 15.7462 91.9503 15.1739C93.4846 14.6017 95.2657 14.3242 97.3114 14.3242C99.3571 14.3242 101.138 14.6017 102.69 15.1739C104.242 15.7462 105.529 16.5092 106.57 17.4629C107.61 18.4167 108.386 19.5439 108.898 20.8098C109.409 22.0757 109.674 23.4109 109.674 24.7809ZM97.3114 16.4572C96.3768 16.4572 95.5126 16.6826 94.719 17.1161C93.9255 17.5497 93.2377 18.1566 92.6557 18.9196C92.0738 19.6826 91.6152 20.567 91.2802 21.5554C90.9451 22.5612 90.7864 23.6364 90.7864 24.7635C90.7864 25.8907 90.9451 26.9832 91.2802 27.9716C91.6152 28.9774 92.0738 29.8444 92.6557 30.6075C93.2377 31.3531 93.9255 31.9427 94.719 32.3762C95.5126 32.8098 96.3768 33.0179 97.3114 33.0179C98.2461 33.0179 99.1102 32.8098 99.9038 32.3762C100.697 31.9427 101.385 31.3531 101.967 30.6075C102.549 29.8618 103.008 28.9774 103.343 27.9716C103.678 26.9658 103.836 25.8907 103.836 24.7635C103.836 23.6364 103.66 22.5439 103.343 21.5554C103.008 20.5497 102.549 19.6653 101.967 18.9196C101.385 18.1566 100.697 17.567 99.9038 17.1161C99.1102 16.6826 98.2461 16.4572 97.3114 16.4572Z" fill="#E60012"/>
<path d="M123.905 17.445V34.4219H117.892V17.445H110.203V15.1387H131.594V17.445H123.905Z" fill="#E60012"/>
<path d="M147.202 17.445V34.4219H141.188V17.445H133.499V15.1387H154.891V17.445H147.202Z" fill="#E60012"/>
<path d="M175.806 23.0288V25.3005H163.373V30.7456C163.373 30.9364 163.373 31.1098 163.409 31.2832C163.409 31.4566 163.479 31.5953 163.585 31.7167C163.673 31.8381 163.814 31.9248 164.008 31.9942C164.184 32.0635 164.449 32.0982 164.784 32.0982H176V34.4046H160.411C159.987 34.4046 159.599 34.3872 159.247 34.3352C158.894 34.2832 158.576 34.1618 158.294 33.971C158.03 33.7803 157.818 33.5028 157.659 33.1213C157.518 32.7572 157.43 32.2369 157.43 31.6127V17.9306C157.43 17.3063 157.501 16.8034 157.659 16.4392C157.818 16.0751 158.03 15.7803 158.294 15.5895C158.559 15.3988 158.859 15.2601 159.194 15.208C159.529 15.156 159.864 15.1387 160.217 15.1387H176V17.445H164.943C164.396 17.445 164.008 17.5144 163.761 17.6705C163.514 17.8265 163.391 18.208 163.391 18.815V23.0115H175.824L175.806 23.0288Z" fill="#E60012"/>
</g>
<defs>
<clipPath id="clip0_2936_19515">
<rect width="176" height="54" fill="white"/>
</clipPath>
</defs>
</svg>
