<svg width="48" height="48" viewBox="0 0 48 48" fill="none" xmlns="http://www.w3.org/2000/svg">
<path d="M31.824 39.7745C27.5194 44.0752 20.4806 44.0752 16.176 39.7745L8.22845 31.8274C3.92385 27.5267 3.92385 20.4813 8.22845 16.1806L16.176 8.22551C20.4806 3.92483 27.5194 3.92483 31.824 8.22551L39.7716 16.1726C44.0761 20.4733 44.0761 27.5187 39.7716 31.8194L31.824 39.7665V39.7745Z" fill="#E60012"/>
<path d="M19.2846 35.6737C18.6549 35.6737 18.1367 35.1789 18.1128 34.5485C18.0969 34.2373 18.2085 33.9341 18.4237 33.7026C18.6389 33.4712 18.9259 33.3356 19.2368 33.3276C19.8825 33.2957 20.4325 33.8064 20.4564 34.4527C20.4804 35.0991 19.9782 35.6497 19.3325 35.6737C19.3165 35.6737 19.3006 35.6737 19.2846 35.6737Z" fill="white"/>
<path d="M23.5573 13.9787C22.9116 13.9787 22.3935 14.1782 21.979 14.5931C21.0782 15.4867 20.6079 17.3379 20.6477 19.8034C20.6956 22.8354 21.421 28.7957 23.8044 31.8596C24.195 32.3543 24.6096 32.7533 25.04 33.0405C25.4625 33.3198 25.9328 33.5911 26.6662 33.5911C26.8655 33.5911 27.0807 33.5671 27.3039 33.5273C28.675 33.2001 30.3889 31.6761 31.6643 29.6495C31.8556 29.3383 32.1904 29.1548 32.5571 29.1548C32.7564 29.1548 32.9477 29.2106 33.1151 29.3143C33.3543 29.4659 33.5217 29.6973 33.5854 29.9766C33.6492 30.2479 33.6014 30.5351 33.4499 30.7745C31.8397 33.3358 29.7113 35.139 27.7583 35.5938C27.7583 35.5938 27.7344 35.5938 27.7105 35.6018C27.3517 35.6656 27.001 35.6975 26.6662 35.6975C25.4067 35.6975 24.5139 35.2188 23.8842 34.7959C23.2544 34.381 22.6725 33.8305 22.1464 33.1522C18.7824 28.8356 18.5592 20.7449 18.5433 19.8353C18.5034 17.681 18.8143 14.7686 20.4963 13.093C21.3173 12.2792 22.3457 11.8643 23.5494 11.8643H23.7486C24.9603 11.8643 25.9886 12.2792 26.8097 13.093C28.4917 14.7606 28.8026 17.681 28.7627 19.8353C28.7228 22.0774 28.3163 26.4259 25.9886 30.3197C25.7973 30.6389 25.4545 30.8303 25.0799 30.8303C24.8886 30.8303 24.7052 30.7825 24.5378 30.6787C24.0436 30.3835 23.8762 29.7292 24.1711 29.2345C25.7973 26.5057 26.5865 23.5136 26.6503 19.7954C26.6901 17.3299 26.2198 15.4867 25.319 14.5851C24.9045 14.1702 24.3864 13.9707 23.7407 13.9707H23.5573V13.9787Z" fill="white"/>
</svg>
