<svg width="59" height="11" viewBox="0 0 59 11" fill="none" xmlns="http://www.w3.org/2000/svg">
    <path fill-rule="evenodd" clip-rule="evenodd" d="M27.64 10.624c-3.205 0-5.423-2.25-5.423-5.194 0-2.941 2.218-5.18 5.424-5.18 3.23 0 5.411 2.239 5.411 5.18 0 2.944-2.127 5.194-5.411 5.194zm0-8.197c-1.805 0-2.924 1.358-2.924 3.004 0 1.66 1.12 3.043 2.925 3.043 1.842 0 2.91-1.384 2.91-3.043 0-1.647-1.068-3.004-2.91-3.004zM17.483.353h-3.566a.49.49 0 0 0-.493.481v7.714c0 .266.157.636.348.823l.762.746c.19.188.568.341.84.341h.065a.489.489 0 0 0 .493-.482V7.16c0-.265.221-.482.492-.482h1.222c2.006 0 3.686-1.402 3.686-3.316 0-1.695-1.275-3.008-3.85-3.008zm-.34 4.397h-.72a.489.489 0 0 1-.491-.482V2.673c0-.266.221-.482.492-.482h.706c1.251 0 1.695.502 1.695 1.183 0 .835-.432 1.376-1.682 1.376zM34.637.826c0-.265.22-.482.492-.482h1.523c.271 0 .492.217.492.482v9.14a.488.488 0 0 1-.492.481h-.077c-.27 0-.649-.153-.84-.341l-.75-.735a1.324 1.324 0 0 1-.348-.822V.826zm12.12-.473a.49.49 0 0 0-.493.481v4.423c0 .265-.169.34-.372.167 0 0-5.776-4.865-5.98-5.039-.205-.173-.373-.098-.373.168v7.995c0 .266.156.636.347.823l.762.746c.192.188.57.341.841.341h.08a.49.49 0 0 0 .492-.482V5.523c0-.266.163-.342.372-.166l2.222 1.872.014.012 3.731 3.143c.203.174.371.1.371-.165V.835a.488.488 0 0 0-.491-.481h-1.523zm3.244.481c0-.264.222-.481.492-.481h7.386a.49.49 0 0 1 .492.481v.875a.489.489 0 0 1-.492.482H55.93c-.27 0-.49.216-.49.482v7.303a.49.49 0 0 1-.493.482h-.066c-.271 0-.648-.153-.84-.34l-.761-.747a1.321 1.321 0 0 1-.35-.823V2.673a.489.489 0 0 0-.491-.482h-1.946a.488.488 0 0 1-.492-.482V.834zM3.77 8.426a.488.488 0 0 1-.492-.482V.834a.488.488 0 0 0-.492-.481H1.264a.49.49 0 0 0-.493.481v7.714c0 .266.157.636.349.823l.762.746c.19.188.569.341.84.341H7.98a.49.49 0 0 0 .493-.482V8.909a.489.489 0 0 0-.493-.483H3.77zm6.739 2.135a.966.966 0 0 0 .798 0l.334-.146.148-.064.06-.027a.302.302 0 0 0 .175-.265V8.777a.22.22 0 0 0-.133-.209l-.722-.34a.608.608 0 0 0-.523 0l-.722.34a.222.222 0 0 0-.134.209v1.282c0 .11.074.22.176.265l.095.042a87.578 87.578 0 0 1 .448.195z" fill="#009BFA"/>
</svg>
