<svg width="100" height="18" viewBox="0 0 100 18" fill="none" xmlns="http://www.w3.org/2000/svg">
    <path fill-rule="evenodd" clip-rule="evenodd" d="M46.648 17.96c-5.565 0-9.416-3.894-9.416-8.992C37.232 3.876 41.084 0 46.648 0c5.609 0 9.395 3.876 9.395 8.968 0 5.098-3.692 8.993-9.395 8.993zm0-14.191c-3.134 0-5.078 2.35-5.078 5.202 0 2.872 1.944 5.268 5.078 5.268 3.199 0 5.052-2.397 5.052-5.268 0-2.852-1.853-5.202-5.052-5.202zM29.011.177H22.82a.848.848 0 0 0-.856.833v13.357c0 .46.273 1.1.605 1.424l1.322 1.293c.332.324.987.59 1.458.59h.114a.847.847 0 0 0 .856-.834v-4.878c0-.46.384-.835.854-.835h2.122c3.481 0 6.399-2.427 6.399-5.742 0-2.935-2.214-5.208-6.683-5.208zm-.59 7.614h-1.248a.848.848 0 0 1-.854-.834V4.194c0-.46.384-.835.854-.835h1.225c2.173 0 2.943.87 2.943 2.049 0 1.446-.75 2.383-2.92 2.383zM58.794.996c0-.46.383-.835.854-.835h2.645c.471 0 .855.376.855.835v15.825c0 .459-.384.834-.855.834h-.134c-.47 0-1.126-.265-1.46-.59l-1.301-1.272c-.333-.324-.604-.965-.604-1.424V.996zM79.837.177a.85.85 0 0 0-.856.834v7.657c0 .46-.293.59-.646.29 0 0-10.028-8.424-10.382-8.724-.356-.3-.648-.17-.648.29v13.843c0 .46.27 1.1.603 1.424l1.323 1.293c.333.324.99.59 1.46.59h.138c.47 0 .855-.376.855-.835V9.13c0-.46.282-.592.645-.287l3.887 3.265.012.01c2.852 2.395 6.254 5.253 6.462 5.43.351.3.643.171.643-.286V1.011a.847.847 0 0 0-.853-.834h-2.643zm5.632.833c0-.456.384-.833.854-.833h12.823c.469 0 .854.377.854.833v1.516a.847.847 0 0 1-.855.833h-3.383a.846.846 0 0 0-.852.835V16.84a.848.848 0 0 1-.855.835h-.114c-.471 0-1.125-.266-1.458-.59l-1.322-1.293c-.334-.324-.606-.964-.606-1.425V4.194a.847.847 0 0 0-.854-.835h-3.378a.847.847 0 0 1-.854-.833V1.01zM5.206 14.156a.847.847 0 0 1-.855-.834V1.01a.846.846 0 0 0-.853-.833H.855A.848.848 0 0 0 0 1.01v13.357c0 .46.272 1.1.605 1.424l1.322 1.293c.332.324.988.59 1.46.59h9.13c.47 0 .855-.376.855-.835v-1.847a.847.847 0 0 0-.856-.836h-7.31zm11.699 3.697c.168.072.387.147.692.147.305 0 .522-.075.693-.147l.58-.253.257-.112.104-.045a.523.523 0 0 0 .306-.46v-2.22a.381.381 0 0 0-.233-.361l-1.253-.59a1.058 1.058 0 0 0-.458-.1c-.16 0-.314.034-.45.1-.085.042-1.244.586-1.254.59a.384.384 0 0 0-.232.36v2.222c0 .189.128.381.306.459l.165.072.463.201.314.137z" fill="#fff"/>
</svg>
