<svg width="38" height="38" viewBox="0 0 38 38" fill="none" xmlns="http://www.w3.org/2000/svg">
<path d="M18.8756 37.262C16.3317 37.262 14.5302 36.6301 13.102 36.0126C12.6855 35.832 5.27052 32.5177 5.27052 32.5177C3.80377 31.8612 2.73633 30.2189 2.73633 28.6083V9.6743C2.73633 8.28695 3.42536 7.19025 4.67806 6.58944C4.74307 6.55786 14.3974 1.91897 15.1027 1.57214C16.2351 1.01172 17.5319 0.71875 18.8501 0.71875C20.2166 0.71875 21.512 1.01172 22.6453 1.57214C23.3613 1.92362 33.0138 6.56019 33.0695 6.58851C34.3241 7.19026 35.014 8.28695 35.014 9.6743V28.6078C35.014 30.2185 33.9489 31.8607 32.4789 32.5173C32.4789 32.5173 25.1038 35.8157 24.647 36.0121C23.2229 36.6296 21.4172 37.262 18.8756 37.262Z" fill="white"/>
<path d="M18.8762 38C16.199 38 14.3074 37.337 12.8095 36.6897C12.394 36.51 5.27336 33.3272 4.9697 33.1912C3.24852 32.4204 2 30.4935 2 28.6089V9.67496C2 8.01182 2.86083 6.64536 4.36007 5.92568C4.3689 5.92197 4.79838 5.71535 5.47673 5.38941C8.04946 4.15249 14.2196 1.18604 14.7773 0.912094C17.2599 -0.316461 20.5361 -0.291846 22.9718 0.91303C23.4867 1.16561 28.6707 3.65708 31.5257 5.02957C32.6271 5.55842 33.3834 5.92243 33.3992 5.92986C34.8896 6.64489 35.7509 8.01182 35.7509 9.67496V28.6085C35.7509 30.4949 34.501 32.4218 32.7798 33.1907C32.4785 33.3258 25.3955 36.4919 24.9391 36.6893C23.4459 37.337 21.5571 38 18.8762 38ZM18.8502 1.45627C17.6397 1.45627 16.4567 1.7251 15.4291 2.23398C14.8687 2.50932 8.69066 5.47903 6.11469 6.71733L5.00082 7.25314C4.00024 7.73323 3.47325 8.56991 3.47325 9.67496V28.6085C3.47325 29.9187 4.37539 31.3098 5.57191 31.8461C5.64573 31.8786 12.9864 35.1608 13.3946 35.3367C14.7541 35.9255 16.4678 36.5268 18.8766 36.5268C21.2878 36.5268 22.9992 35.9255 24.354 35.3377C24.803 35.1436 32.1052 31.879 32.179 31.8456C33.3755 31.3112 34.2781 29.9201 34.2781 28.6085V9.67496C34.2781 8.56991 33.7507 7.73277 32.752 7.25361C32.7037 7.23039 31.9612 6.87334 30.8882 6.3575C28.03 4.98361 22.839 2.48889 22.3218 2.23445C21.2901 1.72511 20.0908 1.45627 18.8502 1.45627Z" fill="#4793CF"/>
<path d="M24.1173 18.0141C24.1173 18.2347 23.9487 18.4979 23.7463 18.5875C23.7184 18.6001 20.9252 19.8495 20.7088 19.9428C20.0518 20.2284 19.5192 20.3435 18.8753 20.3435C18.2303 20.3435 17.6978 20.2284 17.0398 19.9428C16.8235 19.8495 14.0316 18.6001 14.0033 18.5875C13.8022 18.4989 13.6318 18.2347 13.6318 18.0141V10.9998C13.6318 10.8578 13.7024 10.7695 13.8157 10.7695C13.8547 10.7695 13.8974 10.7798 13.9406 10.8002L17.6374 12.4499C17.9485 12.5887 18.3394 12.7317 18.8753 12.7317C19.4097 12.7317 19.8011 12.5887 20.1117 12.4499L23.8076 10.8002C23.8526 10.7798 23.8949 10.7695 23.9339 10.7695C24.0467 10.7695 24.1173 10.8578 24.1173 10.9998V18.0141Z" fill="white"/>
<path d="M21.6356 16.7607C20.8909 17.4948 19.8977 17.8997 18.8419 17.8997C17.786 17.8997 16.7938 17.4948 16.0472 16.7607C15.8271 16.5434 15.4733 16.5467 15.2551 16.7672C15.0392 16.9869 15.0434 17.3411 15.263 17.5575C16.2199 18.4996 17.4912 19.0182 18.8419 19.0182C20.193 19.0182 21.4638 18.4996 22.4217 17.5575C22.6422 17.3411 22.645 16.9869 22.4273 16.7672C22.2104 16.5467 21.8571 16.543 21.6356 16.7607Z" fill="#4793CF"/>
<path d="M24.4005 9.49188C24.3782 9.4812 20.6211 7.67598 20.3425 7.53901C19.9014 7.32078 19.3971 7.20703 18.8646 7.20703C18.352 7.20703 17.8468 7.32078 17.4057 7.53901C17.1313 7.67412 13.3723 9.48028 13.3477 9.49235C12.8602 9.72589 12.5918 10.1531 12.5918 10.693V18.0639C12.5918 18.6907 13.0074 19.3301 13.578 19.5864C13.578 19.5864 16.465 20.8762 16.6271 20.9468C17.1819 21.1873 17.8844 21.4334 18.8748 21.4334C19.8642 21.4334 20.5667 21.1873 21.1211 20.9468C21.2994 20.8697 24.1702 19.5864 24.1702 19.5864C24.7422 19.3301 25.1569 18.6907 25.1569 18.0639V10.693C25.1573 10.1531 24.889 9.72589 24.4005 9.49188ZM24.1173 18.0138C24.1173 18.2343 23.9487 18.4976 23.7463 18.5872C23.7185 18.5997 20.9252 19.8492 20.7088 19.9425C20.0518 20.2281 19.5193 20.3432 18.8753 20.3432C18.2303 20.3432 17.6978 20.2281 17.0399 19.9425C16.8235 19.8492 14.0316 18.5997 14.0033 18.5872C13.8022 18.4985 13.6319 18.2343 13.6319 18.0138V10.9995C13.6319 10.8574 13.7024 10.7692 13.8157 10.7692C13.8547 10.7692 13.8974 10.7794 13.9406 10.7998L17.6374 12.4495C17.9485 12.5884 18.3395 12.7314 18.8753 12.7314C19.4097 12.7314 19.8011 12.5884 20.1117 12.4495L23.8076 10.7998C23.8526 10.7794 23.8949 10.7692 23.9339 10.7692C24.0467 10.7692 24.1173 10.8574 24.1173 10.9995V18.0138Z" fill="#4793CF"/>
<path d="M17.9651 29.0756C16.4371 29.0756 15.3799 27.9798 15.3799 26.5456C15.3799 25.1136 16.4371 24.0234 17.9651 24.0234C19.5039 24.0234 20.5444 25.1136 20.5444 26.5456C20.5444 27.9798 19.5308 29.0756 17.9651 29.0756ZM17.9651 25.0835C17.1043 25.0835 16.5708 25.7446 16.5708 26.546C16.5708 27.3539 17.1043 28.0286 17.9651 28.0286C18.8431 28.0286 19.3516 27.3539 19.3516 26.546C19.3516 25.7446 18.8431 25.0835 17.9651 25.0835Z" fill="#4793CF"/>
<path d="M13.1223 24.0742H11.422C11.2934 24.0742 11.1875 24.1801 11.1875 24.3087V28.0649C11.1875 28.1945 11.2623 28.3746 11.3533 28.4656L11.7163 28.8292C11.8074 28.9207 11.987 28.9945 12.1161 28.9945H12.1477C12.2768 28.9945 12.3826 28.8891 12.3826 28.76V27.3884C12.3826 27.2594 12.488 27.1535 12.6171 27.1535H13.1998C14.1558 27.1535 14.9563 26.471 14.9563 25.5387C14.9572 24.7136 14.3494 24.0742 13.1223 24.0742ZM12.9607 26.2161H12.618C12.489 26.2161 12.3836 26.1098 12.3836 25.9811V25.2039C12.3836 25.0743 12.489 24.9689 12.618 24.9689H12.9547C13.5508 24.9689 13.7626 25.2136 13.7626 25.5451C13.7621 25.9519 13.5559 26.2161 12.9607 26.2161Z" fill="#4793CF"/>
<path d="M21.5338 24.0688C21.4047 24.0688 21.2998 24.1751 21.2998 24.3038V28.0646C21.2998 28.1942 21.3741 28.3743 21.4651 28.4653L21.8226 28.8233C21.9141 28.9143 22.0942 28.9891 22.2233 28.9891H22.2595C22.3891 28.9891 22.4949 28.8828 22.4949 28.7541V24.3033C22.4949 24.1747 22.3891 24.0684 22.2595 24.0684H21.5338V24.0688Z" fill="#4793CF"/>
<path d="M27.0767 24.0736C26.9481 24.0736 26.8413 24.1799 26.8413 24.3085V26.4625C26.8413 26.5911 26.761 26.6282 26.6639 26.5437C26.6639 26.5437 23.9111 24.1743 23.8136 24.0903C23.7161 24.0063 23.6357 24.042 23.6357 24.172V28.0657C23.6357 28.1948 23.71 28.3749 23.801 28.4659L24.1641 28.8295C24.2551 28.9205 24.4357 28.9952 24.5648 28.9952H24.6029C24.732 28.9952 24.8374 28.8889 24.8374 28.7603V26.5911C24.8374 26.4625 24.9149 26.4253 25.0147 26.5112C25.1141 26.5971 27.762 28.8745 27.8591 28.9586C27.9561 29.044 28.036 29.0073 28.036 28.8782V24.3081C28.036 24.1795 27.9306 24.0731 27.802 24.0731H27.0767V24.0736Z" fill="#4793CF"/>
<path d="M28.857 24.0727C28.7279 24.0727 28.6221 24.1791 28.6221 24.3077V24.733C28.6221 24.8625 28.7279 24.9684 28.857 24.9684H29.7838C29.9128 24.9684 30.0187 25.0742 30.0187 25.2033V28.0644C30.0187 28.1934 30.0935 28.3736 30.1849 28.4646L30.5476 28.8282C30.639 28.9192 30.8187 28.9939 30.9478 28.9939H30.9789C31.1075 28.9939 31.2138 28.8876 31.2138 28.759V25.2029C31.2138 25.0738 31.3192 24.9679 31.4478 24.9679H32.3765C32.5055 24.9679 32.6114 24.8621 32.6114 24.7325V24.3072C32.6114 24.1786 32.5055 24.0723 32.3765 24.0723H28.857V24.0727Z" fill="#4793CF"/>
<path d="M6.58682 28.0045C6.4582 28.0045 6.35234 27.8986 6.35234 27.7695V24.3072C6.35234 24.1786 6.24695 24.0723 6.11788 24.0723H5.39216C5.26354 24.0723 5.15723 24.1786 5.15723 24.3072V28.0634C5.15723 28.193 5.23198 28.3727 5.32298 28.4641L5.68606 28.8277C5.77707 28.9187 5.95722 28.9935 6.08676 28.9935H8.59309C8.72217 28.9935 8.82802 28.8871 8.82802 28.7585V28.239C8.82802 28.1094 8.72217 28.004 8.59309 28.004H6.58682V28.0045Z" fill="#4793CF"/>
<path d="M9.98809 29.0852C9.90405 29.0852 9.84323 29.0643 9.79819 29.0434C9.78426 29.0374 9.65566 28.9803 9.58508 28.9491L9.53912 28.9282C9.49083 28.9064 9.45508 28.8521 9.45508 28.7996V28.1747C9.45508 28.1287 9.47829 28.093 9.51915 28.073C9.52194 28.0716 9.83952 27.9188 9.8632 27.9072C9.90035 27.8891 9.9426 27.8789 9.9867 27.8789C10.0317 27.8789 10.0745 27.8887 10.1125 27.9072C10.1362 27.9188 10.4543 28.0716 10.457 28.073C10.4979 28.093 10.5202 28.1287 10.5202 28.1747V28.7996C10.5202 28.8521 10.4858 28.9064 10.4366 28.9282L10.4078 28.9408C10.3438 28.97 10.1929 29.0369 10.178 29.0434C10.1316 29.0643 10.0721 29.0852 9.98809 29.0852Z" fill="#4793CF"/>
</svg>
