<svg width="48" height="48" viewBox="0 0 48 48" fill="none" xmlns="http://www.w3.org/2000/svg">
<path d="M29.8296 14.29H19.1711V33.4355H29.8296V14.29Z" fill="#FF5F00"/>
<path d="M19.8484 23.8635C19.8467 22.0196 20.2647 20.1995 21.0708 18.541C21.8768 16.8826 23.0498 15.4291 24.5008 14.2907C22.7039 12.8789 20.5458 12.0009 18.2732 11.757C16.0007 11.5132 13.7053 11.9134 11.6495 12.912C9.59377 13.9105 7.86052 15.467 6.6479 17.4036C5.43529 19.3402 4.79224 21.5788 4.79224 23.8635C4.79224 26.1481 5.43529 28.3867 6.6479 30.3233C7.86052 32.2599 9.59377 33.8164 11.6495 34.8149C13.7053 35.8135 16.0007 36.2137 18.2732 35.9699C20.5458 35.726 22.7039 34.848 24.5008 33.4362C23.0498 32.2978 21.8768 30.8443 21.0708 29.1858C20.2647 27.5274 19.8467 25.7073 19.8484 23.8635Z" fill="#EB001B"/>
<path d="M44.2082 23.8635C44.2083 26.1481 43.5653 28.3866 42.3528 30.3233C41.1402 32.2599 39.407 33.8164 37.3513 34.8149C35.2956 35.8134 33.0003 36.2137 30.7277 35.9699C28.4552 35.7261 26.2972 34.848 24.5002 33.4362C25.95 32.2967 27.1221 30.843 27.928 29.1847C28.7339 27.5265 29.1527 25.707 29.1527 23.8635C29.1527 22.0199 28.7339 20.2004 27.928 18.5422C27.1221 16.8839 25.95 15.4303 24.5002 14.2907C26.2972 12.8789 28.4552 12.0008 30.7277 11.757C33.0003 11.5132 35.2956 11.9135 37.3513 12.912C39.407 13.9105 41.1402 15.467 42.3528 17.4036C43.5653 19.3403 44.2083 21.5788 44.2082 23.8635Z" fill="#F79E1B"/>
<path d="M43.0454 31.4101V31.0181H43.2035V30.9383H42.8008V31.0181H42.959V31.4101H43.0454ZM43.8271 31.4101V30.9375H43.7037L43.5617 31.2626L43.4197 30.9375H43.2962V31.4101H43.3834V31.0536L43.5165 31.361H43.6069L43.74 31.0528V31.4101H43.8271Z" fill="#F79E1B"/>
</svg>
