<svg width="269" height="80" viewBox="0 0 269 80" fill="none" xmlns="http://www.w3.org/2000/svg">
<path d="M109.893 51.5777V41.0205C109.893 37.044 107.339 34.3695 103.223 34.3343C101.059 34.2991 98.8238 34.9677 97.2627 37.3255C96.0918 35.4604 94.2469 34.3343 91.6569 34.3343C89.8475 34.3343 88.0735 34.8622 86.6898 36.8328V34.7566H83V51.5777H86.7253V42.2522C86.7253 39.3314 88.3574 37.783 90.8764 37.783C93.3954 37.783 94.5662 39.3666 94.5662 42.217V51.5777H98.2916V42.2522C98.2916 39.3314 99.9946 37.783 102.443 37.783C104.891 37.783 106.168 39.3666 106.168 42.217V51.5777H109.893ZM165.01 34.7566H158.979V29.654H155.254V34.7566H151.812V38.0997H155.254V45.7713C155.254 49.6774 156.779 52 161.143 52C162.74 52 164.585 51.5073 165.755 50.6979L164.691 47.566C163.591 48.1994 162.385 48.5161 161.427 48.5161C159.582 48.5161 158.979 47.39 158.979 45.7009V38.0997H165.01V34.7566ZM196.48 34.3343C194.352 34.3343 192.968 35.3196 192.01 36.7977V34.7566H188.356V51.5777H192.046V42.1466C192.046 39.3666 193.252 37.8182 195.664 37.8182C196.409 37.8182 197.19 37.9238 197.971 38.2405L199.106 34.7918C198.29 34.4751 197.226 34.3343 196.48 34.3343ZM148.903 36.0938C147.129 34.9326 144.681 34.3343 141.984 34.3343C137.691 34.3343 134.924 36.3754 134.924 39.7185C134.924 42.4633 136.982 44.1525 140.778 44.6804L142.516 44.9267C144.539 45.2082 145.497 45.7361 145.497 46.6862C145.497 47.9883 144.149 48.7273 141.629 48.7273C139.11 48.7273 137.23 47.9179 135.988 46.9677L134.25 49.8182C136.272 51.2962 138.827 52 141.594 52C146.49 52 149.328 49.7126 149.328 46.5103C149.328 43.5543 147.093 42.0059 143.403 41.478L141.665 41.2317C140.068 41.0205 138.791 40.7038 138.791 39.5777C138.791 38.346 139.997 37.607 142.02 37.607C144.184 37.607 146.277 38.4164 147.306 39.0499L148.903 36.0938ZM247.73 34.3343C245.601 34.3343 244.218 35.3196 243.26 36.7977V34.7566H239.605V51.5777H243.295V42.1466C243.295 39.3666 244.502 37.8182 246.914 37.8182C247.659 37.8182 248.44 37.9238 249.22 38.2405L250.356 34.7918C249.54 34.4751 248.475 34.3343 247.73 34.3343ZM200.188 43.1672C200.188 48.2698 203.771 52 209.235 52C211.79 52 213.493 51.437 215.338 49.9941L213.564 47.0381C212.18 48.0235 210.725 48.5513 209.129 48.5513C206.184 48.5161 204.02 46.4047 204.02 43.1672C204.02 39.9296 206.184 37.8182 209.129 37.783C210.725 37.783 212.18 38.3109 213.564 39.2962L215.338 36.3402C213.493 34.8974 211.79 34.3343 209.235 34.3343C203.771 34.3343 200.188 38.0645 200.188 43.1672ZM234.745 43.1672V34.7566H231.055V36.7977C229.884 35.2845 228.11 34.3343 225.698 34.3343C220.943 34.3343 217.218 38.0293 217.218 43.1672C217.218 48.305 220.943 52 225.698 52C228.11 52 229.884 51.0499 231.055 49.5367V51.5777H234.745V43.1672ZM221.014 43.1672C221.014 40.2111 222.966 37.783 226.159 37.783C229.352 37.783 231.268 40.1056 231.268 43.1672C231.268 46.2287 229.21 48.5513 226.159 48.5513C223.108 48.5513 221.014 46.1232 221.014 43.1672ZM176.506 34.3343C171.539 34.3343 168.062 37.9238 168.062 43.1672C168.062 48.4106 171.68 52 176.754 52C179.308 52 181.65 51.3666 183.708 49.6422L181.898 46.9326C180.479 48.0587 178.67 48.6921 176.967 48.6921C174.59 48.6921 172.425 47.6012 171.893 44.5748H184.488C184.524 44.1173 184.559 43.6598 184.559 43.1672C184.524 37.9238 181.26 34.3343 176.506 34.3343ZM176.435 37.607C178.812 37.607 180.337 39.085 180.728 41.6891H171.929C172.319 39.261 173.809 37.607 176.435 37.607ZM268.982 43.1672V28H265.292V36.7977C264.122 35.2845 262.348 34.3343 259.935 34.3343C255.181 34.3343 251.456 38.0293 251.456 43.1672C251.456 48.305 255.181 52 259.935 52C262.348 52 264.122 51.0499 265.292 49.5367V51.5777H268.982V43.1672ZM255.252 43.1672C255.252 40.2111 257.203 37.783 260.396 37.783C263.589 37.783 265.505 40.1056 265.505 43.1672C265.505 46.2287 263.448 48.5513 260.396 48.5513C257.345 48.5513 255.252 46.1232 255.252 43.1672ZM130.666 43.1672V34.7566H126.977V36.7977C125.806 35.2845 124.032 34.3343 121.619 34.3343C116.865 34.3343 113.14 38.0293 113.14 43.1672C113.14 48.305 116.865 52 121.619 52C124.032 52 125.806 51.0499 126.977 49.5367V51.5777H130.666V43.1672ZM116.936 43.1672C116.936 40.2111 118.887 37.783 122.08 37.783C125.274 37.783 127.189 40.1056 127.189 43.1672C127.189 46.2287 125.132 48.5513 122.08 48.5513C119.029 48.5513 116.936 46.1232 116.936 43.1672Z" fill="#231F20"/>
<path d="M49.7162 23.8174H31.9521V55.7265H49.7162V23.8174Z" fill="#FF5F00"/>
<path d="M33.0809 39.7727C33.0781 36.6997 33.7748 33.6662 35.1182 30.9021C36.4616 28.1379 38.4165 25.7155 40.835 23.8182C37.8401 21.4651 34.2432 20.0017 30.4556 19.5954C26.668 19.189 22.8424 19.8561 19.4162 21.5202C15.9899 23.1844 13.1011 25.7786 11.0801 29.0063C9.05906 32.234 7.9873 35.965 7.9873 39.7727C7.9873 43.5805 9.05906 47.3115 11.0801 50.5392C13.1011 53.7668 15.9899 56.361 19.4162 58.0252C22.8424 59.6894 26.668 60.3565 30.4556 59.9501C34.2432 59.5437 37.8401 58.0804 40.835 55.7273C38.4165 53.83 36.4616 51.4076 35.1182 48.6434C33.7748 45.8792 33.0781 42.8458 33.0809 39.7727Z" fill="#EB001B"/>
<path d="M73.6806 39.7727C73.6808 43.5805 72.6091 47.3114 70.5882 50.5391C68.5673 53.7668 65.6787 56.361 62.2524 58.0252C58.8262 59.6894 55.0007 60.3565 51.2132 59.9501C47.4256 59.5438 43.8288 58.0804 40.834 55.7273C43.2503 53.8281 45.2037 51.4053 46.5469 48.6415C47.8901 45.8778 48.588 42.8453 48.588 39.7727C48.588 36.7002 47.8901 33.6677 46.5469 30.9039C45.2037 28.1402 43.2503 25.7174 40.834 23.8182C43.8288 21.4651 47.4256 20.0017 51.2132 19.5954C55.0007 19.189 58.8262 19.8561 62.2524 21.5203C65.6787 23.1845 68.5673 25.7787 70.5882 29.0064C72.6091 32.2341 73.6808 35.965 73.6806 39.7727Z" fill="#F79E1B"/>
<path d="M71.7426 52.3502V51.6969H72.0061V51.5638H71.335V51.6969H71.5986V52.3502H71.7426ZM73.0455 52.3502V51.5625H72.8398L72.6032 52.1043L72.3665 51.5625H72.1607V52.3502H72.3059V51.756L72.5279 52.2683H72.6785L72.9004 51.7547V52.3502H73.0455Z" fill="#F79E1B"/>
</svg>
