<svg width="250" height="58" viewBox="0 0 250 58" fill="none" xmlns="http://www.w3.org/2000/svg">
<path d="M53.9462 22.523C53.9192 22.4413 53.8989 22.3596 53.8718 22.2778L52.56 18.7567C52.2355 17.8849 51.5931 17.197 50.7478 16.8088C50.1731 16.5432 49.5578 16.4547 48.9492 16.516L48.1716 15.2628C48.4015 14.8201 48.5435 14.3297 48.5705 13.8189C48.6179 12.8859 48.3068 11.9868 47.6915 11.299L45.1896 8.49976C44.2564 7.45773 42.8365 7.11038 41.5855 7.5054L40.8552 6.68812C41.0107 6.19093 41.0987 5.66651 41.0987 5.12165C41.0987 2.30202 38.8199 0 36.0137 0C33.2075 0 30.9288 2.29521 30.9288 5.12165C30.9288 6.77666 31.7132 8.24096 32.9235 9.18084H29.0963C27.9198 9.18084 26.9596 10.148 26.9596 11.333C26.9596 12.5181 27.9198 13.4852 29.0963 13.4852H33.4848L32.6734 27.1271L29.8131 24.3006C28.2579 22.5434 25.6748 22.5298 25.5734 22.5298H0L0.135237 23.2109C0.141999 23.2518 0.987233 27.1815 4.51693 28.0056C4.51693 28.7071 4.64541 30.0216 5.52445 31.1249C6.26149 32.0444 7.35015 32.6097 8.75662 32.814C9.05414 34.7278 10.3524 37.6905 13.6793 37.6905H20.7589L19.7649 44.2287L21.6515 43.5681C22.3818 45.2163 24.9986 50.4265 29.7252 52.9124C33.0994 54.69 34.3774 55.5618 35.155 56.7741L36.0137 58L36.8725 56.7741C37.6501 55.5618 38.9213 54.69 42.2955 52.9124C47.022 50.4265 49.6321 45.2163 50.3692 43.5681L52.2557 44.2287L51.2617 37.6905H58.3414C61.6683 37.6905 62.9665 34.7278 63.2641 32.814C64.6705 32.6165 65.7592 32.0512 66.4962 31.1249C67.3753 30.0216 67.5038 28.7071 67.5038 28.0056C71.0335 27.1884 71.8787 23.2586 71.8855 23.2109L72.0207 22.5298H53.9462V22.523ZM49.6998 20.6841H49.7133C49.7674 20.6433 49.8079 20.6024 49.8553 20.5615L50.5856 22.5162H49.7606L49.152 20.8884C49.3414 20.8544 49.5307 20.7863 49.6998 20.6773V20.6841ZM49.9635 37.67L45.5277 41.845L46.9409 42.3626C44.27 45.6454 41.7207 47.0211 40.5577 47.5183L39.9762 37.6768H49.9635V37.67ZM44.7974 17.2107C44.8583 17.2107 44.9259 17.2107 44.9867 17.2107C45.2234 17.2107 45.4601 17.1834 45.6832 17.1357L46.2782 18.0892C45.6832 18.9951 45.5074 20.1597 45.9131 21.2494L46.3797 22.5026C45.9401 22.5162 43.6411 22.6524 42.2076 24.2734L39.3473 27.0998L38.5359 13.458H40.0776L42.3969 16.0597C43.0123 16.7543 43.8643 17.1562 44.7906 17.2107H44.7974ZM44.0468 13.1447C44.27 13.0085 44.4593 12.8314 44.6216 12.6271L45.3181 13.4035C45.2842 13.4239 45.2437 13.4375 45.2099 13.458C45.0138 13.5806 44.8582 13.744 44.7433 13.9211L44.0468 13.1447ZM42.5998 8.27501C43.2963 8.27501 43.986 8.56106 44.4796 9.11954L46.9815 11.9187C47.4278 12.4227 47.6577 13.0766 47.6239 13.7576C47.6171 13.9279 47.59 14.0982 47.5495 14.2616L47.3466 13.9347C47.1032 13.5397 46.7042 13.3013 46.2782 13.2332C46.2242 13.0698 46.143 12.9131 46.0281 12.7769L45.0408 11.6667C45.0611 11.551 45.0746 11.4284 45.0746 11.3058C45.0746 10.1548 44.1753 9.21489 43.0461 9.1604C43.0123 9.11273 42.9852 9.05824 42.9446 9.01738L42.3023 8.29544C42.4037 8.28182 42.4984 8.2682 42.5998 8.2682V8.27501ZM40.4292 7.62118L40.6929 7.91404L41.0107 8.2682L41.3286 8.62236L41.8087 9.15359L41.9304 9.28981C41.5111 9.28981 41.0107 9.28981 40.5577 9.28981H40.294L40.179 9.15359L40.1182 9.08549L39.8004 8.73133L39.6989 8.61555L39.6178 8.52701L38.9484 7.77783L38.8672 7.68929L38.3533 7.11719L38.1234 6.85838L37.7448 6.43612C37.6839 6.36801 37.6433 6.2931 37.6163 6.21137C37.5487 5.99342 37.6163 5.74143 37.7989 5.57116C37.8259 5.54392 37.8597 5.52349 37.8868 5.50305C37.9882 5.44176 38.1099 5.4077 38.2316 5.41451C38.3939 5.42132 38.5427 5.49624 38.6441 5.61202L38.6982 5.67332L38.9416 5.94575L39.5299 6.59958L39.6313 6.71536L40.3413 7.5054L40.436 7.60756L40.4292 7.62118ZM32.0445 5.10122C32.0445 2.90136 33.8229 1.10333 36.0137 1.10333C38.2046 1.10333 39.9829 2.89455 39.9829 5.10122C39.9829 5.28511 39.9627 5.469 39.9424 5.64608L39.8004 5.48943L39.3473 4.98544C39.2527 4.87647 39.1377 4.78793 39.016 4.71301C38.9146 4.6449 38.8131 4.59723 38.7117 4.56318C38.4615 3.28957 37.3458 2.32926 36.0137 2.32926C34.4991 2.32926 33.2616 3.57562 33.2616 5.10122C33.2616 6.62682 34.4991 7.87318 36.0137 7.87318C36.5276 7.87318 37.0077 7.72334 37.4202 7.47135L38.2316 8.41123C37.596 8.8403 36.8319 9.0923 36.0137 9.0923C33.8296 9.0923 32.0445 7.30108 32.0445 5.09441V5.10122ZM36.7508 6.56552C36.5276 6.68131 36.2774 6.74941 36.007 6.74941C35.1076 6.74941 34.3706 6.00705 34.3706 5.10122C34.3706 4.1954 35.1076 3.45303 36.007 3.45303C36.744 3.45303 37.3593 3.95021 37.5622 4.62447C37.4202 4.68577 37.2782 4.7675 37.1497 4.88328C36.6696 5.31916 36.5344 5.98661 36.744 6.56552H36.7508ZM32.0513 37.67L31.4697 47.5115C30.3067 47.0143 27.7642 45.6454 25.0865 42.3558L26.4998 41.8382L22.064 37.6632H32.0513V37.67ZM49.7403 42.1242L49.5442 42.6282C49.5172 42.6963 46.9409 49.1733 41.7884 51.884C38.5359 53.5935 36.9942 54.581 36.0272 56.0045C35.0603 54.581 33.5118 53.5935 30.2661 51.884C25.1136 49.1665 22.5306 42.6895 22.5103 42.6282L22.3142 42.1242L21.1849 42.5193L21.7327 38.896L24.4036 41.4091L23.2608 41.8246L23.7274 42.4375C27.7778 47.7431 31.6929 48.8055 31.8552 48.8532L32.5178 49.0235L33.194 37.67L33.2616 36.5395L33.6674 29.6606L33.7012 29.0817L33.735 28.4824L33.7553 28.1623L34.6952 12.3342H29.1166C28.5554 12.3342 28.1023 11.8779 28.1023 11.3126C28.1023 10.7473 28.5554 10.291 29.1166 10.291H42.9514C43.0461 10.291 43.1407 10.3114 43.2286 10.3387C43.5938 10.4476 43.8778 10.7541 43.9454 11.1423C43.9522 11.1968 43.9657 11.2581 43.9657 11.3126C43.9657 11.4692 43.9251 11.6191 43.8643 11.7485C43.7493 11.9868 43.5397 12.1775 43.2895 12.2661C43.1813 12.307 43.0731 12.3274 42.9514 12.3274H37.3729L38.3128 28.1555L38.333 28.4756L38.3669 29.0749L38.4007 29.6538L38.8064 36.5326L38.874 37.6632L39.5502 49.0167L40.2128 48.8464C40.3751 48.8055 44.2903 47.7363 48.3406 42.4307L48.8072 41.8178L47.6644 41.4023L50.3354 38.8891L50.8831 42.5124L49.7538 42.1174L49.7403 42.1242Z" fill="#818383"/>
<path d="M42.9309 13.4648H41.3486L43.1067 15.4331C43.553 15.9371 44.1751 16.2368 44.8513 16.2709C44.9527 16.2709 45.0474 16.2709 45.142 16.2709L44.7228 15.5966C44.5876 15.3718 44.5199 15.1335 44.4997 14.8883C44.3509 14.827 44.1954 14.7316 44.0534 14.575L43.0661 13.4648C43.0188 13.4648 42.9782 13.4717 42.9309 13.4717V13.4648Z" fill="white"/>
<path d="M50.4305 19.4447C50.4305 19.4447 50.4643 19.506 50.4778 19.5401L51.5868 22.5164H52.9594L51.6815 19.0838C51.4448 18.4504 50.9715 17.9464 50.3561 17.6603C50.0857 17.5377 49.8084 17.4696 49.5244 17.4424L50.2074 18.5389C50.3832 18.8181 50.4508 19.1314 50.4373 19.4379L50.4305 19.4447Z" fill="white"/>
<path d="M47.5767 20.1939L46.8464 19.0156C46.5895 19.6013 46.5557 20.2892 46.7923 20.9294L47.3874 22.5163H48.76L48.0771 20.6774C47.881 20.5548 47.712 20.3914 47.5835 20.1871L47.5767 20.1939Z" fill="white"/>
<path d="M47.3053 15.6643L47.0416 15.2421L46.5412 14.4384C46.4601 14.309 46.3384 14.2205 46.2031 14.1796C46.149 14.166 46.0949 14.1523 46.0341 14.1523C45.9259 14.1523 45.8177 14.1796 45.7163 14.2409C45.4864 14.3839 45.3849 14.6427 45.4323 14.8811C45.4458 14.9492 45.4728 15.0173 45.5067 15.0786L46.0814 16.0049L46.3316 16.4067L46.5818 16.8085L46.9199 17.3534L47.1701 17.762L47.4203 18.1639L48.1303 19.3081L48.3602 19.6758C48.4413 19.812 48.5765 19.9074 48.7321 19.9414C48.7726 19.9483 48.8132 19.9551 48.8538 19.9551C48.9687 19.9551 49.0837 19.9278 49.1851 19.8665H49.1986C49.273 19.8052 49.3339 19.7439 49.3812 19.669C49.5029 19.4783 49.5164 19.2263 49.3812 19.022L49.1919 18.7155L48.4684 17.5577L48.2114 17.1422L47.9545 16.7336L47.5352 16.0593L47.2783 15.6507L47.3053 15.6643Z" fill="white"/>
<path d="M39.4619 28.9939L39.6242 31.7182H62.7295C64.0345 31.6092 65.0083 31.1597 65.6168 30.3969C66.2322 29.6205 66.3606 28.6874 66.3742 28.1289H42.2681C42.2681 28.1289 40.6791 28.1425 39.4619 28.9939Z" fill="white"/>
<path d="M39.9088 36.5391H58.3349C61.0464 36.5391 61.8646 34.0464 62.1012 32.8545H39.6924L39.9088 36.5391Z" fill="white"/>
<path d="M53.6156 23.6543H46.4547C46.4547 23.6543 44.2504 23.6747 43.04 25.0573L43.013 25.0845L40.8965 27.1754C41.6471 27.0052 42.2218 26.9984 42.2691 26.9984H66.5105C69.08 26.8281 70.1754 24.7576 70.5811 23.6543H53.6223H53.6156Z" fill="white"/>
<path d="M32.3288 32.8545H9.91992C10.1633 34.0464 10.9883 36.5391 13.6863 36.5391H32.1124L32.3288 32.8545Z" fill="white"/>
<path d="M32.5578 28.9939C31.3406 28.1425 29.7719 28.1289 29.7516 28.1289H5.64551C5.65903 28.6942 5.78751 29.6409 6.4096 30.4105C7.01817 31.1733 7.99188 31.6092 9.29016 31.725H32.3955L32.5578 29.0007V28.9939Z" fill="white"/>
<path d="M31.1318 27.1744L28.9815 25.0495C27.7712 23.6669 25.5938 23.6465 25.5668 23.6465H1.44043C1.84614 24.7498 2.94156 26.8203 5.51108 26.9905H29.7524C29.8065 26.9905 30.3745 26.9905 31.1318 27.1676V27.1744Z" fill="white"/>
<path d="M36.0073 7.8802C34.4926 7.8802 33.2552 6.63384 33.2552 5.10824C33.2552 3.58264 34.4926 2.33628 36.0073 2.33628C37.3394 2.33628 38.4551 3.29659 38.7053 4.57019C38.8067 4.60425 38.9081 4.65192 39.0096 4.72003C39.1313 4.79495 39.2462 4.88348 39.3409 4.99246L39.7939 5.49645L39.936 5.65309C39.963 5.47602 39.9765 5.29213 39.9765 5.10824C39.9765 2.90838 38.1981 1.11035 36.0073 1.11035C33.8165 1.11035 32.0381 2.90157 32.0381 5.10824C32.0381 7.31491 33.8165 9.10612 36.0073 9.10612C36.8255 9.10612 37.5896 8.85413 38.2252 8.42505L37.4138 7.48518C37.0013 7.73717 36.5212 7.88701 36.0073 7.88701V7.8802Z" fill="white"/>
<path d="M43.0387 9.16762C44.168 9.22891 45.0673 10.162 45.0673 11.313C45.0673 11.4356 45.0538 11.5582 45.0335 11.674L46.0207 12.7841C46.1424 12.9203 46.2236 13.077 46.2709 13.2404C46.6969 13.3085 47.0891 13.5469 47.3393 13.9419L47.5421 14.2688C47.5827 14.1054 47.6098 13.9351 47.6165 13.7648C47.6503 13.0838 47.4272 12.4299 46.9741 11.926L44.4722 9.12675C43.9719 8.56828 43.2822 8.28223 42.5924 8.28223C42.491 8.28223 42.3896 8.29585 42.2949 8.30947L42.9373 9.0314C42.9779 9.07227 43.0049 9.12675 43.0387 9.17443V9.16762Z" fill="white"/>
<path d="M47.6367 41.416L48.7795 41.8315L48.3129 42.4444C44.2625 47.75 40.3474 48.8124 40.1851 48.8601L39.5225 49.0304L38.8463 37.6769L38.7787 36.5463L38.373 29.6675L38.3391 29.0886L38.3053 28.4893L38.285 28.1692L37.3451 12.3411H42.9237C43.0386 12.3411 43.1536 12.3138 43.2618 12.2798C43.512 12.1913 43.7216 12.0006 43.8365 11.7622C43.8974 11.626 43.938 11.4829 43.938 11.3263C43.938 11.265 43.9312 11.2105 43.9177 11.156C43.8501 10.7678 43.5728 10.4613 43.2009 10.3524C43.113 10.3251 43.0184 10.3047 42.9237 10.3047H29.0889C28.5277 10.3047 28.0746 10.761 28.0746 11.3263C28.0746 11.8916 28.5277 12.3479 29.0889 12.3479H34.6674L33.7275 28.176L33.7073 28.4961L33.6734 29.0954L33.6396 29.6743L33.2339 36.5532L33.1663 37.6837L32.4901 49.0372L31.8275 48.8669C31.6652 48.8261 27.7501 47.7568 23.6997 42.4512L23.2331 41.8383L24.3759 41.4228L21.7049 38.9097L21.1572 42.533L22.2865 42.1379L22.4826 42.6419C22.5096 42.71 25.0859 49.187 30.2384 51.8977C33.4909 53.6072 35.0326 54.5947 35.9995 56.0182C36.9665 54.5947 38.5149 53.6072 41.7606 51.8977C46.9132 49.1802 49.4962 42.7032 49.5165 42.6419L49.7126 42.1379L50.8418 42.533L50.2941 38.9097L47.6232 41.4228L47.6367 41.416Z" fill="white"/>
<path d="M41.801 9.16007L41.3209 8.62883L41.0031 8.27467L40.6853 7.92052L40.4216 7.62766L40.3269 7.5255L39.6169 6.73545L39.5155 6.61967L38.9272 5.96584L38.6838 5.69342L38.6297 5.63212C38.5215 5.51634 38.3795 5.44142 38.2172 5.43461C38.0955 5.4278 37.9806 5.45504 37.8724 5.52315C37.8386 5.54358 37.8115 5.56401 37.7845 5.59125C37.5951 5.76152 37.5343 6.01352 37.6019 6.23146C37.6289 6.31319 37.6695 6.38811 37.7304 6.45622L38.109 6.87848L38.3389 7.13729L38.8528 7.70939L38.934 7.79792L39.6034 8.5471L39.6845 8.63564L39.786 8.75142L40.1038 9.10558L40.1646 9.17369L40.2796 9.30309H40.5433C40.9963 9.30309 41.5035 9.30309 41.916 9.30309L41.7942 9.16688L41.801 9.16007Z" fill="white"/>
<path d="M35.8974 36.1305V35.1294V29.7148L27.8711 41.0206L35.8974 36.1305Z" fill="#F6E700"/>
<path d="M35.8971 29.0469V15.0713L32.2119 23.8571L35.8971 29.0469Z" fill="#F6E700"/>
<path d="M32.7123 30.3612L35.6605 29.3805L22.6709 25.0625L29.6965 31.3624L32.7123 30.3612Z" fill="#F6E700"/>
<path d="M36.2822 29.5918L43.6459 39.9509L44.3153 40.8908L42.253 31.5737L36.2822 29.5918Z" fill="#F6E700"/>
<path d="M36.2822 29.1761L49.2785 24.8581L39.9742 23.9863L37.8577 26.9626L36.2822 29.1761Z" fill="#F6E700"/>
<path d="M36.3506 29.3805L42.3146 31.3624L49.3401 25.0625L44.3296 26.7311L36.3506 29.3805Z" fill="#E60B22"/>
<path d="M29.7654 31.5737L27.6963 40.8908L35.7294 29.5918L29.7654 31.5737Z" fill="#E60B22"/>
<path d="M32.0571 23.9999L32.0436 23.9863L22.7393 24.8581L35.7288 29.1761L32.0571 23.9999Z" fill="#E60B22"/>
<path d="M36.1143 36.1296L44.1474 41.0196L36.1143 29.7139V36.1296Z" fill="#E60B22"/>
<path d="M36.1143 15.0781V29.0469L39.7995 23.8571L36.1143 15.0781Z" fill="#E60B22"/>
<path d="M42.4638 31.5259L50.0574 24.7152L39.9958 23.7685L36.1077 14.5059L36.013 14.2607L35.9116 14.5059L32.0235 23.7685L22.2053 24.6879L21.9551 24.7084L22.1444 24.8786L29.5554 31.5259L27.3308 41.5989L36.013 36.3138L44.4856 41.4695L44.7088 41.6057L44.6412 41.3333L42.4706 31.5191L42.4638 31.5259ZM32.0438 23.9864L32.0573 24.0069L35.729 29.183L22.7395 24.865L32.0438 23.9932V23.9864ZM22.6718 25.0625L35.6614 29.3805L32.7132 30.3613L29.6974 31.3624L22.6718 25.0625ZM29.765 31.5668L35.729 29.5848L27.6959 40.8906L29.7583 31.5668H29.765ZM35.9048 35.1288V36.1299L27.8717 41.02L35.9048 29.7142V35.1288ZM35.9048 29.0468L32.2196 23.857L35.9048 15.078V29.0536V29.0468ZM42.3218 31.3624L36.3579 29.3805L44.3369 26.7312L49.3474 25.0625L42.3218 31.3624ZM49.2866 24.8582L36.2902 29.1762L37.859 26.9627L39.9755 23.9796L49.2798 24.8514L49.2866 24.8582ZM36.1212 15.078L39.8064 23.857L36.1212 29.0468V15.078ZM36.1212 36.1367V29.7211L44.1543 41.0268L36.1212 36.1367ZM43.6539 39.9507L36.297 29.5917L42.261 31.5736L44.3233 40.8974L43.6539 39.9507Z" fill="#818383"/>
<path d="M81.2021 23.2261H91.061V25.7665H84.1368V39.3062H91.3517V41.8466H81.2021V23.2329V23.2261ZM98.9791 21.7822H101.779V45.0408H98.9791V33.8236H95.8551V44.9046H93.1369V21.8095H95.8551V31.3445H98.9791V21.7822Z" fill="#1B1A19"/>
<path d="M104.821 26.0041V23.5182H110.346V21.3047H113.443V23.5182H118.987V26.0041H104.821ZM105.869 44.5905V37.5142H108.804V42.0569H124.776V44.5905H105.869ZM117.344 31.6093C117.344 32.304 117.202 32.951 116.912 33.5435C116.628 34.1429 116.235 34.6673 115.755 35.1304C115.255 35.5731 114.673 35.9341 114.017 36.1997C113.362 36.4653 112.658 36.6015 111.901 36.6015C111.144 36.6015 110.44 36.4653 109.785 36.1997C109.129 35.9341 108.547 35.5799 108.047 35.1304C107.56 34.6673 107.174 34.1361 106.89 33.5435C106.6 32.9442 106.458 32.304 106.458 31.6093C106.458 30.9146 106.6 30.2676 106.89 29.6614C107.174 29.0553 107.567 28.524 108.047 28.0609C108.547 27.6182 109.129 27.2572 109.785 26.9916C110.44 26.726 111.144 26.5898 111.901 26.5898C112.658 26.5898 113.362 26.726 114.017 26.9916C114.673 27.2572 115.255 27.6182 115.755 28.0609C116.242 28.524 116.628 29.0553 116.912 29.6614C117.196 30.2676 117.344 30.9146 117.344 31.6093ZM114.518 31.582C114.518 30.8669 114.268 30.2608 113.76 29.75C113.26 29.246 112.645 28.9872 111.928 28.9872C111.211 28.9872 110.596 29.2392 110.082 29.75C109.568 30.2608 109.318 30.8669 109.318 31.582C109.318 32.2972 109.575 32.8965 110.082 33.4005C110.596 33.8977 111.211 34.1497 111.928 34.1497C112.645 34.1497 113.253 33.8977 113.76 33.4005C114.261 32.9033 114.518 32.2972 114.518 31.582ZM124.295 28.1086H127.663V30.6422H124.295V36.6765H121.388V21.7746H124.295V28.1018V28.1086Z" fill="#1B1A19"/>
<path d="M129.327 34.4161V22.4565H141.39V34.4161H129.327ZM130.003 44.5913V36.8203H132.911V42.0305H149.227V44.5913H129.997H130.003ZM138.537 24.9628H132.208V31.9302H138.537V24.9628ZM146.103 36.6841V21.7822H149.011V36.6841H146.103Z" fill="#1B1A19"/>
<path d="M160.945 36.9758V33.584H151.654V31.0505H173.198V33.584H163.88V36.9758H171.473V45.0941H168.566V39.5162H153.108V36.9758H160.945ZM171.419 22.2646V29.1775H168.512V24.7982H153.324V22.2646H171.419Z" fill="#1B1A19"/>
<path d="M190.832 36.9758V33.584H181.541V31.0505H203.084V33.584H193.766V36.9758H201.36V45.0941H198.452V39.5162H182.995V36.9758H190.832ZM201.306 22.2646V29.1775H198.398V24.7982H183.211V22.2646H201.306Z" fill="#1B1A19"/>
<path d="M217.575 33.5638H205.377V22.2921H208.257V25.3365H214.749V22.2921H217.575V33.5638ZM214.749 27.7679H208.257V31.1596H214.749V27.7679ZM223.1 40.1021C223.1 40.8853 222.938 41.6209 222.613 42.3019C222.288 42.9898 221.856 43.5892 221.321 44.1068C220.767 44.6244 220.111 45.033 219.367 45.3327C218.623 45.6324 217.839 45.789 217.014 45.789C216.189 45.789 215.398 45.6392 214.647 45.3327C213.89 45.033 213.241 44.6176 212.68 44.1068C212.139 43.5892 211.713 42.9898 211.388 42.3019C211.064 41.6141 210.901 40.8853 210.901 40.1021C210.901 39.3189 211.064 38.5833 211.388 37.8886C211.713 37.1939 212.146 36.5878 212.68 36.0701C213.234 35.5525 213.89 35.1439 214.647 34.8442C215.405 34.5445 216.189 34.3879 217.014 34.3879C217.839 34.3879 218.623 34.5377 219.367 34.8442C220.111 35.1439 220.76 35.5593 221.321 36.0701C221.862 36.5878 222.288 37.1939 222.613 37.8886C222.938 38.5833 223.1 39.3189 223.1 40.1021ZM220.246 40.0748C220.246 39.2031 219.922 38.4471 219.279 37.8205C218.63 37.1871 217.873 36.8738 216.994 36.8738C216.115 36.8738 215.357 37.1871 214.715 37.8205C214.079 38.4539 213.762 39.2031 213.762 40.0748C213.762 40.9466 214.079 41.6958 214.715 42.3156C215.351 42.9353 216.108 43.2486 216.994 43.2486C217.88 43.2486 218.637 42.9353 219.279 42.3156C219.928 41.6958 220.246 40.9466 220.246 40.0748ZM224.283 34.1223H221.376V21.7881H224.283V26.3513H227.651V29.2118H224.283V34.1223Z" fill="#1B1A19"/>
<path d="M228.455 36.4997H249.998V39.0606H240.681V45.0404H237.746V39.0606H228.455V36.4997ZM233.06 25.1258H245.394V22.1904H248.274V33.3804H230.179V22.1904H233.06V25.1258ZM245.394 27.639H233.06V30.84H245.394V27.639Z" fill="#1B1A19"/>
</svg>
