<svg width="48" height="48" viewBox="0 0 48 48" fill="none" xmlns="http://www.w3.org/2000/svg">
<g clip-path="url(#clip0_2916_19057)">
<path fill-rule="evenodd" clip-rule="evenodd" d="M28.8333 16.0543C27.925 16.4233 26.7284 15.574 26.1607 14.1594C25.5901 12.7419 25.8667 11.298 26.7721 10.929C27.6804 10.56 28.874 11.4093 29.4417 12.8239C30.0095 14.2385 29.7358 15.6853 28.8304 16.0543H28.8333Z" fill="white" stroke="#B0B0B0"/>
<path fill-rule="evenodd" clip-rule="evenodd" d="M28.3092 14.7482C27.9278 14.9034 27.395 14.467 27.1156 13.77C26.8361 13.0758 26.9205 12.3876 27.2961 12.2324C27.6774 12.0771 28.2102 12.5165 28.4897 13.2106C28.7692 13.9047 28.6877 14.5929 28.3063 14.7482H28.3092Z" fill="white" stroke="#B0B0B0"/>
<path fill-rule="evenodd" clip-rule="evenodd" d="M20.181 12.0508C20.181 12.0508 19.0397 12.0361 19.0397 13.0202C19.0397 14.0043 20.181 14.0043 20.181 14.0043H23.1214L21.8026 36.2158C21.8026 36.2158 19.4269 36.3651 16.7136 32.2913L17.7209 32.0716L15.0658 29.5675L14.5447 33.1318L15.5316 32.8155C15.5316 32.8155 17.0717 36.5174 19.5114 37.9906C21.951 39.4637 23.2786 39.9265 24.3558 41.754C24.3558 41.754 25.8318 40.0671 27.9221 38.8575C30.0124 37.6479 31.8 36.7547 33.3662 32.8887L34.4405 33.2314L33.931 29.6818L31.3749 31.8959L32.388 32.3118C32.388 32.3118 31.1507 35.4455 27.0575 36.1279L25.3689 14.0072H28.5277C28.5277 14.0072 29.634 13.9925 29.634 13.0231C29.634 12.0537 28.5277 12.0537 28.5277 12.0537H20.1839L20.181 12.0508Z" fill="white" stroke="#B0B0B0"/>
<path fill-rule="evenodd" clip-rule="evenodd" d="M32.2513 22.5533C31.3429 22.9223 30.1493 22.073 29.5787 20.6584C29.0081 19.2409 29.2846 17.7971 30.1901 17.428C31.0984 17.059 32.292 17.9084 32.8626 19.3229C33.4332 20.7375 33.1567 22.1843 32.2513 22.5533Z" fill="white" stroke="#B0B0B0"/>
<path fill-rule="evenodd" clip-rule="evenodd" d="M31.7272 21.2444C31.3487 21.3996 30.8131 20.9632 30.5336 20.2662C30.2541 19.5721 30.3385 18.8838 30.717 18.7286C31.0984 18.5734 31.6311 19.0098 31.9106 19.7068C32.1901 20.4009 32.1086 21.0892 31.7272 21.2444Z" fill="white" stroke="#B0B0B0"/>
<path fill-rule="evenodd" clip-rule="evenodd" d="M24.3906 6.14648C22.9204 6.14648 21.7268 7.45856 21.7268 9.07815C21.7268 10.6977 22.9204 12.0098 24.3906 12.0098C25.8609 12.0098 27.0574 10.6977 27.0574 9.07815C27.0574 7.45856 25.8638 6.14648 24.3906 6.14648ZM24.3906 10.8295C23.5114 10.8295 22.7982 10.0446 22.7982 9.07815C22.7982 8.11167 23.5114 7.32676 24.3906 7.32676C25.2699 7.32676 25.9831 8.11167 25.9831 9.07815C25.9831 10.0446 25.2699 10.8295 24.3906 10.8295Z" fill="white" stroke="#B0B0B0"/>
<path fill-rule="evenodd" clip-rule="evenodd" d="M25.7445 9.65781C25.7445 9.65781 25.3747 9.34444 25.0632 9.67831C24.7517 10.0093 25.1127 10.3343 25.1127 10.3343L26.7983 11.9305C26.7983 11.9305 27.1215 12.2615 27.4359 11.9276C27.7503 11.5908 27.4185 11.2657 27.4185 11.2657L25.7445 9.66074V9.65781Z" fill="white" stroke="#B0B0B0"/>
<path fill-rule="evenodd" clip-rule="evenodd" d="M29.0751 14.8715C29.0751 14.8715 28.7054 14.2243 28.2891 14.4439C27.8728 14.6636 28.2309 15.3196 28.2309 15.3196L29.8874 18.4797C29.8874 18.4797 30.2018 19.1182 30.621 18.8956C31.0403 18.673 30.72 18.0375 30.72 18.0375L29.0751 14.8715Z" fill="white" stroke="#B0B0B0"/>
<path d="M24.5945 24.1258H23.2786L19.6744 20.992C19.6744 20.992 18.8243 20.4385 17.8461 20.4385H2.18042C2.18042 20.4385 2.75686 23.1593 5.0597 23.1827C5.0597 23.1827 4.1834 25.801 7.56342 26.1788C7.56342 26.1788 7.61291 28.595 9.74107 29.2012H24.5974" fill="white"/>
<path d="M24.5945 24.1258H23.2786L19.6744 20.992C19.6744 20.992 18.8243 20.4385 17.8461 20.4385H2.18042C2.18042 20.4385 2.75686 23.1593 5.0597 23.1827C5.0597 23.1827 4.1834 25.801 7.56342 26.1788C7.56342 26.1788 7.61291 28.595 9.74107 29.2012H24.5974" stroke="#B0B0B0"/>
<path d="M24.4053 24.1258H25.7212L29.3254 20.992C29.3254 20.992 30.1755 20.4385 31.1537 20.4385H46.8223C46.8223 20.4385 46.2459 23.1593 43.943 23.1827C43.943 23.1827 44.8193 25.801 41.4422 26.1788C41.4422 26.1788 41.3927 28.595 39.2646 29.2012H24.4082" fill="white"/>
<path d="M24.4053 24.1258H25.7212L29.3254 20.992C29.3254 20.992 30.1755 20.4385 31.1537 20.4385H46.8223C46.8223 20.4385 46.2459 23.1593 43.943 23.1827C43.943 23.1827 44.8193 25.801 41.4422 26.1788C41.4422 26.1788 41.3927 28.595 39.2646 29.2012H24.4082" stroke="#B0B0B0"/>
<path d="M24.373 24.7763L32.8857 21.6396L28.4663 26.144L28.4692 26.1528L24.373 24.7763Z" fill="#E60623" stroke="#B0B0B0" stroke-width="0.2"/>
<path d="M24.3674 14.8184L21.8375 20.8457L21.7793 20.8516L24.3674 24.7761V14.8184Z" fill="#F5EB00" stroke="#B0B0B0" stroke-width="0.2"/>
<path d="M24.3674 24.7764L19.1445 32.6312L24.3674 29.4184V24.7764Z" fill="#F5EB00" stroke="#B0B0B0" stroke-width="0.2"/>
<path d="M24.3674 24.7764L20.2712 26.1529L19.1038 32.6576L19.1445 32.6312L24.3674 24.7764Z" fill="#E60623" stroke="#B0B0B0" stroke-width="0.2"/>
<path d="M24.3674 24.7763L15.8577 21.6396L20.2741 26.144L20.2712 26.1528L24.3674 24.7763Z" fill="#F5EB00" stroke="#B0B0B0" stroke-width="0.2"/>
<path d="M21.7792 20.8516L15.8489 21.6306L15.8576 21.6394L24.3673 24.7761L21.7792 20.8516Z" fill="#E60623" stroke="#B0B0B0" stroke-width="0.2"/>
<path d="M24.373 14.8184L26.903 20.8457L26.9612 20.8516L24.373 24.7761V14.8184Z" fill="#E60623" stroke="#B0B0B0" stroke-width="0.2"/>
<path d="M24.373 24.7764L29.5959 32.6312L24.373 29.4184V24.7764Z" fill="#E60623" stroke="#B0B0B0" stroke-width="0.2"/>
<path d="M24.373 24.7764L28.4692 26.1529L29.6396 32.6576L29.5959 32.6312L24.373 24.7764Z" fill="#F5EB00" stroke="#B0B0B0" stroke-width="0.2"/>
<path d="M26.9612 20.8516L32.8915 21.6306L32.8857 21.6394L24.373 24.7761L26.9612 20.8516Z" fill="#F5EB00" stroke="#B0B0B0" stroke-width="0.2"/>
</g>
<defs>
<clipPath id="clip0_2916_19057">
<rect width="45" height="36" fill="white" transform="translate(2 6)"/>
</clipPath>
</defs>
</svg>
