<svg width="20" height="20" viewBox="0 0 20 20" fill="none" xmlns="http://www.w3.org/2000/svg">
    <path d="m2.5 2.5 15 15M8.82 8.823a1.667 1.667 0 1 0 2.357 2.358" stroke="#CFD4D7" stroke-width="2" stroke-linecap="round" stroke-linejoin="round"/>
    <path d="M7.527 3.51a1 1 0 0 0 .55 1.922l-.55-1.923zM10 4.166l-.004 1H10v-1zM18.333 10l.868.496a1 1 0 0 0 0-.992l-.868.496zm-2.82 2.228a1 1 0 1 0 1.469 1.357l-1.469-1.357zm-.49 3.059a1 1 0 0 0-1.118-1.659l1.118 1.659zM1.666 10l-.868-.496a1 1 0 0 0 0 .992L1.667 10zm4.422-3.623a1 1 0 1 0-1.123-1.655l1.123 1.655zm1.99-.945a6.888 6.888 0 0 1 1.918-.265l.007-2a8.888 8.888 0 0 0-2.476.342l.55 1.923zM10 5.167c2.853 0 5.35 1.63 7.465 5.33l1.736-.993c-2.33-4.08-5.388-6.337-9.201-6.337v2zm7.465 4.337c-.618 1.08-1.27 1.986-1.952 2.724l1.469 1.357c.803-.868 1.54-1.902 2.22-3.089l-1.737-.992zm-3.56 4.124c-1.197.807-2.49 1.205-3.905 1.205v2c1.82 0 3.502-.52 5.023-1.546l-1.118-1.659zM10 14.833c-2.853 0-5.351-1.63-7.465-5.33l-1.737.993C3.13 14.575 6.186 16.833 10 16.833v-2zm-7.465-4.337c1.089-1.905 2.28-3.257 3.553-4.12L4.965 4.723C3.372 5.802 1.991 7.417.798 9.504l1.737.992z" fill="#CFD4D7"/>
</svg>
