<svg width="35" height="35" viewBox="0 0 35 35" fill="none" xmlns="http://www.w3.org/2000/svg">
<circle cx="17.5" cy="17.5" r="17.5" fill="#D9DDDF"/>
<path d="M12.6668 11.8333H12.6835" stroke="white" stroke-width="3" stroke-linecap="round" stroke-linejoin="round"/>
<path d="M22.6668 11.8333H22.6835" stroke="white" stroke-width="3" stroke-linecap="round" stroke-linejoin="round"/>
<path d="M12 18.5C12 17.9477 11.5523 17.5 11 17.5C10.4477 17.5 10 17.9477 10 18.5H12ZM25.3333 18.5C25.3333 17.9477 24.8856 17.5 24.3333 17.5C23.781 17.5 23.3333 17.9477 23.3333 18.5H25.3333ZM24.3333 19.5C24.8856 19.5 25.3333 19.0523 25.3333 18.5C25.3333 17.9477 24.8856 17.5 24.3333 17.5V19.5ZM11 17.5C10.4477 17.5 10 17.9477 10 18.5C10 19.0523 10.4477 19.5 11 19.5V17.5ZM10 18.5C10 22.7342 13.4325 26.1667 17.6667 26.1667V24.1667C14.5371 24.1667 12 21.6296 12 18.5H10ZM17.6667 26.1667C21.9009 26.1667 25.3333 22.7342 25.3333 18.5H23.3333C23.3333 21.6296 20.7963 24.1667 17.6667 24.1667V26.1667ZM24.3333 17.5H11V19.5H24.3333V17.5Z" fill="white"/>
</svg>
