<svg width="24" height="24" viewBox="0 0 24 24" fill="none" xmlns="http://www.w3.org/2000/svg">
<circle cx="12" cy="12" r="8" fill="black"/>
<circle cx="12" cy="12" r="8" fill="black" fill-opacity="0.2"/>
<circle cx="12" cy="12" r="8" fill="black" fill-opacity="0.2"/>
<path d="M9.5 8.5C9.22386 8.22386 8.77614 8.22386 8.5 8.5V8.5C8.22386 8.77614 8.22386 9.22386 8.5 9.5L14.5 15.5C14.7761 15.7761 15.2239 15.7761 15.5 15.5V15.5C15.7761 15.2239 15.7761 14.7761 15.5 14.5L9.5 8.5Z" fill="white"/>
<path d="M14.5 8.5C14.7761 8.22386 15.2239 8.22386 15.5 8.5V8.5C15.7761 8.77614 15.7761 9.22386 15.5 9.5L9.5 15.5C9.22386 15.7761 8.77614 15.7761 8.5 15.5V15.5C8.22386 15.2239 8.22386 14.7761 8.5 14.5L14.5 8.5Z" fill="white"/>
</svg>
