<svg width="44" height="44" viewBox="0 0 44 44" fill="none" xmlns="http://www.w3.org/2000/svg">
<circle cx="22" cy="22" r="22" fill="#20A556"/>
<path d="M25 32C25.5523 32 26 31.5523 26 31C26 30.4477 25.5523 30 25 30V32ZM13 27V26C12.4477 26 12 26.4477 12 27H13ZM23 27H24C24 26.4477 23.5523 26 23 26V27ZM27 16C26.4477 16 26 16.4477 26 17C26 17.5523 26.4477 18 27 18V16ZM29 14C29.5523 14 30 13.5523 30 13C30 12.4477 29.5523 12 29 12V14ZM14 27C14 27.5523 14.4477 28 15 28C15.5523 28 16 27.5523 16 27H14ZM25 30H16V32H25V30ZM16 30C14.8954 30 14 29.1046 14 28H12C12 30.2091 13.7909 32 16 32V30ZM14 28V27H12V28H14ZM13 28H23V26H13V28ZM22 27V29H24V27H22ZM22 29C22 30.6569 23.3431 32 25 32V30C24.4477 30 24 29.5523 24 29H22ZM25 32C26.6569 32 28 30.6569 28 29H26C26 29.5523 25.5523 30 25 30V32ZM28 29V15H26V29H28ZM28 15C28 14.4477 28.4477 14 29 14V12C27.3431 12 26 13.3431 26 15H28ZM29 14C29.5523 14 30 14.4477 30 15H32C32 13.3431 30.6569 12 29 12V14ZM30 15C30 15.5523 29.5523 16 29 16V18C30.6569 18 32 16.6569 32 15H30ZM29 16H27V18H29V16ZM29 12H18V14H29V12ZM18 12C15.7909 12 14 13.7909 14 16H16C16 14.8954 16.8954 14 18 14V12ZM14 16V27H16V16H14Z" fill="white"/>
<path d="M19 17H23" stroke="white" stroke-width="2" stroke-linecap="round" stroke-linejoin="round"/>
<path d="M19 21H23" stroke="white" stroke-width="2" stroke-linecap="round" stroke-linejoin="round"/>
</svg>
