<svg width="40" height="40" viewBox="0 0 40 40" fill="none" xmlns="http://www.w3.org/2000/svg">
<circle cx="20" cy="20" r="20" fill="black" fill-opacity="0.8"/>
<path d="M13.5 12.5C13.2239 12.2239 12.7761 12.2239 12.5 12.5C12.2239 12.7761 12.2239 13.2239 12.5 13.5L26.5 27.5C26.7761 27.7761 27.2239 27.7761 27.5 27.5C27.7761 27.2239 27.7761 26.7761 27.5 26.5L13.5 12.5Z" fill="white"/>
<path d="M26.5 12.5C26.7761 12.2239 27.2239 12.2239 27.5 12.5C27.7761 12.7761 27.7761 13.2239 27.5 13.5L13.5 27.5C13.2239 27.7761 12.7761 27.7761 12.5 27.5C12.2239 27.2239 12.2239 26.7761 12.5 26.5L26.5 12.5Z" fill="white"/>
</svg>
