<svg width="25" height="24" viewBox="0 0 25 24" fill="none" xmlns="http://www.w3.org/2000/svg">
<path d="M16.034 7.70674L16.0341 7.70673L16.0325 7.70281L13.8944 2.31529L13.8942 2.31479C13.7834 2.03645 13.5952 1.79328 13.3479 1.61955C13.1 1.44536 12.805 1.35 12.5 1.35C12.195 1.35 11.9 1.44536 11.6521 1.61954C11.4047 1.79332 11.2166 2.03651 11.1059 2.31479L11.1057 2.31529L8.9675 7.70281L8.96749 7.7028L8.96596 7.70674C8.94847 7.75165 8.92138 7.78528 8.89248 7.80712L9.28437 8.3257L8.89248 7.80712C8.86398 7.82866 8.83425 7.83857 8.80706 7.84031L8.80705 7.84017L8.79393 7.84128L3.22768 8.31114L3.28114 8.95894L3.22647 8.31124L3.22698 8.3112C2.92425 8.33633 2.63931 8.45542 2.4075 8.64836C2.17615 8.84091 2.00865 9.09746 1.9207 9.38255L2.54182 9.57416L1.9207 9.38255C1.83283 9.66736 1.82676 9.97233 1.90308 10.2605L2.52898 10.0947L1.90308 10.2605C1.97943 10.5487 2.13617 10.8118 2.35893 11.0139L2.36208 11.0167L6.59708 14.8087L6.59706 14.8087L6.60121 14.8124C6.62937 14.8371 6.65461 14.8737 6.66932 14.9204C6.684 14.9669 6.6863 15.018 6.67549 15.0666C6.67545 15.0668 6.6754 15.067 6.67536 15.0672L5.38492 20.7465C5.38484 20.7468 5.38476 20.7472 5.38469 20.7475C5.31789 21.0389 5.33433 21.3448 5.43275 21.6274C5.53136 21.9107 5.70941 22.162 5.94976 22.346C6.19071 22.5305 6.48242 22.6377 6.7879 22.649C7.09195 22.6602 7.38946 22.5756 7.64239 22.4102L12.3972 19.3657C12.3977 19.3654 12.3981 19.3652 12.3985 19.3649C12.432 19.3441 12.4669 19.3349 12.5 19.3349C12.5331 19.3349 12.568 19.3441 12.6014 19.3649C12.6019 19.3651 12.6023 19.3654 12.6028 19.3657L17.3578 22.4103C17.6107 22.5756 17.9081 22.6602 18.2121 22.649C18.5176 22.6377 18.8093 22.5305 19.0502 22.346C19.2906 22.1621 19.4686 21.9107 19.5673 21.6274C19.6657 21.3448 19.6821 21.0389 19.6153 20.7475C19.6152 20.7472 19.6152 20.7468 19.6151 20.7465L18.3246 15.0672C18.3246 15.067 18.3246 15.0669 18.3245 15.0667C18.3137 15.0181 18.316 14.967 18.3307 14.9204C18.3454 14.8737 18.3706 14.8372 18.3988 14.8124L18.3988 14.8124L18.403 14.8087L22.6379 11.0168L22.6411 11.0139C22.8638 10.8118 23.0206 10.5487 23.0969 10.2605C23.1732 9.97233 23.1672 9.66736 23.0793 9.38255C22.9913 9.09746 22.8239 8.84091 22.5925 8.64836L22.1767 9.14796C22.0451 9.03844 21.8858 8.97271 21.7189 8.95894L21.7735 8.31124L21.7729 8.31119C21.7727 8.31117 21.7725 8.31116 21.7723 8.31114L16.2061 7.84128L16.2061 7.84115L16.1929 7.84031C16.1658 7.83857 16.136 7.82866 16.1075 7.80712C16.0786 7.78528 16.0515 7.75165 16.034 7.70674Z" fill="#FED500" stroke="#FED500" stroke-width="1.3" stroke-linecap="round" stroke-linejoin="round"/>
</svg>
