<svg width="24" height="24" viewBox="0 0 24 24" fill="none" xmlns="http://www.w3.org/2000/svg">
<circle cx="12" cy="14" r="3" stroke="#8C989E" stroke-width="2" stroke-linecap="round" stroke-linejoin="round"/>
<path d="M5 7C4.44772 7 4 7.44772 4 8C4 8.55228 4.44772 9 5 9V7ZM12 6C12.5523 6 13 5.55228 13 5C13 4.44772 12.5523 4 12 4V6ZM22 12C22 11.4477 21.5523 11 21 11C20.4477 11 20 11.4477 20 12H22ZM5 9C5.55228 9 6 8.55228 6 8C6 7.44772 5.55228 7 5 7V9ZM5 9H7V7H5V9ZM7 9C8.65685 9 10 7.65685 10 6H8C8 6.55228 7.55228 7 7 7V9ZM10 6V4C8.89543 4 8 4.89543 8 6H10ZM10 6H12V4H10V6ZM20 12V19H22V12H20ZM20 19C20 19.5523 19.5523 20 19 20V22C20.6569 22 22 20.6569 22 19H20ZM19 20H5V22H19V20ZM5 20C4.44772 20 4 19.5523 4 19H2C2 20.6569 3.34315 22 5 22V20ZM4 19V10H2V19H4ZM4 10C4 9.44772 4.44772 9 5 9V7C3.34315 7 2 8.34315 2 10H4Z" fill="#8C989E"/>
<path d="M15 6H21" stroke="#8C989E" stroke-width="2" stroke-linecap="round" stroke-linejoin="round"/>
<path d="M18 3V9" stroke="#8C989E" stroke-width="2" stroke-linecap="round" stroke-linejoin="round"/>
</svg>
