<svg width="44" height="44" viewBox="0 0 44 44" fill="none" xmlns="http://www.w3.org/2000/svg">
<circle cx="22" cy="22" r="22" fill="#20A556"/>
<path d="M15 17H16C17.1046 17 18 16.1046 18 15C18 14.4477 18.4477 14 19 14H25C25.5523 14 26 14.4477 26 15C26 16.1046 26.8954 17 28 17H29C30.1046 17 31 17.8954 31 19V28C31 29.1046 30.1046 30 29 30H15C13.8954 30 13 29.1046 13 28V19C13 17.8954 13.8954 17 15 17" stroke="white" stroke-width="2" stroke-linecap="round" stroke-linejoin="round"/>
<circle cx="22" cy="23" r="3" stroke="white" stroke-width="2" stroke-linecap="round" stroke-linejoin="round"/>
</svg>
