<svg width="12" height="12" viewBox="0 0 12 12" fill="none" xmlns="http://www.w3.org/2000/svg">
<path fill-rule="evenodd" clip-rule="evenodd" d="M3.16495 2.30435C2.9372 2.30435 2.75258 2.49901 2.75258 2.73913V4.80435L6.6701 4.80435V2.73913C6.6701 2.49901 6.48548 2.30435 6.25773 2.30435H3.16495ZM7.90722 4.80769V2.73913C7.90722 1.77864 7.16872 1 6.25773 1H3.16495C2.25396 1 1.51546 1.77864 1.51546 2.73913V9.70467C1.22292 9.75642 1 10.0247 1 10.3478C1 10.708 1.27694 11 1.61856 11H7.80412C8.14574 11 8.42268 10.708 8.42268 10.3478C8.42268 10.0247 8.19976 9.75642 7.90722 9.70467V6.12239C8.08507 6.17066 8.21649 6.34089 8.21649 6.54348V8.17391C8.21649 8.98433 8.8396 9.6413 9.60825 9.6413C10.3769 9.6413 11 8.98433 11 8.17391V4.36957C11 4.1966 10.9348 4.03071 10.8188 3.90841L9.78848 2.82206L9.78733 2.82085L9.27244 2.27797C9.03088 2.02328 8.63923 2.02328 8.39767 2.27797C8.1561 2.53266 8.1561 2.9456 8.39767 3.20029L8.73196 3.55275V3.82609C8.73196 4.44979 9.1849 4.96195 9.76289 5.01686V8.17391C9.76289 8.26396 9.69365 8.33696 9.60825 8.33696C9.52284 8.33696 9.45361 8.26396 9.45361 8.17391V6.54348C9.45361 5.61949 8.77018 4.8638 7.90722 4.80769Z" fill="#8C989E"/>
</svg>
