<svg width="24" height="24" viewBox="0 0 24 24" fill="none" xmlns="http://www.w3.org/2000/svg">
<path d="M14 3V7C14 7.55228 14.4477 8 15 8H19" stroke="white" stroke-width="2" stroke-linecap="round" stroke-linejoin="round"/>
<path d="M11.5 22C12.0523 22 12.5 21.5523 12.5 21C12.5 20.4477 12.0523 20 11.5 20V22ZM14 3L14.7071 2.29289C14.5196 2.10536 14.2652 2 14 2V3ZM19 8H20C20 7.73478 19.8946 7.48043 19.7071 7.29289L19 8ZM18 13C18 13.5523 18.4477 14 19 14C19.5523 14 20 13.5523 20 13H18ZM14 18C13.4477 18 13 18.4477 13 19C13 19.5523 13.4477 20 14 20V18ZM21 20C21.5523 20 22 19.5523 22 19C22 18.4477 21.5523 18 21 18V20ZM18.7071 15.2929C18.3166 14.9024 17.6834 14.9024 17.2929 15.2929C16.9024 15.6834 16.9024 16.3166 17.2929 16.7071L18.7071 15.2929ZM21 19L21.7071 19.7071C22.0976 19.3166 22.0976 18.6834 21.7071 18.2929L21 19ZM17.2929 21.2929C16.9024 21.6834 16.9024 22.3166 17.2929 22.7071C17.6834 23.0976 18.3166 23.0976 18.7071 22.7071L17.2929 21.2929ZM11.5 20H7V22H11.5V20ZM7 20C6.44772 20 6 19.5523 6 19H4C4 20.6569 5.34315 22 7 22V20ZM6 19V5H4V19H6ZM6 5C6 4.44772 6.44772 4 7 4V2C5.34315 2 4 3.34315 4 5H6ZM7 4H14V2H7V4ZM13.2929 3.70711L18.2929 8.70711L19.7071 7.29289L14.7071 2.29289L13.2929 3.70711ZM18 8V13H20V8H18ZM14 20H21V18H14V20ZM17.2929 16.7071L20.2929 19.7071L21.7071 18.2929L18.7071 15.2929L17.2929 16.7071ZM20.2929 18.2929L17.2929 21.2929L18.7071 22.7071L21.7071 19.7071L20.2929 18.2929Z" fill="white"/>
</svg>
