<svg width="24" height="24" viewBox="0 0 24 24" fill="none" xmlns="http://www.w3.org/2000/svg">
    <path d="M8 16v-4a4 4 0 1 1 8 0v4" stroke="#40535E" stroke-width="2" stroke-linecap="round" stroke-linejoin="round"/>
    <path d="M3 11a1 1 0 1 0 0 2v-2zm1 2a1 1 0 1 0 0-2v2zm9-10a1 1 0 1 0-2 0h2zm-2 1a1 1 0 1 0 2 0h-2zm9 7a1 1 0 1 0 0 2v-2zm1 2a1 1 0 1 0 0-2v2zM6.307 4.893a1 1 0 0 0-1.414 1.414l1.414-1.414zm-.714 2.114a1 1 0 0 0 1.414-1.414L5.593 7.007zm13.514-.7a1 1 0 0 0-1.414-1.414l1.414 1.414zm-2.114-.714a1 1 0 0 0 1.414 1.414l-1.414-1.414zM3 13h1v-2H3v2zm8-10v1h2V3h-2zm9 10h1v-2h-1v2zM4.893 6.307l.7.7 1.414-1.414-.7-.7-1.414 1.414zm12.8-1.414-.7.7 1.414 1.414.7-.7-1.414-1.414z" fill="#40535E"/>
    <rect x="6" y="16" width="12" height="4" rx="1" stroke="#40535E" stroke-width="2" stroke-linecap="round" stroke-linejoin="round"/>
</svg>
