<svg width="24" height="24" viewBox="0 0 24 24" fill="none" xmlns="http://www.w3.org/2000/svg">
<path d="M16 10C16 12.2091 14.2091 14 12 14C9.79086 14 8 12.2091 8 10C8 7.79086 9.79086 6 12 6C14.2091 6 16 7.79086 16 10Z" stroke="#8C989E" stroke-width="2"/>
<path d="M22 12C22 17.5228 17.5228 22 12 22C6.47715 22 2 17.5228 2 12C2 6.47715 6.47715 2 12 2C17.5228 2 22 6.47715 22 12Z" stroke="#8C989E" stroke-width="2"/>
<path d="M6 20V19C6 17.8954 6.89543 17 8 17H16C17.1046 17 18 17.8954 18 19V20" stroke="#8C989E" stroke-width="2"/>
</svg>
