<svg width="24" height="24" viewBox="0 0 24 24" fill="none" xmlns="http://www.w3.org/2000/svg">
<path fill-rule="evenodd" clip-rule="evenodd" d="M10.5 19C15.1944 19 19 15.1944 19 10.5C19 5.80558 15.1944 2 10.5 2C5.80558 2 2 5.80558 2 10.5C2 15.1944 5.80558 19 10.5 19ZM10.5 17C14.0899 17 17 14.0899 17 10.5C17 6.91015 14.0899 4 10.5 4C6.91015 4 4 6.91015 4 10.5C4 14.0899 6.91015 17 10.5 17Z" fill="#40535E"/>
<path d="M21 19L17.5 15.5C16.9477 14.9477 16.0523 14.9477 15.5 15.5C14.9477 16.0523 14.9477 16.9477 15.5 17.5L19 21C19.5523 21.5523 20.4477 21.5523 21 21C21.5523 20.4477 21.5523 19.5523 21 19Z" fill="#40535E"/>
</svg>
