<svg width="24" height="24" viewBox="0 0 24 24" fill="none" xmlns="http://www.w3.org/2000/svg">
<path d="M20.2041 14.2823C20.5965 13.8937 20.5996 13.2605 20.211 12.8681C19.8223 12.4757 19.1892 12.4727 18.7968 12.8613L20.2041 14.2823ZM12.0004 20.9998L11.2968 21.7103C11.6865 22.0963 12.3144 22.0963 12.7041 21.7103L12.0004 20.9998ZM5.20413 12.8613C4.81173 12.4727 4.17857 12.4757 3.78993 12.8681C3.4013 13.2605 3.40435 13.8937 3.79675 14.2823L5.20413 12.8613ZM3.80304 14.2885C4.19885 14.6737 4.83196 14.665 5.21712 14.2692C5.60229 13.8734 5.59366 13.2403 5.19784 12.8551L3.80304 14.2885ZM12.0004 7.00583L11.1978 7.60235C11.3859 7.85541 11.6824 8.00495 11.9977 8.00582C12.313 8.0067 12.6102 7.85882 12.7997 7.6068L12.0004 7.00583ZM18.7997 12.8644C18.4057 13.2514 18.4 13.8845 18.787 14.2786C19.174 14.6726 19.8072 14.6783 20.2012 14.2913L18.7997 12.8644ZM18.7968 12.8613L11.2968 20.2893L12.7041 21.7103L20.2041 14.2823L18.7968 12.8613ZM12.7041 20.2893L5.20413 12.8613L3.79675 14.2823L11.2968 21.7103L12.7041 20.2893ZM5.19784 12.8551C4.11888 11.8052 3.72083 10.2384 4.16783 8.80077L2.25802 8.20695C1.58752 10.3634 2.1846 12.7136 3.80304 14.2885L5.19784 12.8551ZM4.16783 8.80077C4.61483 7.36317 5.83117 6.2983 7.31525 6.04531L6.97916 4.07375C4.75303 4.45324 2.92852 6.05054 2.25802 8.20695L4.16783 8.80077ZM7.31525 6.04531C8.79934 5.79231 10.2998 6.39403 11.1978 7.60235L12.803 6.40931C11.456 4.59684 9.20529 3.69425 6.97916 4.07375L7.31525 6.04531ZM12.7997 7.6068C13.7015 6.40743 15.1988 5.81369 16.6775 6.06906L17.0178 4.09823C14.7998 3.71519 12.5539 4.60579 11.2012 6.40485L12.7997 7.6068ZM16.6775 6.06906C18.1562 6.32442 19.3676 7.38592 19.8149 8.81828L21.724 8.22207C21.053 6.07353 19.2359 4.48127 17.0178 4.09823L16.6775 6.06906ZM19.8149 8.81828C20.2622 10.2506 19.8703 11.8129 18.7997 12.8644L20.2012 14.2913C21.807 12.714 22.395 10.3706 21.724 8.22207L19.8149 8.81828Z" fill="#40535E"/>
</svg>
