<svg width="32" height="32" viewBox="0 0 32 32" fill="none" xmlns="http://www.w3.org/2000/svg">
<path d="M4.69199 24C4.29399 24 3.94899 23.672 3.86499 23.212C3.78099 22.752 3.97901 22.284 4.34201 22.09L6.23001 21.075C4.18301 19.215 3 16.667 3 14C3 8.486 7.935 4 14 4C20.065 4 25 8.486 25 14C25 19.514 20.065 24 14 24H4.69199Z" stroke="#20A556" stroke-width="2" stroke-miterlimit="10" stroke-linejoin="round"/>
<path d="M13.8271 24.0016C15.1711 26.3776 17.8371 27.9996 20.9001 27.9996H27.6692C27.9592 27.9996 28.2091 27.7536 28.2701 27.4076C28.3331 27.0626 28.1882 26.7126 27.9242 26.5666L26.5511 25.8056C28.0391 24.4096 28.9012 22.4986 28.9012 20.4986C28.9012 17.7646 27.3331 15.3676 24.9941 14.0566" stroke="#20A556" stroke-width="1.4" stroke-miterlimit="10" stroke-linejoin="round"/>
<path d="M10 15C10.5523 15 11 14.5523 11 14C11 13.4477 10.5523 13 10 13C9.44772 13 9 13.4477 9 14C9 14.5523 9.44772 15 10 15Z" fill="#20A556"/>
<path d="M14 15C14.5523 15 15 14.5523 15 14C15 13.4477 14.5523 13 14 13C13.4477 13 13 13.4477 13 14C13 14.5523 13.4477 15 14 15Z" fill="#20A556"/>
<path d="M18 15C18.5523 15 19 14.5523 19 14C19 13.4477 18.5523 13 18 13C17.4477 13 17 13.4477 17 14C17 14.5523 17.4477 15 18 15Z" fill="#20A556"/>
</svg>
