<svg width="24" height="24" viewBox="0 0 24 24" fill="none" xmlns="http://www.w3.org/2000/svg">
    <path d="M5.644 12.895a.65.65 0 1 0-1.288.179l1.288-.18zm13.519 2.09a.65.65 0 1 0-1.2-.5l1.2.5zm-.813 3.25a.65.65 0 1 0 1.3 0h-1.3zm.65-3.5h.65a.65.65 0 0 0-.65-.65v.65zm-3.5-.65a.65.65 0 1 0 0 1.3v-1.3zM4.356 13.073a7.738 7.738 0 0 0 6.674 6.609l.166-1.29a6.438 6.438 0 0 1-5.552-5.498l-1.288.179zm6.674 6.609a7.738 7.738 0 0 0 8.133-4.699l-1.2-.5a6.438 6.438 0 0 1-6.767 3.91l-.166 1.289zm8.62-1.449v-3.5h-1.3v3.5h1.3zm-.65-4.15h-3.5v1.3H19v-1.3zM18.356 11.202a.65.65 0 1 0 1.288-.18l-1.288.18zM4.837 9.112a.65.65 0 1 0 1.2.5l-1.2-.5zm.813-3.25a.65.65 0 0 0-1.3 0h1.3zM5 9.362h-.65c0 .36.291.65.65.65v-.65zm3.5.65a.65.65 0 0 0 0-1.3v1.3zm11.144 1.01a7.738 7.738 0 0 0-6.674-6.608l-.166 1.29a6.438 6.438 0 0 1 5.552 5.498l1.288-.18zM12.97 4.415a7.737 7.737 0 0 0-8.133 4.698l1.2.5a6.438 6.438 0 0 1 6.767-3.909l.166-1.29zM4.35 5.862v3.5h1.3v-3.5h-1.3zm.65 4.15h3.5v-1.3H5v1.3z" fill="#40535E"/>
</svg>
