<svg width="24" height="24" viewBox="0 0 24 24" fill="none" xmlns="http://www.w3.org/2000/svg">
<path d="M14 3V7C14 7.55228 14.4477 8 15 8H19" stroke="white" stroke-width="2" stroke-linecap="round" stroke-linejoin="round"/>
<path d="M4 13C4 13.5523 4.44772 14 5 14C5.55228 14 6 13.5523 6 13H4ZM14 3L14.7071 2.29289C14.5196 2.10536 14.2652 2 14 2V3ZM19 8H20C20 7.73478 19.8946 7.48043 19.7071 7.29289L19 8ZM11.5 20C10.9477 20 10.5 20.4477 10.5 21C10.5 21.5523 10.9477 22 11.5 22V20ZM2 18C1.44772 18 1 18.4477 1 19C1 19.5523 1.44772 20 2 20V18ZM9 20C9.55228 20 10 19.5523 10 19C10 18.4477 9.55228 18 9 18V20ZM6.70711 15.2929C6.31658 14.9024 5.68342 14.9024 5.29289 15.2929C4.90237 15.6834 4.90237 16.3166 5.29289 16.7071L6.70711 15.2929ZM9 19L9.70711 19.7071C10.0976 19.3166 10.0976 18.6834 9.70711 18.2929L9 19ZM5.29289 21.2929C4.90237 21.6834 4.90237 22.3166 5.29289 22.7071C5.68342 23.0976 6.31658 23.0976 6.70711 22.7071L5.29289 21.2929ZM6 13V5H4V13H6ZM6 5C6 4.44772 6.44772 4 7 4V2C5.34315 2 4 3.34315 4 5H6ZM7 4H14V2H7V4ZM13.2929 3.70711L18.2929 8.70711L19.7071 7.29289L14.7071 2.29289L13.2929 3.70711ZM18 8V19H20V8H18ZM18 19C18 19.5523 17.5523 20 17 20V22C18.6569 22 20 20.6569 20 19H18ZM17 20H11.5V22H17V20ZM2 20H9V18H2V20ZM5.29289 16.7071L8.29289 19.7071L9.70711 18.2929L6.70711 15.2929L5.29289 16.7071ZM8.29289 18.2929L5.29289 21.2929L6.70711 22.7071L9.70711 19.7071L8.29289 18.2929Z" fill="white"/>
</svg>
