<svg width="127" height="130" viewBox="0 0 127 130" fill="none" xmlns="http://www.w3.org/2000/svg">
<path d="M121.938 85.7593L76.4643 73.8803C76.367 73.8605 76.2663 73.868 76.1734 73.9019C76.0805 73.9358 75.9992 73.9948 75.9386 74.0722C75.878 74.1496 75.8404 74.2424 75.8303 74.34C75.8201 74.4377 75.8378 74.5363 75.8812 74.6249L84.8351 89.9364C84.9902 90.1641 85.224 90.3278 85.4921 90.3963L102.954 94.9579C99.3321 100.488 93.8397 104.556 87.4542 106.437C81.0686 108.318 74.2043 107.891 68.0825 105.231C61.9607 102.571 56.9788 97.8506 54.0233 91.9104C51.0677 85.9703 50.3303 79.1955 51.9423 72.7916C52.446 70.844 53.1666 68.9589 54.0907 67.1709L45.5169 52.7594C41.442 57.7157 38.5451 63.5195 37.0393 69.7441C35.5334 75.9688 35.4568 82.456 36.8152 88.729C38.1735 95.0021 40.9322 100.901 44.8885 105.993C48.8449 111.085 53.8983 115.241 59.6772 118.154C65.4562 121.067 71.8138 122.664 78.2829 122.827C84.7519 122.99 91.1678 121.716 97.0591 119.097C102.95 116.478 108.167 112.582 112.326 107.695C116.485 102.808 119.481 97.0536 121.092 90.8555C121.484 89.177 121.766 87.4748 121.938 85.7593Z" fill="#40535E"/>
<path d="M87.4586 52.6655C92.0485 53.8666 96.2444 56.2558 99.6402 59.602C103.036 62.9482 105.517 67.1379 106.843 71.7658L122.568 62.3445C119.996 55.7235 115.935 49.8193 110.709 45.1012C105.482 40.383 99.2344 36.9811 92.4615 35.1658C85.6885 33.3506 78.5773 33.172 71.6933 34.6444C64.8094 36.1167 58.3424 39.1993 52.8066 43.6472L61.8014 59.3571C65.2056 56.1499 69.339 53.8564 73.822 52.6872C78.3051 51.518 82.9941 51.5105 87.4586 52.6655Z" fill="#20A556"/>
<rect x="32.8574" width="130" height="130" transform="rotate(14.6402 32.8574 0)" fill="white" fill-opacity="0.8"/>
</svg>
