<svg width="80" height="80" viewBox="0 0 80 80" fill="none" xmlns="http://www.w3.org/2000/svg">
    <path d="M20 2a2 2 0 1 0 0 4V2zm28 2 1.414-1.414A2 2 0 0 0 48 2v2zm20 20h2a2 2 0 0 0-.586-1.414L68 24zm-2 28a2 2 0 1 0 4 0h-4zM5.414 2.586a2 2 0 1 0-2.828 2.828l2.828-2.828zm69.172 74.828a2 2 0 1 0 2.828-2.828l-2.828 2.828zM70 68a2 2 0 1 0-4 0h4zM14 12a2 2 0 1 0-4 0h4zm6-6h28V2H20v4zm26.586-.586 20 20 2.828-2.828-20-20-2.828 2.828zM66 24v28h4V24h-4zM2.586 5.414l72 72 2.828-2.828-72-72-2.828 2.828zM66 68a6 6 0 0 1-6 6v4c5.523 0 10-4.477 10-10h-4zm-6 6H20v4h40v-4zm-40 0a6 6 0 0 1-6-6h-4c0 5.523 4.477 10 10 10v-4zm-6-6V12h-4v56h4z" fill="#D9DDDF"/>
</svg>
