<svg width="96" height="96" viewBox="0 0 96 96" fill="none" xmlns="http://www.w3.org/2000/svg">
<path d="M12 12L84 84" stroke="#ECEEEF" stroke-width="8" stroke-linecap="round" stroke-linejoin="round"/>
<path d="M28.0002 8C25.791 8 24.0002 9.79086 24.0002 12C24.0002 14.2091 25.791 16 28.0002 16V8ZM56.0002 12L58.8286 9.17157C58.0784 8.42143 57.061 8 56.0002 8V12ZM76.0002 32H80.0002C80.0002 30.9391 79.5787 29.9217 78.8286 29.1716L76.0002 32ZM72.0002 60C72.0002 62.2091 73.791 64 76.0002 64C78.2093 64 80.0002 62.2091 80.0002 60H72.0002ZM80 76C80 73.7909 78.2091 72 76 72C73.7909 72 72 73.7909 72 76H80ZM24 20C24 17.7909 22.2091 16 20 16C17.7909 16 16 17.7909 16 20H24ZM28.0002 16H56.0002V8H28.0002V16ZM53.1717 14.8284L73.1717 34.8284L78.8286 29.1716L58.8286 9.17157L53.1717 14.8284ZM72.0002 32V60H80.0002V32H72.0002ZM72 76C72 78.2091 70.2091 80 68 80V88C74.6274 88 80 82.6274 80 76H72ZM68 80H28V88H68V80ZM28 80C25.7909 80 24 78.2091 24 76H16C16 82.6274 21.3726 88 28 88V80ZM24 76V20H16V76H24Z" fill="#ECEEEF"/>
</svg>
